<?xml version="1.0" encoding="utf-8"?>
<!-- Generator: Adobe Illustrator 24.1.1, SVG Export Plug-In . SVG Version: 6.00 Build 0)  -->
<svg version="1.1" id="Layer_1" xmlns="http://www.w3.org/2000/svg" xmlns:xlink="http://www.w3.org/1999/xlink" x="0px" y="0px"
	 viewBox="0 0 145.35 125" style="enable-background:new 0 0 145.35 125;" xml:space="preserve">
<g>
	<path d="M23.57,57.92c-3.86-0.37-7.85-0.62-11.97-1c2.37-20.32,11.97-36.15,29.42-46.5C58.98-0.42,77.93-0.79,97.38,7.31
		c-1.75,3.74-3.37,7.36-5.11,10.97C59.73,3.57,25.69,27.13,23.57,57.92z M119.44,53.68c2.12,14.09-0.75,26.8-9.35,37.9
		s-19.95,17.08-34.03,18.7c0.37,3.99,0.62,7.85,1,11.72c29.3-1,60.71-30.42,54.23-70.31C127.29,52.31,123.43,53.06,119.44,53.68z
		 M23.33,66.4c-3.74,0.37-7.6,0.62-11.47,1c0.87,24.56,22.31,52.23,54.6,54.85c0.37-3.99,0.75-7.85,1-11.59
		C42.27,106.29,27.69,91.71,23.33,66.4z M110.09,32.62c2.99,3.86,5.36,8.23,7.11,12.96c3.74-1.37,7.48-2.74,11.34-4.11
		c-4.49-11.84-11.72-21.44-22.07-28.8c-2.24,3.24-4.61,6.48-6.86,9.85C103.48,25.39,107.1,28.75,110.09,32.62z M54.12,55.3
		c1.12,4.11,2.24,5.24,2.99,5.36c0.87,5.86,4.11,13.46,14.34,14.34c9.97-0.37,13.09-7.85,14.21-13.59c0.87,0.62,2.24,0.25,3.74-5.11
		c1.25-4.36,0.5-5.86-0.62-6.23c3.49-16.58-4.49-17.2-4.49-17.2s-1.25-2.24-4.36-3.99c-2.12-1.25-4.99-2.24-8.98-1.87
		c-1.25,0-2.49,0.25-3.49,0.62l0,0c-1.37,0.5-2.74,1.12-3.86,1.99c-1.5,0.87-2.87,1.99-3.99,3.37c-1.87,1.99-3.62,4.49-4.36,7.6
		c-0.75,2.62-0.62,5.61,0.37,8.48C54.24,48.95,52.62,49.69,54.12,55.3z M104.11,86.72c-1.25-2.74-3.37-4.74-6.98-6.11
		c-8.35-3.24-13.46-6.48-13.46-6.48l-6.48,20.44l-0.87,2.74l-2.87-8.23c6.61-9.23-0.5-9.72-1.75-9.72l0,0l0,0l0,0l0,0l0,0l0,0
		c-1.25,0-8.35,0.5-1.75,9.72l-2.87,8.23l-0.87-2.74l-6.48-20.44c0,0-4.99,3.24-13.46,6.48c-3.62,1.25-5.61,3.24-6.86,5.86
		c7.48,9.85,19.2,16.08,32.41,16.08C85.03,102.68,96.63,96.44,104.11,86.72z"/>
</g>
</svg>
