<?xml version="1.0" encoding="utf-8"?>
<!-- Generator: Adobe Illustrator 24.1.1, SVG Export Plug-In . SVG Version: 6.00 Build 0)  -->
<svg version="1.1" id="Layer_1" xmlns="http://www.w3.org/2000/svg" xmlns:xlink="http://www.w3.org/1999/xlink" x="0px" y="0px"
	 viewBox="0 0 179.74 160" style="enable-background:new 0 0 179.74 160;" xml:space="preserve">
<g>
	<g>
		<path d="M121.4,34.82c0-1.11-0.87-1.86-1.98-1.86h-7.93c-1.11,0-1.98,0.87-1.98,1.86v3.59h11.89V34.82z"/>
		<path d="M90.32,2C47.97,2,13.54,36.43,13.54,78.78s34.43,76.78,76.78,76.78s76.78-34.43,76.78-76.78S132.67,2,90.32,2z
			 M42.4,103.42c-0.5,0-0.87-0.25-1.11-0.62c-0.25-0.62-0.12-1.36,0.5-1.61l40.87-21.05L79.8,79.4c-0.62-0.12-0.99-0.87-0.87-1.49
			c0.12-0.62,0.87-0.99,1.49-0.87l5.82,1.49l0,0c0.12,0,0.25,0.12,0.37,0.25l0,0c0.12,0.12,0.25,0.25,0.25,0.37l0,0l0,0v0.12
			c0,0.12,0.12,0.25,0.12,0.37v0.12c0,0.12,0,0.25-0.12,0.37l0,0l-2.35,5.45c-0.25,0.5-0.62,0.74-1.11,0.74c-0.12,0-0.37,0-0.5-0.12
			c-0.62-0.25-0.87-0.99-0.62-1.61l0.99-2.35L42.89,103.3C42.77,103.42,42.52,103.42,42.4,103.42z M54.53,126.08
			c0,0.62-0.5,1.11-1.11,1.11h-8.3c-0.62,0-1.11-0.5-1.11-1.11v-16.59c0-0.62,0.5-1.11,1.11-1.11h8.3c0.62,0,1.11,0.5,1.11,1.11
			V126.08z M71.37,126.08c0,0.62-0.5,1.11-1.11,1.11h-8.3c-0.62,0-1.11-0.5-1.11-1.11v-25.51c0-0.62,0.5-1.11,1.11-1.11h8.3
			c0.62,0,1.11,0.5,1.11,1.11V126.08z M88.34,126.08c0,0.62-0.5,1.11-1.11,1.11h-8.3c-0.62,0-1.11-0.5-1.11-1.11V96.12
			c0-0.62,0.5-1.11,1.11-1.11h8.3c0.62,0,1.11,0.5,1.11,1.11V126.08z M91.56,39.89c0-0.37,0.12-0.62,0.37-0.87
			c0.25-0.25,0.62-0.37,0.99-0.37h14.12v-3.59c0-2.48,1.98-4.46,4.46-4.46h7.93c2.48,0,4.46,1.98,4.46,4.46v3.59H138
			c0.74,0,1.36,0.62,1.36,1.36v6.07c-1.24,1.61-9.29,8.17-20.31,9.41v-1.11c0-0.74-0.62-1.24-1.24-1.24h-4.71
			c-0.74,0-1.24,0.62-1.24,1.24v0.87c-10.15-1.36-18.82-7.8-20.31-9.29V39.89L91.56,39.89z M116.7,55.5v1.24v0.99h-2.23v-0.99V55.5
			H116.7z M116.7,113.58c0,0.62-0.5,1.24-1.24,1.24H98.37c-0.62,0-1.24-0.5-1.24-1.24s0.5-1.24,1.24-1.24h15.97V77.91
			c0-0.62,0.5-1.24,1.24-1.24c0.62,0,1.24,0.5,1.24,1.24v35.67H116.7z M139.48,69.12c0,0.74-0.62,1.36-1.36,1.36l-45.08-0.12
			c-0.74,0-1.36-0.62-1.36-1.36V49.18c3.84,2.97,11.76,7.55,20.31,8.54v1.24c0,0.74,0.62,1.24,1.24,1.24h4.71
			c0.74,0,1.24-0.62,1.24-1.24v-1.11c9.29-0.99,16.72-5.45,20.31-8.54C139.48,49.31,139.48,69.12,139.48,69.12z"/>
	</g>
</g>
</svg>
