<?xml version="1.0" encoding="utf-8"?>
<!-- Generator: Adobe Illustrator 24.1.1, SVG Export Plug-In . SVG Version: 6.00 Build 0)  -->
<svg version="1.1" id="Layer_1" xmlns="http://www.w3.org/2000/svg" xmlns:xlink="http://www.w3.org/1999/xlink" x="0px" y="0px"
	 viewBox="0 0 152.44 125" style="enable-background:new 0 0 152.44 125;" xml:space="preserve">
<g>
	<circle cx="37.41" cy="17.65" r="11.92"/>
	<g>
		<path d="M72.98,43.93c-15.77,0-28.55,17.94-28.55,40.06c0,10.56,2.92,23.03,7.67,18.91c0.63,14.52,9.47,19.78,20.32,19.78
			c11.08,0,20.08-5.48,20.36-20.73c5.39,4.83,8.75-6.63,8.75-17.96C101.53,61.87,88.74,43.93,72.98,43.93z"/>
		<g>
			<circle cx="72.98" cy="28.32" r="13.82"/>
		</g>
	</g>
	<path d="M39.16,83.99c0-16.85,6.9-31.57,17.1-39.38c-4.52-7.55-11.28-12.35-18.85-12.35c-13.6,0-24.62,15.47-24.62,34.54
		c0,9.1,2.51,8.08,6.62,4.53c0.54,12.52,8.17,17.06,17.52,17.06c0.83,0,1.63-0.05,2.43-0.12C39.16,86.54,39.16,84.97,39.16,83.99z"
		/>
	<g>
		<path d="M113.32,26.18c-9.25,0-17.31,8.08-21.62,20.09c9.1,8.13,15.1,22.01,15.1,37.73c0,1.35-0.01,3.81-0.53,6.27
			c2.03,0.69,4.24,1.01,6.57,1.01c9.69,0,17.55-5.48,17.79-20.73c4.71,4.83,7.65,7.03,7.65-4.3
			C138.27,44.11,127.1,26.18,113.32,26.18z"/>
	</g>
	<g>
		<circle cx="113.32" cy="12.94" r="11.09"/>
	</g>
</g>
</svg>
