<?xml version="1.0" encoding="utf-8"?>
<!-- Generator: Adobe Illustrator 24.1.1, SVG Export Plug-In . SVG Version: 6.00 Build 0)  -->
<svg version="1.1" id="Layer_1" xmlns="http://www.w3.org/2000/svg" xmlns:xlink="http://www.w3.org/1999/xlink" x="0px" y="0px"
	 viewBox="0 0 150.52 125" style="enable-background:new 0 0 150.52 125;" xml:space="preserve">
<g>
	<path d="M142.87,39.43c-3.27-5.82-9.08-9.94-14.88-12.98c-8.02-4.21-16.88-6.77-25.76-8.44c-1.21-0.23-2.43-0.44-3.65-0.63
		c-13.13-11.71-33.44-11.71-46.57,0c-11.68,1.84-23.72,5.1-33.74,11.59c-6.46,4.19-12.83,10.57-12.83,18.8l0,0l0,0l0,0l0,0
		c0,31.89,22.57,60.51,53.59,67.94c15.54,3.72,32.21,1.94,46.59-5.02c13.84-6.7,25.29-17.99,32.17-31.74
		c3.51-7.02,5.82-14.63,6.8-22.41C145.34,50.72,145.84,44.73,142.87,39.43z M86.73,16.03c10.33,4.32,17.59,14.41,18.31,25.59
		l0.04,0.68l0.22,0.65c0.54,1.61-1.18,3.14-2.3,4.03c-2.58,2.06-5.79,3.33-8.91,4.3c-6.75,2.1-13.97,2.79-21.04,2.56
		c-8.53-6.29-14.08-16.38-14.08-27.79c0-2.76,0.36-5.43,0.98-7.99C67.93,13.28,77.94,12.35,86.73,16.03z M119.76,94.61
		c-8.54,3.44-17.84,5.35-27.57,5.35c-22.14,0-42.03-9.79-55.91-25.36c0.16,0.05,0.32,0.1,0.48,0.15c9.48,2.82,19.32,4.33,29.19,4.91
		c19.62,1.16,40.13-0.87,58.3-8.74c5.13-2.22,10.07-5.22,14.13-9.09C135.53,74.58,128.91,85.92,119.76,94.61z M132.54,60.05
		c-5.81,4.59-12.94,7.44-19.97,9.56c-12.04,3.62-24.74,5.09-37.28,5.09c-10.07,0-20.17-0.98-30-3.19
		c-7.87-1.77-15.77-4.3-22.75-8.41c-4.64-2.73-9.59-6.54-11.31-11.88c-1.74-5.39,1.06-10.49,4.96-14.12
		c8.04-7.48,19.69-11.02,30.18-13.28c-3.44,5.04-5.63,11-6.05,17.47c-2.16,6.43,4.89,11.03,9.82,13.22
		c7.81,3.48,16.67,4.62,25.16,4.62c8.34,0,17.02-1.12,24.73-4.44c5.03-2.17,12.46-6.81,10.24-13.41
		c-0.42-6.46-2.61-12.43-6.05-17.47c8.85,1.9,17.87,4.72,25.52,9.69c4.79,3.11,9.99,7.81,10.17,13.97
		C140.06,52.68,136.41,57,132.54,60.05z"/>
</g>
</svg>
