<svg xmlns="http://www.w3.org/2000/svg" width="76" height="76" viewBox="0 0 76 76"><defs><style>.a{fill:#4d4c4c;}</style></defs><g transform="translate(0 0)"><path class="a" d="M96,416h2.533v2.533H96Z" transform="translate(-83.333 -352.667)"/><path class="a" d="M17.267,251.867H23.6V265.8a1.267,1.267,0,0,0,1.267,1.267H60.333A1.267,1.267,0,0,0,61.6,265.8V250.6a1.267,1.267,0,0,0-1.267-1.267H54V235.4a1.267,1.267,0,0,0-1.267-1.267H32.818l-.6-.361a9.969,9.969,0,0,1-4.816-8.506A1.267,1.267,0,0,0,26.134,224H17.267A1.267,1.267,0,0,0,16,225.267v3.8a7.569,7.569,0,0,0,1.941,5.067h-.675A1.267,1.267,0,0,0,16,235.4v15.2a1.267,1.267,0,0,0,1.267,1.267Zm1.267-15.2H28.667V239.2H26.133v2.533h2.533v2.533h-7.6V246.8h7.6v2.533H18.533Zm7.6,15.2H36.267V254.4H33.733v2.533h2.533v2.533h-7.6V262h7.6v2.533H26.133ZM38.8,264.533V251.867h7.6v12.667Zm12.667-20.267H41.333v-2.533H51.467Zm-2.533,12.667H59.067v2.533H48.933Zm0,7.6V262H59.067v2.533ZM59.067,254.4H48.933v-2.533H59.067Zm-11.4-5.067H41.333V246.8H51.467v2.533Zm3.8-10.133H41.333v-2.533H51.467ZM38.8,249.333H31.2V236.667h7.6ZM18.533,229.067v-2.533h6.4a12.552,12.552,0,0,0,3.65,7.6H23.6a5.072,5.072,0,0,1-5.067-5.067Z" transform="translate(-16 -191.067)"/><path class="a" d="M48,320h2.533v2.533H48Z" transform="translate(-42.933 -271.867)"/><path class="a" d="M222.867,16H179.8a3.8,3.8,0,0,0-3.8,3.8V56.533h2.533V19.8a1.268,1.268,0,0,1,1.267-1.267h43.067a1.268,1.268,0,0,1,1.267,1.267V80.6a1.268,1.268,0,0,1-1.267,1.267H198.8V84.4h24.067a3.8,3.8,0,0,0,3.8-3.8V19.8A3.8,3.8,0,0,0,222.867,16Z" transform="translate(-150.667 -16)"/><path class="a" d="M223.6,69.933h22.8a1.267,1.267,0,0,0,.9-.371l6.333-6.333a1.267,1.267,0,0,0,.371-.9V57.267A1.267,1.267,0,0,0,252.733,56H217.267A1.267,1.267,0,0,0,216,57.267v5.067a1.267,1.267,0,0,0,.371.9l6.333,6.333A1.267,1.267,0,0,0,223.6,69.933Zm-5.067-11.4h32.933v3.275L245.875,67.4H224.125l-5.591-5.591Z" transform="translate(-184.333 -49.667)"/><path class="a" d="M328,96h2.533v2.533H328Z" transform="translate(-278.6 -83.333)"/><path class="a" d="M360,96h2.533v2.533H360Z" transform="translate(-305.533 -83.333)"/><path class="a" d="M392,96h2.533v2.533H392Z" transform="translate(-332.467 -83.333)"/><path class="a" d="M216,178.133v6.333h2.533V179.4h6.333v20.267H227.4v-2.533h6.333v6.333h-1.267V206h20.267A1.267,1.267,0,0,0,254,204.733V169.267A1.267,1.267,0,0,0,252.733,168H217.267A1.267,1.267,0,0,0,216,169.267Zm35.467,7.6h-6.333V179.4h6.333Zm-15.2,2.533H242.6V194.6h-6.333Zm6.333-2.533h-6.333V179.4H242.6Zm-8.867,0H227.4V179.4h6.333ZM227.4,194.6v-6.333h6.333V194.6Zm8.867,2.533H242.6v6.333h-6.333Zm15.2,6.333h-6.333v-15.2h6.333Zm0-26.6h-6.333v-6.333h6.333Zm-8.867,0h-6.333v-6.333H242.6Zm-8.867,0H227.4v-6.333h6.333Zm-15.2-6.333h6.333v6.333h-6.333Z" transform="translate(-184.333 -143.933)"/></g></svg>