<svg xmlns="http://www.w3.org/2000/svg" width="52.002" height="42.658" viewBox="0 0 52.002 42.658"><defs><style>.a{fill:#e99f1e;}</style></defs><g transform="translate(0 -46)"><path class="a" d="M247.016,386a1.016,1.016,0,1,0,1.016,1.016A1.016,1.016,0,0,0,247.016,386Z" transform="translate(-221.015 -305.467)"/><path class="a" d="M47.644,47.561A25.237,25.237,0,0,0,38.494,46a25.237,25.237,0,0,0-9.15,1.561A9.015,9.015,0,0,0,26,49.7a9.015,9.015,0,0,0-3.343-2.138A25.234,25.234,0,0,0,13.508,46a25.237,25.237,0,0,0-9.15,1.561C1.548,48.693,0,50.3,0,52.094V76.47c0,1.791,1.548,3.4,4.359,4.533A24.7,24.7,0,0,0,12.8,82.555v.009c0,3.474,5.676,6.094,13.2,6.094s13.2-2.62,13.2-6.094v-.009A24.7,24.7,0,0,0,47.644,81C50.454,79.871,52,78.261,52,76.47V52.094C52,50.3,50.454,48.693,47.644,47.561Zm2.327,22.815c0,.867-1.183,1.882-3.086,2.649a22.96,22.96,0,0,1-7.68,1.4V70.376s0-.006,0-.009a24.7,24.7,0,0,0,8.439-1.552,11.059,11.059,0,0,0,2.327-1.244v2.8ZM24.985,58.188c0,.867-1.183,1.882-3.086,2.649a23.518,23.518,0,0,1-8.391,1.414,23.518,23.518,0,0,1-8.391-1.414c-1.9-.767-3.086-1.782-3.086-2.649v-2.8a11.059,11.059,0,0,0,2.327,1.244,25.237,25.237,0,0,0,9.15,1.561,25.237,25.237,0,0,0,9.15-1.561,11.059,11.059,0,0,0,2.327-1.244ZM4.359,62.721a25.237,25.237,0,0,0,9.15,1.561,25.237,25.237,0,0,0,9.15-1.561,11.059,11.059,0,0,0,2.327-1.244V64.3A24.7,24.7,0,0,0,17.8,65.538a8.74,8.74,0,0,0-4.315,2.806,23.5,23.5,0,0,1-8.367-1.414c-1.9-.767-3.086-1.782-3.086-2.649v-2.8A11.059,11.059,0,0,0,4.359,62.721Zm-2.327,4.85a11.059,11.059,0,0,0,2.327,1.244A24.7,24.7,0,0,0,12.8,70.367s0,.006,0,.009v4.053a22.96,22.96,0,0,1-7.68-1.4c-1.9-.767-3.086-1.782-3.086-2.649Zm12.9,2.306c.753-1.752,5.1-3.564,11.065-3.564s10.312,1.812,11.064,3.562a1.257,1.257,0,0,1,.108.5c0,.893-1.1,1.885-2.945,2.653A22.105,22.105,0,0,1,26,74.439a22.105,22.105,0,0,1-8.227-1.409c-1.844-.768-2.945-1.76-2.945-2.653A1.254,1.254,0,0,1,14.936,69.877Zm35.035-5.6c0,.867-1.183,1.882-3.086,2.649a23.5,23.5,0,0,1-8.367,1.414A8.74,8.74,0,0,0,34.2,65.538,24.7,24.7,0,0,0,27.017,64.3V61.477a11.059,11.059,0,0,0,2.327,1.244,25.237,25.237,0,0,0,9.15,1.561,25.237,25.237,0,0,0,9.15-1.561,11.059,11.059,0,0,0,2.327-1.244Zm0-6.094c0,.867-1.183,1.882-3.086,2.649a23.518,23.518,0,0,1-8.391,1.414A23.518,23.518,0,0,1,30.1,60.837c-1.9-.767-3.086-1.782-3.086-2.649v-2.8a11.059,11.059,0,0,0,2.327,1.244,25.237,25.237,0,0,0,9.15,1.561,25.237,25.237,0,0,0,9.15-1.561,11.059,11.059,0,0,0,2.327-1.244ZM30.1,49.445a23.518,23.518,0,0,1,8.391-1.414,23.518,23.518,0,0,1,8.391,1.414c1.9.767,3.086,1.782,3.086,2.649s-1.183,1.882-3.086,2.649a23.518,23.518,0,0,1-8.391,1.414A23.518,23.518,0,0,1,30.1,54.743c-1.9-.767-3.086-1.782-3.086-2.649S28.2,50.212,30.1,49.445Zm-24.985,0a23.518,23.518,0,0,1,8.391-1.414A23.518,23.518,0,0,1,21.9,49.445c1.9.767,3.086,1.782,3.086,2.649S23.8,53.976,21.9,54.743a23.518,23.518,0,0,1-8.391,1.414,23.518,23.518,0,0,1-8.391-1.414c-1.9-.767-3.086-1.782-3.086-2.649S3.214,50.212,5.117,49.445Zm0,29.673c-1.9-.767-3.086-1.782-3.086-2.649v-2.8a11.059,11.059,0,0,0,2.327,1.244A24.7,24.7,0,0,0,12.8,76.461v4.061A22.959,22.959,0,0,1,5.117,79.119Zm29.111,6.1A22.105,22.105,0,0,1,26,86.627a22.105,22.105,0,0,1-8.227-1.409c-1.844-.768-2.945-1.76-2.945-2.653V79.819a8.947,8.947,0,0,0,.766.5A17.788,17.788,0,0,0,21.8,82.266a1.026,1.026,0,0,0,.149.011,1.016,1.016,0,0,0,.146-2.021c-4.72-.693-7.267-2.468-7.267-3.786V73.716C17.128,75.4,21.186,76.47,26,76.47s8.873-1.072,11.172-2.754V76.47c0,1.318-2.547,3.093-7.267,3.786a1.016,1.016,0,0,0,.146,2.021,1.028,1.028,0,0,0,.149-.011,17.788,17.788,0,0,0,6.206-1.952,8.964,8.964,0,0,0,.766-.5v2.745C37.173,83.457,36.073,84.449,34.229,85.217Zm12.656-6.1a22.96,22.96,0,0,1-7.68,1.4V76.461a24.7,24.7,0,0,0,8.439-1.552,11.06,11.06,0,0,0,2.327-1.244v2.8C49.971,77.337,48.788,78.352,46.885,79.119Z" transform="translate(0)"/></g></svg>