<svg xmlns="http://www.w3.org/2000/svg" width="77.243" height="80.523" viewBox="0 0 77.243 80.523"><defs><style>.a{opacity:0.8;}.b{fill:#4d4c4c;}</style></defs><g class="a" transform="translate(0 6.978)"><g transform="translate(0 -6.978)"><path class="b" d="M38.576.022a37.116,37.116,0,0,0-4.145.232,35.083,35.083,0,0,0-3.738.622q-.357.078-.714.164A38.238,38.238,0,0,0,10.928,12.162q-.724.774-1.418,1.594C-4.516,30.544-2.833,56.007,13.27,70.63A37.531,37.531,0,0,0,66.229,68.5q.726-.774,1.418-1.594a41.251,41.251,0,0,0,9.6-26.577C77.242,18.07,59.931.022,38.576.022ZM12.646,14.178c.2-.22.415-.431.623-.645.24-.246.478-.493.723-.731.215-.21.437-.411.657-.615.249-.23.5-.46.751-.681.224-.2.455-.387.684-.578.258-.215.516-.43.781-.637.235-.184.473-.363.713-.537.267-.2.535-.4.807-.589.244-.172.49-.339.737-.5.276-.184.553-.365.833-.537q.378-.235.76-.462.428-.254.86-.5.387-.215.773-.421c.294-.155.59-.3.888-.45.258-.128.526-.255.791-.376.3-.134.61-.269.916-.4.267-.114.532-.226.8-.333.312-.124.628-.239.943-.355.269-.1.539-.2.812-.289.321-.107.644-.207.969-.305.272-.082.541-.167.815-.243.1-.028.209-.051.313-.079a33.6,33.6,0,0,0-8.237,13.945,42.23,42.23,0,0,1-8.831-3.543C12.572,14.265,12.608,14.218,12.646,14.178Zm-1.853,2.163A43.729,43.729,0,0,0,20.574,20.4a72.489,72.489,0,0,0-2.6,18.59H2.518A38.484,38.484,0,0,1,10.792,16.341Zm0,47.984A38.489,38.489,0,0,1,2.518,41.677H17.971a72.481,72.481,0,0,0,2.6,18.59A43.759,43.759,0,0,0,10.792,64.326ZM29.277,76.683c-.26-.069-.53-.157-.8-.239-.326-.1-.653-.2-.976-.308-.272-.091-.54-.189-.808-.288-.317-.114-.634-.231-.947-.356-.268-.106-.532-.218-.8-.331l-.922-.4q-.394-.181-.785-.374c-.3-.148-.6-.3-.9-.454-.258-.134-.516-.269-.773-.415-.291-.163-.58-.329-.869-.5-.258-.149-.5-.3-.751-.458-.284-.177-.562-.36-.84-.547-.245-.163-.49-.328-.731-.5-.275-.193-.546-.4-.816-.6-.236-.176-.472-.352-.7-.537-.267-.21-.528-.426-.789-.644-.228-.189-.455-.378-.678-.572-.258-.223-.507-.456-.757-.687-.219-.2-.44-.4-.653-.61-.246-.239-.485-.488-.724-.734-.208-.214-.419-.425-.623-.644-.037-.042-.073-.085-.111-.125a42.2,42.2,0,0,1,8.831-3.545,33.608,33.608,0,0,0,8.237,13.945C29.487,76.735,29.382,76.712,29.277,76.683Zm8.01,1.169c-5.515-.817-10.35-6.818-13.391-15.68a62.95,62.95,0,0,1,13.391-1.643V77.852Zm0-20.011a65.236,65.236,0,0,0-14.2,1.766,69.879,69.879,0,0,1-2.538-17.929H37.288V57.841Zm0-18.851H20.549A69.865,69.865,0,0,1,23.087,21.06a65.259,65.259,0,0,0,14.2,1.766Zm0-18.851A62.885,62.885,0,0,1,23.9,18.5c3.042-8.862,7.876-14.863,13.391-15.68V20.139Zm29.073-3.8A38.489,38.489,0,0,1,74.635,38.99H59.182a72.482,72.482,0,0,0-2.6-18.59A43.775,43.775,0,0,0,66.361,16.341ZM47.865,3.983c.271.07.54.159.808.241.326.1.653.2.976.308.272.091.54.189.808.288.317.114.634.231.947.356.268.106.532.218.8.331l.922.4q.394.181.785.374c.3.148.6.3.9.454.258.134.516.269.773.415.291.163.58.329.869.5.258.149.5.3.751.458.284.177.562.36.84.547.245.163.49.328.731.5.275.193.545.394.815.6.237.176.473.353.706.537.266.208.526.425.787.642.227.188.455.376.678.572.258.223.507.456.757.687.219.2.439.4.653.61.246.239.485.488.724.734.208.214.419.425.623.644.037.042.073.085.111.125A42.2,42.2,0,0,1,55.8,17.846,33.6,33.6,0,0,0,47.551,3.9C47.655,3.931,47.761,3.954,47.865,3.983Zm-8-1.168c5.515.817,10.35,6.818,13.391,15.68a62.951,62.951,0,0,1-13.391,1.643V2.815Zm0,20.011a65.237,65.237,0,0,0,14.2-1.766A69.878,69.878,0,0,1,56.6,38.99H39.865Zm0,18.851H56.6a69.864,69.864,0,0,1-2.538,17.929h0a65.258,65.258,0,0,0-14.2-1.766Zm0,36.174V60.528a62.885,62.885,0,0,1,13.391,1.643C50.215,71.034,45.38,77.035,39.865,77.852ZM64.507,66.489c-.2.219-.414.43-.621.644-.24.246-.479.494-.726.734-.214.208-.434.4-.653.611-.25.231-.5.462-.754.685-.226.2-.455.386-.684.576-.258.215-.516.43-.781.637-.235.184-.473.363-.713.537-.267.2-.535.4-.807.589-.244.172-.49.339-.737.5q-.414.278-.834.537c-.258.157-.5.31-.758.462q-.428.254-.861.5-.387.215-.773.421c-.294.155-.59.3-.888.45-.258.128-.526.255-.791.376-.3.134-.61.269-.916.4-.267.113-.532.226-.8.332-.314.125-.63.242-.947.356-.268.1-.536.2-.808.288-.322.109-.644.208-.973.306-.269.083-.54.167-.812.243-.1.028-.209.051-.313.079A33.6,33.6,0,0,0,55.792,62.81a42.229,42.229,0,0,1,8.831,3.543C64.581,66.4,64.545,66.449,64.507,66.489Zm1.853-2.163a43.73,43.73,0,0,0-9.781-4.058,72.489,72.489,0,0,0,2.6-18.59H74.635A38.483,38.483,0,0,1,66.361,64.326Z" transform="translate(0 -0.022)"/></g></g></svg>