<svg xmlns="http://www.w3.org/2000/svg" width="76" height="76" viewBox="0 0 76 76"><defs><style>.a{opacity:0.8;}.b{fill:#4d4c4c;}</style></defs><g class="a"><path class="b" d="M71.082,43.112V36.654h.158a2.3,2.3,0,0,0,2.3-2.3V26.892a2.3,2.3,0,0,0-2.3-2.3h-.158V22.016A22.041,22.041,0,0,0,49.066,0H26.934A22.041,22.041,0,0,0,4.918,22.016v2.576H4.76a2.3,2.3,0,0,0-2.3,2.3v7.462a2.3,2.3,0,0,0,2.3,2.3h.158v6.458A5.872,5.872,0,0,0,0,48.9V59.071a5.87,5.87,0,0,0,5.863,5.863H9.836v.2a3.492,3.492,0,0,0,3.488,3.488h5.087A3.492,3.492,0,0,0,21.9,65.134V50.608a1.113,1.113,0,0,0-2.227,0V65.134A1.263,1.263,0,0,1,18.411,66.4H13.325a1.263,1.263,0,0,1-1.262-1.262v-22.3a1.263,1.263,0,0,1,1.262-1.262h5.087a1.263,1.263,0,0,1,1.262,1.262v3.233a1.113,1.113,0,0,0,2.227,0V42.834a3.492,3.492,0,0,0-3.488-3.488H13.325a3.47,3.47,0,0,0-1.262.237V36.654h.158a2.3,2.3,0,0,0,2.3-2.3V26.892a2.3,2.3,0,0,0-2.3-2.3h-.158V22.016A14.888,14.888,0,0,1,26.934,7.145h1.121a1.113,1.113,0,0,0,0-2.227H26.934a17.117,17.117,0,0,0-17.1,17.1v2.576H7.145V22.016A19.812,19.812,0,0,1,26.934,2.227H49.066A19.812,19.812,0,0,1,68.855,22.016v2.576H66.163V22.016a17.117,17.117,0,0,0-17.1-17.1H32.508a1.113,1.113,0,1,0,0,2.227H49.066A14.888,14.888,0,0,1,63.937,22.016v2.576h-.158a2.3,2.3,0,0,0-2.3,2.3v7.462a2.3,2.3,0,0,0,2.3,2.3h.158v2.929a3.47,3.47,0,0,0-1.262-.237H57.589A3.492,3.492,0,0,0,54.1,42.834v22.3a3.492,3.492,0,0,0,3.488,3.488h5.087a3.492,3.492,0,0,0,3.488-3.488v-.2h1.462v2.576a3.809,3.809,0,0,1-3.8,3.805H48.95v-.158a2.3,2.3,0,0,0-2.3-2.3H34.269a2.3,2.3,0,0,0-2.3,2.3V73.7a2.3,2.3,0,0,0,2.3,2.3h12.38a2.3,2.3,0,0,0,2.3-2.3v-.158H63.821a6.038,6.038,0,0,0,6.031-6.032V64.934h.285A5.87,5.87,0,0,0,76,59.071V48.9a5.872,5.872,0,0,0-4.918-5.786ZM5.863,62.707a3.641,3.641,0,0,1-3.637-3.637V48.9a3.641,3.641,0,0,1,3.637-3.637H9.836v3.921H7.219a2.3,2.3,0,0,0-2.3,2.3v5a2.3,2.3,0,0,0,2.3,2.3H9.836v3.921ZM9.836,56.56H7.219a.074.074,0,0,1-.074-.074v-5a.074.074,0,0,1,.074-.074H9.836V56.56Zm0-13.726v.2H7.145v-6.38H9.836v6.18ZM12.3,26.892v7.462a.074.074,0,0,1-.074.074H4.76a.074.074,0,0,1-.074-.074V26.892a.074.074,0,0,1,.074-.074h7.462A.074.074,0,0,1,12.3,26.892ZM34.2,73.7V71.156a.074.074,0,0,1,.074-.074h7.536v2.692H34.269A.074.074,0,0,1,34.2,73.7Zm12.528,0a.074.074,0,0,1-.074.074H44.032V71.082h2.617a.074.074,0,0,1,.074.074ZM63.7,34.353V26.892a.074.074,0,0,1,.074-.074H71.24a.074.074,0,0,1,.074.074v7.462a.074.074,0,0,1-.074.074H63.779A.074.074,0,0,1,63.7,34.353Zm5.151,2.3v6.38H66.163v-6.38h2.692ZM66.163,51.409h2.617a.074.074,0,0,1,.074.074v5a.074.074,0,0,1-.074.074H66.163ZM63.937,65.134A1.263,1.263,0,0,1,62.675,66.4H57.589a1.263,1.263,0,0,1-1.262-1.262v-22.3a1.263,1.263,0,0,1,1.262-1.262h5.087a1.263,1.263,0,0,1,1.262,1.262v22.3Zm9.837-6.064a3.641,3.641,0,0,1-3.637,3.637H66.163V58.786h2.617a2.3,2.3,0,0,0,2.3-2.3v-5a2.3,2.3,0,0,0-2.3-2.3H66.163V45.261h3.973A3.641,3.641,0,0,1,73.773,48.9Z"/></g></svg>