<svg xmlns="http://www.w3.org/2000/svg" width="17.463" height="17.463" viewBox="0 0 17.463 17.463"><defs><style>.a{fill:#e99f1e;}</style></defs><path class="a" d="M12.26,0H5.2A5.208,5.208,0,0,0,0,5.2v7.059a5.208,5.208,0,0,0,5.2,5.2h7.058a5.208,5.208,0,0,0,5.2-5.2V5.2A5.208,5.208,0,0,0,12.26,0Zm3.446,12.26a3.446,3.446,0,0,1-3.446,3.446H5.2A3.446,3.446,0,0,1,1.756,12.26V5.2A3.446,3.446,0,0,1,5.2,1.756h7.058A3.446,3.446,0,0,1,15.706,5.2v7.059Z"/><path class="a" d="M9.335,4.819a4.516,4.516,0,1,0,4.518,4.516A4.522,4.522,0,0,0,9.335,4.819Zm0,7.276a2.76,2.76,0,1,1,2.76-2.76A2.76,2.76,0,0,1,9.335,12.1Z" transform="translate(-0.604 -0.604)"/><ellipse class="a" cx="1.082" cy="1.082" rx="1.082" ry="1.082" transform="translate(12.174 3.167)"/></svg>