<?xml version="1.0" encoding="utf-8"?>
<!-- Generator: Adobe Illustrator 24.1.1, SVG Export Plug-In . SVG Version: 6.00 Build 0)  -->
<svg version="1.1" id="Layer_1" xmlns="http://www.w3.org/2000/svg" xmlns:xlink="http://www.w3.org/1999/xlink" x="0px" y="0px"
	 viewBox="0 0 275.5 250" style="enable-background:new 0 0 275.5 250;" xml:space="preserve">
<defs><style>*{fill:#e99f1e;}</style></defs>
<g>
	<g>
		<path d="M220.7,215.3l-30.8-30.8l3.1-3.1c14.9-14.9,23.1-34.7,23.1-55.8v-4.4h43.6v4.4c0,32.7-12.7,63.5-35.9,86.7L220.7,215.3z
			 M202.4,184.5l18.3,18.3c18.5-20,29.1-45.5,30.1-72.8H225C224,150.3,216.1,169.4,202.4,184.5z"/>
		<path d="M102.9,54.3L86.3,14.1l4.1-1.7C105.2,6.2,120.9,3,137.2,3h4.4v43.6l-4.4,0c-10.4,0-20.6,2-30.2,6L102.9,54.3z M97.9,18.9
			l9.9,23.9c8.1-2.9,16.4-4.6,25-5V11.9C120.7,12.4,109,14.7,97.9,18.9z"/>
		<g>
			<path d="M194.8,17.4l-32.5,32.5v0.8c2.9,1,5.7,2.1,8.4,3.4L202.7,22C200.2,20.3,197.5,18.8,194.8,17.4z"/>
			<path d="M162.3,27.7v12.5l26.1-26.1c-2.9-1.3-5.9-2.6-8.9-3.7L162.3,27.7z"/>
			<path d="M220.7,35.8l-30.9,30.9c2.2,2,4.3,4.1,6.3,6.3L227,42C224.9,39.9,222.9,37.8,220.7,35.8z"/>
			<path d="M240.8,60l-32,32c1.3,2.7,2.4,5.5,3.4,8.4h0.7l32.5-32.5C243.9,65.2,242.4,62.6,240.8,60z"/>
			<path d="M244.6,100.5h12.5c-0.7-3.4-1.6-6.7-2.5-10L244.6,100.5z"/>
			<path d="M215.6,31.3c-2.3-1.9-4.6-3.7-7.1-5.5L177,57.4c2.6,1.5,5.1,3.2,7.5,5L215.6,31.3z"/>
			<path d="M252.2,83.2c-1.1-3-2.3-6-3.7-8.9l-26.1,26.1H235L252.2,83.2z"/>
			<path d="M172.3,8.1c-3.3-1-6.6-1.8-10-2.5v12.5L172.3,8.1z"/>
			<path d="M236.9,54.2c-1.7-2.4-3.6-4.8-5.5-7.1l-31.1,31.1c1.8,2.4,3.5,4.9,5,7.5L236.9,54.2z"/>
		</g>
		<path d="M137.2,248.1c-67.6,0-122.5-55-122.5-122.5c0-38.4,18.3-75,48.8-97.9l5.3,7.1C40.5,56,23.5,89.9,23.5,125.6
			c0,62.7,51,113.7,113.6,113.7c20.4,0,40.4-5.4,57.8-15.7l4.5,7.6C180.8,242.2,159.2,248.1,137.2,248.1z"/>
		<g>
			<path d="M137.2,213.4c-1.9,0-3.7-0.1-5.6-0.2l0.6-8.8c2.8,0.2,5.7,0.2,8.5,0.1l0.4,8.9C139.8,213.4,138.5,213.4,137.2,213.4z
				 M150.6,212.4l-1.3-8.8c2.8-0.4,5.6-1,8.3-1.7l2.3,8.6C156.8,211.3,153.7,211.9,150.6,212.4z M122.2,212.1
				c-3.1-0.5-6.2-1.2-9.3-2.1l2.4-8.5c2.7,0.8,5.5,1.4,8.3,1.9L122.2,212.1z M104,206.9c-2.9-1.2-5.8-2.6-8.6-4.1l4.2-7.8
				c2.5,1.4,5.1,2.6,7.7,3.7L104,206.9z M87.3,197.8c-2.6-1.8-5.1-3.7-7.5-5.8l5.8-6.7c2.2,1.9,4.4,3.6,6.7,5.2L87.3,197.8z
				 M73,185.4c-2.1-2.3-4.2-4.8-6.1-7.3l7.1-5.3c1.7,2.3,3.5,4.5,5.5,6.5L73,185.4z M61.6,170.3c-1.6-2.7-3.1-5.5-4.4-8.4l8.1-3.7
				c1.2,2.6,2.5,5.1,4,7.6L61.6,170.3z M53.8,153c-1-3-1.8-6.1-2.5-9.2L60,142c0.6,2.8,1.3,5.5,2.2,8.2L53.8,153z M49.8,134.5
				c-0.3-2.9-0.4-6-0.4-8.9l0-0.5l8.9,0.1l0,0.5c0,2.7,0.1,5.4,0.4,8.1L49.8,134.5z M58.7,116.5l-8.8-1c0.4-3.1,0.9-6.3,1.6-9.4
				l8.6,2C59.6,110.9,59.1,113.7,58.7,116.5z M62.5,99.9L54.1,97c1-3,2.2-5.9,3.6-8.8l8,3.8C64.5,94.6,63.4,97.2,62.5,99.9z
				 M69.8,84.5l-7.6-4.6c1.6-2.7,3.4-5.3,5.4-7.8l7,5.4C72.9,79.7,71.2,82.1,69.8,84.5z"/>
			<rect x="75.6" y="60.3" transform="matrix(0.6923 -0.7216 0.7216 0.6923 -22.0653 77.65)" width="8.9" height="8.9"/>
			<rect x="167" y="197.2" transform="matrix(0.9215 -0.3883 0.3883 0.9215 -64.8492 82.3731)" width="8.9" height="8.9"/>
		</g>
	</g>
	<g>
		<rect x="94" y="121.2" transform="matrix(0.7071 -0.7071 0.7071 0.7071 -48.6326 133.7839)" width="86.3" height="8.9"/>
		<g>
			<path d="M156.2,160.5c-8.8,0-15.9-7.2-15.9-15.9c0-8.8,7.1-15.9,15.9-15.9c8.8,0,15.9,7.1,15.9,15.9
				C172.1,153.4,165,160.5,156.2,160.5z M156.2,137.5c-3.9,0-7.1,3.2-7.1,7.1c0,3.9,3.2,7.1,7.1,7.1c3.9,0,7.1-3.2,7.1-7.1
				C163.2,140.7,160.1,137.5,156.2,137.5z"/>
			<path d="M118.2,122.5c-8.8,0-15.9-7.1-15.9-15.9c0-8.8,7.1-15.9,15.9-15.9c8.8,0,15.9,7.1,15.9,15.9
				C134.1,115.4,126.9,122.5,118.2,122.5z M118.2,99.5c-3.9,0-7.1,3.2-7.1,7.1c0,3.9,3.2,7.1,7.1,7.1c3.9,0,7.1-3.2,7.1-7.1
				C125.2,102.7,122.1,99.5,118.2,99.5z"/>
		</g>
	</g>
</g>
</svg>
