<?xml version="1.0" encoding="utf-8"?>
<!-- Generator: Adobe Illustrator 24.1.1, SVG Export Plug-In . SVG Version: 6.00 Build 0)  -->
<svg version="1.1" id="Layer_1" xmlns="http://www.w3.org/2000/svg" xmlns:xlink="http://www.w3.org/1999/xlink" x="0px" y="0px"
	 viewBox="0 0 107.3 80" style="enable-background:new 0 0 107.3 80;" xml:space="preserve">
	 <defs><style>*{fill:#e99f1e;}</style></defs>
<g>
	<path d="M53.2,52.9c0.6-0.7,1-1.6,0.9-2.5v-0.8c0-0.9-0.3-1.9-0.9-2.6c-1.3-1.3-3.5-1.3-4.8,0c-0.6,0.7-1,1.6-0.9,2.5v0.8
		c0,1,0.3,1.9,1,2.6c0.6,0.6,1.5,1,2.4,1C51.7,53.9,52.6,53.6,53.2,52.9z M49,50.4v-0.8c0-0.6,0.1-1.1,0.5-1.5
		c0.6-0.7,1.8-0.8,2.5-0.1c0.1,0,0.1,0.1,0.1,0.1c0.3,0.4,0.5,1,0.5,1.5v0.8c0,0.6-0.1,1.1-0.5,1.6c-0.3,0.4-0.8,0.6-1.3,0.6
		c-0.5,0-1-0.2-1.3-0.6C49.2,51.5,49,50.9,49,50.4z"/>
	<polygon points="58.1,47.9 50.1,61.1 51.3,61.9 59.3,48.7 	"/>
	<path d="M58.8,55.5c-0.9,0-1.8,0.3-2.4,1c-0.6,0.7-1,1.6-0.9,2.5v0.8c0,1,0.3,1.9,1,2.6c0.6,0.6,1.5,1,2.4,1c0.9,0,1.8-0.3,2.4-1
		c0.6-0.7,1-1.6,0.9-2.5v-0.8c0-1-0.3-1.9-0.9-2.6C60.6,55.9,59.7,55.5,58.8,55.5z M60.6,59.9c0,0.6-0.1,1.1-0.5,1.6
		c-0.3,0.4-0.8,0.6-1.3,0.6c-0.5,0-1-0.2-1.3-0.6c-0.3-0.4-0.5-1-0.5-1.5V59c0-0.6,0.1-1.1,0.5-1.6c0.3-0.4,0.8-0.6,1.3-0.6
		c0.5,0,1,0.2,1.3,0.6c0.3,0.4,0.5,1,0.5,1.5L60.6,59.9z"/>
	<path d="M88.2,4H21.5c-3.7,0-6.7,3-6.7,6.7V56c0,3.7,3,6.7,6.7,6.7h7.9c0.7,0,1.3-0.6,1.3-1.3c0-0.7-0.6-1.3-1.3-1.3h-7.9
		c-2.2,0-4-1.8-4-4V29.4h57.4c0.7,0,1.3-0.6,1.3-1.3c0-0.7-0.6-1.3-1.3-1.3H17.5v-8h74.7v8h-9.3c-0.7,0-1.3,0.6-1.3,1.3
		c0,0.7,0.6,1.3,1.3,1.3h9.3V56c0,2.2-1.8,4-4,4h-7.9c-0.7,0-1.3,0.6-1.3,1.3c0,0.7,0.6,1.3,1.3,1.3h7.9c3.7,0,6.7-3,6.7-6.7V10.7
		C94.8,7,91.9,4,88.2,4z M17.5,16v-5.3c0-2.2,1.8-4,4-4h66.7c2.2,0,4,1.8,4,4V16H17.5z"/>
	<path d="M54.8,33.4c-11.8,0-21.4,9.6-21.4,21.4S43,76.1,54.8,76.1s21.4-9.6,21.4-21.4C76.2,42.9,66.6,33.4,54.8,33.4z M54.8,73.4
		c-10.3,0-18.7-8.4-18.7-18.7S44.5,36,54.8,36s18.7,8.4,18.7,18.7C73.5,65,65.1,73.4,54.8,73.4z"/>
</g>
</svg>
