<svg xmlns="http://www.w3.org/2000/svg" width="11.33" height="12.948" viewBox="0 0 11.33 12.948"><defs><style>.a{fill:#fff;}</style></defs><g transform="translate(-2)"><path class="a" d="M7.665,0A4.109,4.109,0,0,0,3.556,4.109v.747H2.809A.81.81,0,0,0,2,5.665v6.474a.81.81,0,0,0,.809.809H12.52a.81.81,0,0,0,.809-.809V5.665a.81.81,0,0,0-.809-.809h-.747V4.109A4.109,4.109,0,0,0,7.665,0ZM5.175,4.109a2.49,2.49,0,0,1,4.98,0v.747H5.175Zm2.49,6.412A1.619,1.619,0,1,1,9.283,8.9,1.618,1.618,0,0,1,7.665,10.52Z"/></g></svg>