<svg xmlns="http://www.w3.org/2000/svg" width="238.5" height="58.715" viewBox="0 0 238.5 58.715"><defs><style>.a{fill:#fff;}</style></defs><g transform="translate(-44.149 -83.302)"><path class="a" d="M82.6,150.179c-3.036,2.765-4.895,6.39-9.472,6.028a7.425,7.425,0,0,1-4.895-1.994c-7.251-7.251-14.593-14.457-21.754-21.8a7.457,7.457,0,0,1,.091-10.922c3.988-4.079,8.067-8.112,12.146-12.191.634.77.363,1.541.363,2.266.045,7.251.136,14.5-.045,21.754-.091,2.719,1.5,2.311,3.127,2.357,1.677.045,2.991.045,2.719-2.311-.181-1.949,0-3.943-.045-5.892-.045-1.224.408-1.541,1.586-1.541,3.49.045,6.934.091,10.424,0,1.4-.045,1.768.363,1.768,1.768-.091,6.209-.045,12.373-.045,18.581C78.57,149.862,78.57,149.862,82.6,150.179Z" transform="translate(0 -14.216)"/><path class="a" d="M82.2,93.045a101.291,101.291,0,0,1,7.75-8.067c2.946-2.493,6.843-2.13,9.653.589,7.3,7.206,14.593,14.457,21.8,21.8,2.946,2.991,3.354,7.025.544,10.016-5.3,5.62-11.013,10.877-16.723,16.451V129.12c0-4.985.136-9.971-.045-14.956-.091-2.311.68-2.9,2.765-2.629a28.358,28.358,0,0,0,3.4.045c2.855,0,4.124-1.949,3.036-4.623-.453-1.088-1.4-.725-2.13-.725-8.022-.045-16-.091-24.02.045-2.039.045-2.538-.544-2.493-2.538.136-5.031.045-5.031,5.076-5.031,2.719,0,5.438-.091,8.158.045,1.858.091,2.447-.634,2.221-2.357a1.717,1.717,0,0,1,0-.68c.317-1.994-.408-2.765-2.583-2.719C93.168,93.181,87.729,93.045,82.2,93.045Z" transform="translate(-20.806)"/><path class="a" d="M191.013,119.865c0-3.943.045-7.84-.045-11.783-.045-1.5.317-2.13,1.994-2.085q7.682.136,15.364,0c1.722-.045,1.949.68,1.9,2.13s-.045,2.4-1.994,2.357c-3.535-.181-7.07.045-10.65-.091-1.858-.091-2.311.634-2.311,2.357,0,6.028-.045,6.028,6.028,6.028,2.266,0,4.532.045,6.8,0,1.813-.045,1.36,1.224,1.36,2.175s.408,2.221-1.36,2.175c-3.49-.045-6.934.091-10.424-.045-1.949-.091-2.493.68-2.4,2.493.136,2.175-.045,4.4.045,6.571.091,1.994-1.36,1.36-2.311,1.4-1,.045-2.266.317-2.039-1.45v-.227C191.013,127.887,191.013,123.854,191.013,119.865Z" transform="translate(-80.265 -12.409)"/><path class="a" d="M375.964,122.015c0-3.036-.136-6.028.045-9.019.136-2.175-.68-2.765-2.674-2.583-1.586.136-3.172-.091-4.759.045-1.677.136-1.677-.816-1.541-1.949.091-1-.544-2.311,1.45-2.311q9.721.136,19.443,0c1.677-.045,1.632.861,1.541,1.994-.091,1,.544,2.4-1.45,2.311-1.586-.091-3.172.136-4.759-.045-2.085-.227-2.765.544-2.719,2.629.091,6.254-.045,12.508.091,18.763.045,1.994-.861,1.949-2.266,1.949s-2.629.181-2.493-1.994C376.145,128.5,376.009,125.233,375.964,122.015Z" transform="translate(-176.523 -12.519)"/><path class="a" d="M469.678,134.1v7.931c0,.861.045,1.858-1.224,1.541-.952-.272-2.629,1.088-2.719-1.133-.091-1.949-1.042-1.224-1.858-.544a8.062,8.062,0,0,1-8.294,1.269c-3.49-1.224-4.713-4.305-4.895-7.7-.136-3.082.045-6.209-.091-9.291-.045-1.677.77-1.813,2.085-1.813,1.224.045,2.175,0,2.175,1.722,0,3.172-.363,6.345.227,9.472.634,3.308,2.765,4.759,6.073,4.169,2.447-.453,4.034-2.4,4.124-5.212.045-2.855.091-5.756,0-8.611-.091-1.9,1.178-1.5,2.221-1.541,1.088-.045,2.266-.317,2.175,1.586C469.587,128.658,469.678,131.378,469.678,134.1Z" transform="translate(-222.243 -22.425)"/><path class="a" d="M302.234,123.39a9.489,9.489,0,0,1,5.212.816c1,.453,1.813,1.088,1.133,2.266-.544.906-1.133,2.039-2.629,1.042-1.677-1.133-3.626-.861-5.484-.634a2.17,2.17,0,0,0-2.13,2.039c-.045,1.224.861,1.632,1.767,2.039,1.586.68,3.263.317,4.895.77,4.215,1.133,5.121,2.175,5.076,6.164-.045,2.9-1.632,4.713-5.257,5.393-3.49.634-6.934.363-9.971-1.722-.77-.5-1.5-1.088-.68-2.175.68-.906,1.224-1.994,2.674-1.088a10.543,10.543,0,0,0,4.94,1.541,4.672,4.672,0,0,0,3.444-.861c1.45-1.178,1.269-2.855-.453-3.535a8.708,8.708,0,0,0-2.674-.453,12.988,12.988,0,0,1-5.167-1.45,4.616,4.616,0,0,1-2.855-4.26,5.06,5.06,0,0,1,2.9-4.759A8.1,8.1,0,0,1,302.234,123.39Z" transform="translate(-136.512 -21.87)"/><path class="a" d="M508.487,143.332a12.032,12.032,0,0,1-7.07-1.767c-1-.634-1.722-1.269-.816-2.538.725-1.042,1.4-1.767,2.719-.816a9.591,9.591,0,0,0,4.713,1.45,5.155,5.155,0,0,0,3.082-.544,2.3,2.3,0,0,0,1.36-2.175c-.045-1.088-.816-1.586-1.768-1.768-1.677-.317-3.444-.453-5.121-.861-3.4-.77-5.167-2.674-5.167-5.348.045-2.855,1.858-4.94,5.257-5.574,2.765-.5,5.574-.589,8.158.725.861.408,1.9.952,1,2.221-.635.861-1.088,2.085-2.629,1.042-1.722-1.224-3.762-.816-5.71-.634a2.057,2.057,0,0,0-1.858,1.994,1.994,1.994,0,0,0,1.5,2.039,7.278,7.278,0,0,0,2.4.453,14.337,14.337,0,0,1,4.4.906c1.949.725,3.4,1.858,3.444,4.169.091,3.354-.725,5.121-3.127,6.164A8.9,8.9,0,0,1,508.487,143.332Z" transform="translate(-249.359 -21.736)"/><path class="a" d="M336.618,127c0-1-.091-1.949,0-2.946.136-1.768-.136-3.036-2.357-2.765-1.45.181-1.178-.952-1.269-1.813-.045-1,.136-1.722,1.314-1.541,2.357.363,2.4-1.133,2.221-2.719-.181-1.632.045-2.674,2.13-2.719,1.858-.045,2.311.5,2.266,2.266-.091,3.535-.317,3.172,3.127,3.172,1.224,0,2.447-.227,2.311,1.768-.091,1.314-.453,1.768-1.722,1.677-.68-.045-1.36,0-2.039,0-1.224-.045-1.768.453-1.722,1.722.091,2.4.045,4.849,0,7.251-.045,2.085,1.042,3.082,3.036,2.991,1.042-.045,1.9-.091,2.447,1.042.906,1.858.5,2.629-1.586,2.765-5.892.408-8.248-1.813-8.294-7.659A15.606,15.606,0,0,0,336.618,127Z" transform="translate(-157.935 -15.962)"/><path class="a" d="M542.822,126.85c0-.906-.045-1.813,0-2.719.181-1.858-.136-3.127-2.447-2.855-1.314.136-1.042-1-1.088-1.768s0-1.722,1.088-1.541c2.583.363,2.629-1.178,2.447-2.991-.136-1.45.045-2.357,1.9-2.493,1.813-.091,2.583.227,2.493,2.266-.136,3.58-.317,3.172,3.308,3.172,1.224,0,2.221-.045,2.085,1.722-.091,1.224-.363,1.813-1.677,1.677-.68-.045-1.36.045-2.039,0-1.4-.091-1.858.589-1.813,1.9.091,2.266,0,4.532.045,6.8.045,2.447.952,3.49,3.263,3.263,2.175-.227,2.311,1.269,2.629,2.583.317,1.133-.816,1.178-1.45,1.224-5.3.5-8.792-.816-8.838-7.523C542.822,128.663,542.822,127.757,542.822,126.85Z" transform="translate(-270.732 -15.949)"/><path class="a" d="M258.714,133.359c0-2.583-.045-5.121,0-7.7,0-.68-.408-1.768.725-1.813,1.088-.045,2.583-.77,3.263.589.634,1.314,1,1.088,1.9.317a7.083,7.083,0,0,1,7.8-.68c.906.5,1.36,1.088.634,1.9-.634.77-.408,2.538-2.311,2.039-5.212-1.4-7.569.453-7.569,5.8,0,2.583-.091,5.121.045,7.7.091,1.994-1.269,1.4-2.266,1.45-1.042.045-2.311.453-2.266-1.5C258.85,138.8,258.714,136.078,258.714,133.359Z" transform="translate(-117.284 -21.823)"/><path class="a" d="M413.43,133.308v-7.7c0-.68-.363-1.813.725-1.813,1.042-.045,2.493-.861,3.172.725.453,1.042.861,1.088,1.586.272,1.677-1.9,3.943-1.768,6.073-1.541,2.81.272,3.308,1.45,1.994,3.852-.453.861-.861,1.133-1.9.77-4.668-1.45-7.433.634-7.433,5.574,0,2.583-.136,5.121.045,7.7.136,1.949-1.042,1.722-2.266,1.722s-2.175.091-2.039-1.722C413.566,138.611,413.43,135.982,413.43,133.308Z" transform="translate(-201.889 -21.772)"/><path class="a" d="M240.137,133.68c0-2.629.091-5.3-.045-7.931-.091-1.813.906-1.9,2.266-1.858,1.224,0,2.13,0,2.085,1.722q-.2,8.022,0,16.043c.045,2.085-1.224,1.541-2.357,1.632-1.314.091-2.085-.091-1.994-1.768C240.227,138.982,240.137,136.354,240.137,133.68Z" transform="translate(-107.136 -22.189)"/><path class="a" d="M200.18,176.423c-.68,2.039-1.314,3.943-1.949,5.8-.272.77-.363,1.632-1.586,1.541-1.088-.091-1.088-.906-1.314-1.586-.634-1.9-1.224-3.762-2.039-6.209-1.088,2.357-1.042,4.305-1.4,6.209-.136.816-.136,1.767-1.4,1.541s-.589-1.178-.5-1.768c.453-2.81,1-5.62,1.541-8.43.136-.634-.227-1.586,1-1.677s1.45.68,1.722,1.586c.68,2.221,1.45,4.4,2.357,6.979,1.4-2.447,1.722-4.8,2.629-6.979.317-.725.272-1.632,1.5-1.632,1.314,0,1.133.952,1.269,1.677.544,2.946,1.088,5.892,1.586,8.883.091.589.272,1.224-.68,1.314-.816.091-1.042-.453-1.133-1.088-.227-1.314-.453-2.674-.634-3.988A2.958,2.958,0,0,0,200.18,176.423Z" transform="translate(-79.598 -48.39)"/><path class="a" d="M281.753,189.224a3.813,3.813,0,0,1,2.674.091,4.049,4.049,0,0,0,3.082-.227,1.4,1.4,0,0,0,.77-1.722c-.363-.952-1-.227-1.5-.091-1.858.5-3.49.272-4.623-1.4-1.178-1.768-1.5-3.58-.136-5.438a3.992,3.992,0,0,1,4.8-1.45c.363.091.816.453,1.042.363,3.263-1.677,2.4.906,2.447,2.4a43.551,43.551,0,0,1-.045,5.438,3.718,3.718,0,0,1-3.082,3.716C285.333,191.264,283.158,191.581,281.753,189.224Zm6.707-6.028a2.71,2.71,0,0,0-2.538-2.9,2.641,2.641,0,0,0-2.765,2.855,2.455,2.455,0,0,0,2.629,2.719C287.418,185.961,288.415,184.964,288.46,183.2Z" transform="translate(-129.582 -52.173)"/><path class="a" d="M336.558,189.034c.816-.5,1.541-.091,2.311.227a3.708,3.708,0,0,0,3.444-.227,1.512,1.512,0,0,0,.77-1.722c-.408-.861-1-.091-1.5.091a4.052,4.052,0,0,1-4.895-1.858,4.43,4.43,0,0,1,.136-5.121c1.178-1.722,2.9-1.949,4.8-1.314.363.136.816.453,1.042.363,3.263-1.813,2.13,1,2.221,2.221.136,1.632,0,3.308.045,4.985.045,1.994-.544,3.626-2.538,4.305A4.9,4.9,0,0,1,336.558,189.034Zm6.707-5.8a2.66,2.66,0,0,0-2.629-2.855c-1.722-.091-2.629,1.088-2.855,2.629A2.855,2.855,0,0,0,340.546,186,2.682,2.682,0,0,0,343.265,183.233Z" transform="translate(-159.551 -52.21)"/><path class="a" d="M403.879,177.777a18.162,18.162,0,0,1,.045-2.719c.136-1.042-.725-2.629.634-2.991a5.16,5.16,0,0,1,4.759.68,2.747,2.747,0,0,1,.589,3.49,1.474,1.474,0,0,0,.453,1.949,2.972,2.972,0,0,1,.544,3.58,3.291,3.291,0,0,1-3.036,1.994h-.227c-3.671.227-3.671.227-3.671-3.444A23.751,23.751,0,0,1,403.879,177.777Zm3.4,4.169c1.088-.136,2.13-.363,1.994-1.813-.136-1.5-1.36-1.722-2.493-1.768-1.45-.045-1,1.178-1.042,1.994C405.692,181.448,406.009,182.173,407.278,181.947Zm-1.5-6.662c-.045.68.136,1.36,1.178,1.269a1.4,1.4,0,0,0,1.5-1.36c.045-1-.635-1.5-1.541-1.586C405.783,173.562,405.783,174.333,405.783,175.284Z" transform="translate(-196.644 -48.385)"/><path class="a" d="M482.139,178.125c2.175-1.269,2.765-4.034,5.529-3.308-.045.227-.045.408-.136.5-.861,1.314-3.036,2.221-2.719,3.762.272,1.314,1.949,2.357,3.036,3.535.136.136.227.363.453.634-3.172.816-3.716-2.629-6.164-3.626v2.765c0,.634-.227,1-.906,1-.725,0-1.133-.227-1.133-1.042V172.188c0-.725.227-1.088,1.042-1.088s1,.408,1,1.133C482.094,174.091,482.139,175.9,482.139,178.125Z" transform="translate(-238.376 -48.008)"/><path class="a" d="M317.77,183.334v1.586c-.045,1.45.589,3.626-2.311,2.266-.408-.181-1.133.363-1.722.453a3.626,3.626,0,0,1-4.26-1.768,5.181,5.181,0,0,1,.272-5.574c1.042-1.5,2.583-1.722,4.26-1.314a6.419,6.419,0,0,1,.816.363c.952.408,1.768-1,2.719-.272a.675.675,0,0,1,.181.408c.045,1.269.045,2.583.045,3.852Zm-1.722-.091a2.844,2.844,0,0,0-2.81-2.9,2.712,2.712,0,0,0-2.629,2.855,2.786,2.786,0,0,0,2.674,2.991A2.907,2.907,0,0,0,316.047,183.244Z" transform="translate(-144.706 -52.22)"/><path class="a" d="M436.173,183.411c-.136,1.178.634,3.036-.363,3.852-.816.68-2.583-.091-3.988.363a3.24,3.24,0,0,1-3.943-1.9,5.353,5.353,0,0,1,.272-5.393,3.555,3.555,0,0,1,4.215-1.36c.861.227,1.5.68,2.493,0,.68-.453,1.45-.091,1.36,1.042C436.128,181.055,436.173,182.142,436.173,183.411Zm-1.768-.181a2.766,2.766,0,0,0-2.765-2.946c-1.722.091-2.493,1.314-2.719,2.855a2.976,2.976,0,0,0,2.719,3.036A2.741,2.741,0,0,0,434.406,183.23Z" transform="translate(-209.495 -52.207)"/><path class="a" d="M363.6,183.143a4.089,4.089,0,0,1,3.036-4.215,4.452,4.452,0,0,1,5.257,2.039c1.088,1.813.589,2.719-1.541,2.765-1.133,0-2.266-.045-3.4,0-.544,0-1.36-.272-1.5.589a1.545,1.545,0,0,0,1.042,1.586,4.033,4.033,0,0,0,3.082,0c.544-.181,1.314-.5,1.586.227s-.5,1-1.042,1.224C366.725,188.853,363.507,186.768,363.6,183.143Zm4.169-.544c.77-.725,2.447.317,2.629-.952.136-1.088-1.269-1.5-2.357-1.5s-2.311.453-2.357,1.586C365.682,182.735,367.042,182.191,367.767,182.6Z" transform="translate(-174.672 -52.164)"/><path class="a" d="M520.05,171.967c3.218,0,4.4.77,4.532,2.719.181,2.266-.634,3.49-2.9,3.671-1.722.136-2.266.77-2.039,2.357a2.04,2.04,0,0,1,0,.906c-.227.725.634,2.085-.861,2.085-1.541,0-.861-1.314-.861-2.039-.091-2.311.045-4.668-.045-6.979C517.693,172.647,518.01,171.242,520.05,171.967Zm2.81,3.308c-.045-1.133-.77-1.541-1.768-1.632-.906-.091-1.4.227-1.45,1.224,0,.861,0,1.677,1.224,1.722C521.863,176.59,522.633,176.408,522.86,175.275Z" transform="translate(-258.973 -48.376)"/><path class="a" d="M235.827,183.467c-.045,2.765-1.813,4.4-4.668,4.26a4.371,4.371,0,0,1-4.26-4.623,4.276,4.276,0,0,1,4.532-4.305A4.334,4.334,0,0,1,235.827,183.467Zm-4.577,2.674a2.874,2.874,0,0,0,2.9-3.082,2.748,2.748,0,0,0-2.81-2.719,2.8,2.8,0,0,0-2.629,3.082C228.848,185.1,229.754,186.1,231.25,186.141Z" transform="translate(-99.926 -52.217)"/><path class="a" d="M455.04,183.138c0-.906.045-1.813,0-2.719-.091-1.541.453-2.221,1.949-1.36.725.408,1.133-.181,1.632-.317,2.357-.68,3.943.272,4.124,2.674.136,1.632.045,3.308.045,4.985,0,.589-.045,1.042-.816,1.042-.725,0-1.088-.227-1.088-1.042.045-1.45,0-2.855-.045-4.305a1.772,1.772,0,0,0-1.586-1.9,1.98,1.98,0,0,0-2.039,1.5,13.363,13.363,0,0,0-.408,4.26c0,.589.317,1.45-.816,1.5-1.269.045-.952-.861-1-1.586C455.04,184.951,455.04,184.044,455.04,183.138Z" transform="translate(-224.646 -52.069)"/><path class="a" d="M559.9,180.274c-.77.77-1.5.634-2.4.181a2.757,2.757,0,0,0-3.762,1,2.661,2.661,0,0,0,0,3.354,2.867,2.867,0,0,0,3.807.861c.816-.408,1.722-.725,2.085.227.363,1.042-.816,1.178-1.5,1.45a5.062,5.062,0,0,1-6.436-2.13,4.534,4.534,0,0,1,1.45-5.8A4.875,4.875,0,0,1,559.9,180.274Z" transform="translate(-277.25 -52.015)"/><path class="a" d="M269.716,179.82v2.674c0,.816-.5,1-1.178.952-.725,0-.861-.453-.861-1.042,0-1.269.045-2.583,0-3.852-.045-.861.363-1.813-.725-2.4a.793.793,0,0,1-.181-1.178c1.133-.725.906-1.768.906-2.81,0-.725.408-.861,1.042-.861.589,0,1,.181,1,.861,0,1.088-.363,2.266,1.133,2.855a.674.674,0,0,1,.045,1C268.991,176.965,270.033,178.687,269.716,179.82Z" transform="translate(-121.624 -48.117)"/><path class="a" d="M542.149,177.228v4.985c0,.634-.045,1.178-.952,1.224-.861,0-1-.453-1-1.133v-9.925c0-.634.045-1.178.952-1.178.861,0,1,.408,1,1.133Z" transform="translate(-271.238 -48.062)"/><path class="a" d="M252.945,183.051c0-.589-.045-1.224,0-1.813.136-1.224-.816-3.535,2.085-2.266.136.045.408-.181.589-.272.544-.317,1.269-.725,1.586-.045s-.272,1.133-1.042,1.4c-1.36.453-1.224,1.767-1.269,2.855-.045,1.042,0,2.13,0,3.172,0,.634-.091,1.178-.952,1.224-1,.045-1.042-.589-1.042-1.314C252.945,185,252.945,184,252.945,183.051Z" transform="translate(-114.144 -51.937)"/><path class="a" d="M242.211,106.184c1.632-.045,2.583.589,2.538,2.221a2.49,2.49,0,0,1-2.765,2.629c-1.5,0-2.039-.906-2.085-2.357C239.9,106.954,240.534,106.048,242.211,106.184Z" transform="translate(-107.036 -12.505)"/></g></svg>