<?xml version="1.0" encoding="utf-8"?>
<!-- Generator: Adobe Illustrator 24.1.1, SVG Export Plug-In . SVG Version: 6.00 Build 0)  -->
<svg version="1.1" id="Layer_1" xmlns="http://www.w3.org/2000/svg" xmlns:xlink="http://www.w3.org/1999/xlink" x="0px" y="0px"
	 viewBox="0 0 147.7 127.6" style="enable-background:new 0 0 147.7 127.6;" xml:space="preserve">
	 <defs><style>*{fill:#e99f1e;}</style></defs>
<g>
	<path d="M15.3,63.4c0.6,0.2,1.2,0.3,1.9,0.2c0.6,0,1.1,0,1.6-0.2c1.4-3.1,1.9-9.9,1.7-16.1c0.5,0.2,1,0.4,1.5,0.5
		c1.2,0.3,2.4,0.4,3.6,0.4h2.8l5.7,0c7.7,0.1,15.7,0.1,23.7,0.1c16,0,32-0.1,45.9-0.4l5.1-0.1c0.6-0.1,1.2-0.1,1.9,0
		c0.5,0.1,1,0.3,1.4,0.5c0.9,0.5,1.6,1.2,2.1,2.1c0.2,0.4,0.4,0.9,0.5,1.4c0,0.3,0.1,0.5,0.1,0.8v1.1c0.2,5.5,0.5,10.3,0.7,14.2
		c-7,0.3-13,0.6-17.4,1c-0.4,0-0.8,0.9-0.7,1.9s0.3,1.6,0.7,1.6c6.2,0.6,15.4,1,26.2,1.3c0.9,0,0.8,0,1,0.1c0.3,0.1,0.5,0.4,0.5,0.7
		v1.5l-0.1,8.8v4.5v2.6l0,0c0,0,0,0,0,0.1c0,0,0,0.1,0,0.1c-0.1,0.1-0.1,0.2-0.2,0.2c0,0-0.1,0-0.1,0h-5c-6.2,0-12.4,0-18.3,0.1
		h-2.2h-1.1c-0.4,0-0.7,0-1,0c-1.1,0.1-2.2,0-3.2-0.3c-2-0.7-3.8-2-5-3.7c-2.2-3.3-2.2-7.5-0.1-10.9c1.7-2.7,4.5-4.6,7.7-5.1
		c0.4,0,0.7-0.9,0.6-1.9c0-1-0.4-1.5-0.8-1.5c-2-0.1-4,0.3-5.8,1.1c-2.3,1-4.2,2.5-5.7,4.5c-0.8,1.1-1.5,2.3-2.1,3.6
		c-0.5,1.4-0.9,2.8-1,4.3c-0.3,3.2,0.5,6.5,2.2,9.2c2.8,4.6,7.8,7.5,13.2,7.7c0.5,0,0.9,0,1.3,0h1.1h2.2c4.4,0,9,0.1,13.5,0.1
		c-0.4,3-0.8,7-1,11.5l-0.1,2.1v1c0,0.2-0.1,0.4-0.1,0.6c-0.2,0.8-0.6,1.6-1.2,2.2c-0.6,0.6-1.4,1.1-2.2,1.3
		c-0.2,0.1-0.4,0.1-0.6,0.1c-0.2,0-0.3,0-0.8,0H107c-12.5,0-25.1,0.6-31.3,1.8c-0.2,0-0.4,0.9-0.4,1.8c0,1,0.2,1.6,0.4,1.6
		c6.2,1.2,18.8,1.8,31.3,1.8h2.3c0.3,0,1,0,1.5-0.1c0.6-0.1,1.1-0.2,1.7-0.3c2.2-0.6,4.1-1.8,5.6-3.5c1.7-2,2.7-4.6,2.6-7.3
		c0-0.4,0-0.7,0-1.1l-0.1-2.1c-0.2-4.5-0.6-8.5-1-11.5h5.7h0.5c0.4,0,0.7-0.1,1.1-0.2c2.1-0.5,3.9-1.9,5-3.8c0.3-0.6,0.6-1.3,0.7-2
		c0.1-0.3,0.1-0.7,0.1-1.1v-0.5v-2.6v-4.5l-0.1-8.8v-1.1v-0.3v-0.5c0-0.3-0.1-0.6-0.1-0.9c-0.3-1.2-0.9-2.4-1.7-3.3
		c-0.8-0.9-1.9-1.6-3.1-2c-1-0.3-2-0.4-3.1-0.4l-5.2,0.2c0.3-3.8,0.5-8.6,0.7-14.1v-1.1c0-0.5,0-1,0-1.4c-0.2-1-0.5-1.9-0.9-2.8
		c-1.3-3-4-5.3-7.2-6.1c-1-0.2-2.1-0.4-3.1-0.4h-0.4c0-0.3,0.1-0.7,0.2-1c0.1-0.7,0.2-1.5,0.3-2.3l0.1-1.3v-0.7c0-0.3,0-0.6,0-0.8
		c0-2.9-1.3-5.6-3.6-7.4c-1.2-0.9-2.5-1.6-4-1.9c-0.4,0-0.8-0.1-1.2-0.2c-0.4,0-0.9,0-1.1,0h-1.5c-6.3-0.1-12.5,0.3-18.7,1.4
		c-4.2-4.5-8.8-9.3-13.5-14c-1.4-1.4-3.6-1.4-5,0c0,0,0,0,0,0c-4.8,4.9-9.6,9.8-13.8,14.4c-3.8-0.3-8.7-0.5-14.2-0.8L28.3,27L26,27
		h-1.2c-0.5,0-1,0-1.6,0.1c-2.3,0.3-4.4,1.3-6.1,2.9c-1.7,1.7-2.8,3.9-3.1,6.3c-0.1,1.3-0.1,2.5,0.2,3.8
		C13,47.1,13.3,58.9,15.3,63.4z M97.9,33.2h2c0.1,0,0.2,0,0.4,0c0.5,0.1,0.9,0.3,1.3,0.5c0.8,0.5,1.4,1.4,1.6,2.3
		c0,0.2,0.1,0.3,0.1,0.5v0.7l0.1,1.3c0.1,0.8,0.2,1.6,0.3,2.3c0,0.3,0.1,0.6,0.2,0.9h-0.1c-4-0.1-8.1-0.2-12.4-0.2
		c-2-2.6-4.6-5.6-7.7-9C88.4,33,93.1,33.3,97.9,33.2z M63.3,21.1C71.2,29,79,36.3,85.1,41.4c-8.8-0.1-18-0.1-27.2-0.1
		c-5.5,0-10.9,0-16.3,0C47.5,36.3,55.4,28.9,63.3,21.1L63.3,21.1z M21.3,34c0.7-0.7,1.6-1.2,2.6-1.4c0.3-0.1,0.5-0.1,0.8-0.1h1.2
		l2.3-0.1l4.4-0.2c4-0.2,7.6-0.3,10.7-0.5c-3.4,3.7-6.2,7-8.4,9.7h-0.9l-5.8,0.1h-2.8c-0.7,0.1-1.3,0-2-0.1c-1-0.2-1.9-0.8-2.6-1.7
		c-0.6-0.9-0.9-1.9-0.9-3C20.2,35.7,20.6,34.8,21.3,34z"/>
	<circle cx="98.2" cy="83.3" r="3.8"/>
	<path d="M17.2,106.5c1.2,0.6,2.8,1.3,4.5,2.2c1.8,1,3.5,2.2,4.9,3.6c1.4,1.5,2.7,3.1,3.6,4.9c0.9,1.7,1.5,3.3,2.1,4.5
		c0.6,0.1,1.3,0.2,1.9,0.1c0.5,0,1.1,0,1.6-0.2c0.7-2.1,0.7-4.4,0.2-6.5c-1.5-6.1-6.2-10.8-12.3-12.3c-2.1-0.6-4.4-0.5-6.5,0.2
		c-0.2,0.6-0.2,1.2-0.2,1.8C17,105.4,17.1,106,17.2,106.5z"/>
	<path d="M17.3,91.9c3.2,0.8,6.2,1.8,9.2,3c3.9,1.7,7.4,4.1,10.4,7.1c3,3,5.3,6.6,7,10.5c1.2,3,2.2,6.1,2.9,9.2
		c0,0.2,0.9,0.3,1.9,0.3c1,0,1.6-0.1,1.6-0.3c0.7-3.8,0.4-7.6-0.7-11.3c-1.5-5-4.2-9.6-7.9-13.4c-3.7-3.7-8.3-6.4-13.4-7.9
		c-3.6-1.1-7.5-1.3-11.3-0.6c-0.2,0-0.3,0.9-0.3,1.8C17,91.2,17.1,91.9,17.3,91.9z"/>
	<path d="M52.3,86.6c-5.3-5.2-11.8-9.1-18.9-11.3c-5.2-1.6-10.6-2.1-16-1.5c-0.3,0-0.5,0.9-0.4,1.8c0,1,0.2,1.6,0.4,1.6
		c4.8,0.8,9.5,2.1,14,3.8c5.9,2.4,11.4,6,15.9,10.5c4.5,4.6,8.1,10,10.5,15.9c1.8,4.5,3.1,9.2,3.8,14c0,0.2,0.9,0.4,1.9,0.4
		c1,0,1.6-0.2,1.6-0.4c0.6-5.4,0.1-10.8-1.6-16C61.4,98.3,57.5,91.9,52.3,86.6z"/>
	<path d="M124.1,9.1c-3.5,0.1-8.9,5.5-9,9c0.4,0.5,0.8,1,1.3,1.4c0.4,0.4,0.8,0.8,1.2,1.1c3.5-0.1,8.9-5.5,9-9
		c-0.4-0.5-0.8-0.9-1.3-1.4C125,9.8,124.6,9.5,124.1,9.1z"/>
	<path d="M121.8,33.8c0,0.5,0,1.1,0.1,1.6c2.5,2.4,9.9,2.3,12.3,0c0.1-0.6,0.1-1.2,0.1-1.8c0-0.5,0-1.1-0.1-1.6
		c-2.5-2.4-9.9-2.4-12.3,0C121.8,32.6,121.8,33.2,121.8,33.8z"/>
	<path d="M102.5,14.3c0.5,0,1.1,0,1.6-0.1c2.4-2.5,2.3-9.9,0-12.3c-0.6-0.1-1.2-0.1-1.8-0.1c-0.5,0-1.1,0-1.6,0.1
		c-2.5,2.5-2.5,9.9-0.1,12.3C101.3,14.3,101.9,14.3,102.5,14.3z"/>
</g>
</svg>
