<?xml version="1.0" encoding="iso-8859-1"?>
<!-- Generator: Adobe Illustrator 19.0.0, SVG Export Plug-In . SVG Version: 6.00 Build 0)  -->
<svg version="1.1" id="Capa_1" xmlns="http://www.w3.org/2000/svg" xmlns:xlink="http://www.w3.org/1999/xlink" x="0px" y="0px"
	 viewBox="0 0 511.999 511.999" style="enable-background:new 0 0 511.999 511.999;" xml:space="preserve">
<g>
	<g>
		<path d="M511.636,194.242c-1.196-7.469-5.231-14.025-11.358-18.461L272.596,10.989c-9.93-7.189-23.278-7.189-33.211,0
			l-128.375,92.916c-3.455,2.501-4.23,7.33-1.728,10.786c2.501,3.455,7.33,4.231,10.786,1.728l128.374-92.916
			c4.516-3.267,10.582-3.267,15.095,0l227.682,164.792c2.786,2.016,4.619,4.996,5.164,8.391s-0.268,6.799-2.284,9.586
			c-2.414,3.335-6.318,5.326-10.445,5.326c-2.716,0-5.319-0.845-7.531-2.446L260.519,53.1c-2.701-1.956-6.354-1.956-9.056,0
			L35.858,209.151c-2.785,2.016-6.189,2.827-9.584,2.282c-3.395-0.544-6.376-2.378-8.392-5.163
			c-4.162-5.751-2.869-13.815,2.88-17.977l80.26-58.091c3.455-2.501,4.23-7.33,1.728-10.786c-2.5-3.454-7.329-4.23-10.786-1.728
			l-80.26,58.091c-12.65,9.156-15.492,26.898-6.337,39.548c4.436,6.128,10.992,10.161,18.461,11.358
			c1.518,0.243,3.034,0.364,4.542,0.364c5.913,0,11.662-1.851,16.544-5.385L255.991,68.891l211.075,152.774
			c4.864,3.52,10.6,5.38,16.588,5.38c9.067,0,17.65-4.38,22.958-11.717C511.05,209.2,512.833,201.712,511.636,194.242z"/>
	</g>
</g>
<g>
	<g>
		<path d="M455.257,410.004c-4.267,0-7.724,3.458-7.724,7.724v57.309c0,8.776-7.141,15.917-15.917,15.917H80.368
			c-8.776,0-15.917-7.141-15.917-15.917V247.94c0-4.266-3.458-7.724-7.724-7.724s-7.724,3.458-7.724,7.724v227.097
			c0,17.294,14.071,31.365,31.365,31.365h351.248c17.295,0,31.365-14.071,31.365-31.365v-57.309
			C462.981,413.463,459.524,410.004,455.257,410.004z"/>
	</g>
</g>
<g>
	<g>
		<path d="M455.257,240.217c-4.267,0-7.724,3.458-7.724,7.724v144.04c0,4.266,3.457,7.724,7.724,7.724s7.724-3.458,7.724-7.724
			V247.94C462.981,243.675,459.524,240.217,455.257,240.217z"/>
	</g>
</g>
<g>
	<g>
		<path d="M207.335,241.939c-24.701,0-44.796,20.095-44.796,44.796s20.095,44.796,44.796,44.796s44.796-20.095,44.796-44.796
			S232.036,241.939,207.335,241.939z M207.335,316.083c-16.183,0-29.349-13.166-29.349-29.349c0-16.183,13.166-29.349,29.349-29.349
			s29.349,13.166,29.349,29.349C236.683,302.918,223.518,316.083,207.335,316.083z"/>
	</g>
</g>
<g>
	<g>
		<path d="M304.649,339.254c-24.701,0-44.796,20.095-44.796,44.796c0,24.701,20.095,44.796,44.796,44.796
			c24.701,0,44.796-20.095,44.796-44.796S329.35,339.254,304.649,339.254z M304.649,413.399c-16.183,0-29.349-13.166-29.349-29.349
			c0-16.183,13.166-29.349,29.349-29.349c16.183,0,29.349,13.166,29.349,29.349S320.832,413.399,304.649,413.399z"/>
	</g>
</g>
<g>
	<g>
		<path d="M322.47,268.915c-3.017-3.016-7.907-3.016-10.925,0l-122.03,122.031c-3.016,3.016-3.016,7.907,0,10.923
			c1.508,1.508,3.485,2.263,5.461,2.263c1.976,0,3.954-0.754,5.461-2.263L322.47,279.838
			C325.486,276.822,325.486,271.931,322.47,268.915z"/>
	</g>
</g>
<g>
	<g>
		<path d="M440.422,21.254h-74.146c-4.267,0-7.724,3.458-7.724,7.724v27.805c0,4.265,3.457,7.723,7.724,7.723S374,61.047,374,56.781
			v-20.08h58.698v75.69c0,4.266,3.457,7.724,7.724,7.724s7.724-3.458,7.724-7.724V28.977
			C448.146,24.712,444.689,21.254,440.422,21.254z"/>
	</g>
	</g>
</svg>
