<?xml version="1.0" encoding="utf-8"?>
<!-- Generator: Adobe Illustrator 24.1.1, SVG Export Plug-In . SVG Version: 6.00 Build 0)  -->
<svg version="1.1" id="Capa_1" xmlns="http://www.w3.org/2000/svg" xmlns:xlink="http://www.w3.org/1999/xlink" x="0px" y="0px"
	 viewBox="0 0 653 600" style="enable-background:new 0 0 653 600;" xml:space="preserve">
<style type="text/css">
	.st0{fill:#E99F1E;}
</style>
<g>
	<g>
		<g>
			<path class="st0" d="M612.69,221.7c-1.34-8.38-5.87-15.74-12.75-20.72L344.44,16.05c-11.14-8.07-26.12-8.07-37.27,0
				L163.11,120.32c-3.88,2.81-4.75,8.23-1.94,12.1c2.81,3.88,8.23,4.75,12.1,1.94L317.34,30.09c5.07-3.67,11.88-3.67,16.94,0
				l255.5,184.93c3.13,2.26,5.18,5.61,5.79,9.42c0.61,3.81-0.3,7.63-2.56,10.76c-2.71,3.74-7.09,5.98-11.72,5.98
				c-3.05,0-5.97-0.95-8.45-2.74L330.89,63.31c-3.03-2.2-7.13-2.2-10.16,0L78.78,238.43c-3.13,2.26-6.95,3.17-10.76,2.56
				c-3.81-0.61-7.16-2.67-9.42-5.79c-4.67-6.45-3.22-15.5,3.23-20.17l90.07-65.19c3.88-2.81,4.75-8.23,1.94-12.1
				c-2.81-3.88-8.22-4.75-12.1-1.94l-90.07,65.19c-14.2,10.27-17.39,30.18-7.11,44.38c4.98,6.88,12.34,11.4,20.72,12.75
				c1.7,0.27,3.4,0.41,5.1,0.41c6.64,0,13.09-2.08,18.57-6.04L325.81,81.03l236.87,171.44c5.46,3.95,11.9,6.04,18.61,6.04
				c10.17,0,19.81-4.92,25.76-13.15C612.04,238.48,614.04,230.08,612.69,221.7z"/>
		</g>
	</g>
	<g>
		<g>
			<path class="st0" d="M549.43,463.82c-4.79,0-8.67,3.88-8.67,8.67v64.31c0,9.85-8.01,17.86-17.86,17.86H128.73
				c-9.85,0-17.86-8.01-17.86-17.86V281.96c0-4.79-3.88-8.67-8.67-8.67s-8.67,3.88-8.67,8.67V536.8c0,19.41,15.79,35.2,35.2,35.2
				H522.9c19.41,0,35.2-15.79,35.2-35.2v-64.31C558.09,467.7,554.21,463.82,549.43,463.82z"/>
		</g>
	</g>
	<g>
		<g>
			<path class="st0" d="M549.43,273.29c-4.79,0-8.67,3.88-8.67,8.67V443.6c0,4.79,3.88,8.67,8.67,8.67s8.67-3.88,8.67-8.67V281.96
				C558.09,277.17,554.21,273.29,549.43,273.29z"/>
		</g>
	</g>
	<g>
		<g>
			<path class="st0" d="M271.21,275.22c-27.72,0-50.27,22.55-50.27,50.27s22.55,50.27,50.27,50.27c27.72,0,50.27-22.55,50.27-50.27
				S298.93,275.22,271.21,275.22z M271.21,358.43c-18.16,0-32.94-14.77-32.94-32.94c0-18.16,14.77-32.94,32.94-32.94
				s32.94,14.77,32.94,32.94C304.14,343.65,289.37,358.43,271.21,358.43z"/>
		</g>
	</g>
	<g>
		<g>
			<path class="st0" d="M380.41,384.43c-27.72,0-50.27,22.55-50.27,50.27s22.55,50.27,50.27,50.27s50.27-22.55,50.27-50.27
				S408.13,384.43,380.41,384.43z M380.41,467.63c-18.16,0-32.94-14.77-32.94-32.94c0-18.16,14.77-32.94,32.94-32.94
				c18.16,0,32.94,14.77,32.94,32.94C413.35,452.86,398.57,467.63,380.41,467.63z"/>
		</g>
	</g>
	<g>
		<g>
			<path class="st0" d="M400.41,305.49c-3.39-3.38-8.87-3.38-12.26,0L251.21,442.44c-3.38,3.38-3.38,8.87,0,12.26
				c1.69,1.69,3.91,2.54,6.13,2.54c2.22,0,4.44-0.85,6.13-2.54l136.94-136.94C403.8,314.37,403.8,308.88,400.41,305.49z"/>
		</g>
	</g>
	<g>
		<g>
			<path class="st0" d="M532.78,27.57h-83.21c-4.79,0-8.67,3.88-8.67,8.67v31.2c0,4.79,3.88,8.67,8.67,8.67
				c4.79,0,8.67-3.88,8.67-8.67V44.9h65.87v84.94c0,4.79,3.88,8.67,8.67,8.67c4.79,0,8.67-3.88,8.67-8.67V36.24
				C541.45,31.45,537.57,27.57,532.78,27.57z"/>
		</g>
	</g>
</g>
</svg>
