<svg xmlns="http://www.w3.org/2000/svg" width="69" height="69" viewBox="0 0 69 69"><defs><style>.a{fill:#e99f1e;}</style></defs><path class="a" d="M112.946,288H71.506l-4.452,8.9h4.027v20.032h42.29V296.9H117.4Zm-1.376,2.226,2.226,4.452H96.253l-2.226-4.452Zm-38.689,0H90.425L88.2,294.677H70.656Zm38.264,24.484H93.339v-7.79H91.113v7.79H73.307V296.9H89.575l1.538-3.076v9.754h2.226v-9.754l1.538,3.076h16.269Zm0,0" transform="translate(-57.726 -247.935)"/><path class="a" d="M128,416h6.677v2.226H128Zm0,0" transform="translate(-110.194 -358.129)"/><path class="a" d="M128,448h6.677v2.226H128Zm0,0" transform="translate(-110.194 -385.677)"/><path class="a" d="M192,448h2.226v2.226H192Zm0,0" transform="translate(-165.29 -385.677)"/><path class="a" d="M191.662,27.812l5.14-1.31,5.14,1.309.4-5.519,2.73-4.664-4.829-2.09L196.8,11.281l-3.445,4.258-4.829,2.09,2.73,4.664Zm3.082-10.449L196.8,14.82l2.058,2.544,3.025,1.31-1.722,2.941L199.915,25l-3.114-.793L193.687,25l-.247-3.384-1.721-2.941Zm0,0" transform="translate(-162.301 -9.712)"/><path class="a" d="M36.785,105.841,38.4,103.08l-2.865-1.241-2.069-2.558L31.4,101.838l-2.865,1.241,1.617,2.761.239,3.293,3.077-.782,3.078.784Zm-2.181-.679-.085,1.159-1.05-.267-1.049.267-.086-1.159-.609-1.041,1.061-.459.683-.843.682.844,1.061.46Zm0,0" transform="translate(-24.565 -85.47)"/><path class="a" d="M404.785,105.841l1.617-2.761-2.865-1.241-2.069-2.558-2.069,2.557-2.865,1.241,1.617,2.761.239,3.293,3.077-.782,3.078.784Zm-2.181-.679-.085,1.159-1.05-.267-1.049.267-.085-1.159-.609-1.041,1.061-.459.682-.843.682.844,1.061.46Zm0,0" transform="translate(-341.372 -85.47)"/><path class="a" d="M94.5,146.916a24.68,24.68,0,0,1,5.593,5.128l4.408,5.508-.912-7.292a14.294,14.294,0,0,0-5.579-9.613l-1.066-.8L93.68,146.37Zm3.208-3.617a12.079,12.079,0,0,1,3.6,6.715,26.948,26.948,0,0,0-4.759-4.39Zm0,0" transform="translate(-80.648 -120.393)"/><path class="a" d="M325.462,150.253l-.912,7.292,4.408-5.509a24.7,24.7,0,0,1,5.593-5.128l.817-.546-3.262-6.523-1.066.8A14.29,14.29,0,0,0,325.462,150.253Zm7.044-4.635a26.868,26.868,0,0,0-4.759,4.39,12.086,12.086,0,0,1,3.6-6.715Zm0,0" transform="translate(-279.401 -120.386)"/><path class="a" d="M280,143.624h2.226v-4.663a22.932,22.932,0,0,1,5.307-14.657l-1.711-1.425A25.17,25.17,0,0,0,280,138.961Zm0,0" transform="translate(-241.048 -105.785)"/><path class="a" d="M336,96h2.226v2.226H336Zm0,0" transform="translate(-289.258 -82.645)"/><path class="a" d="M360,64h2.226v2.226H360Zm0,0" transform="translate(-309.919 -55.097)"/><path class="a" d="M167.162,143.623h2.226V138.96a25.173,25.173,0,0,0-5.822-16.082l-1.711,1.425a22.937,22.937,0,0,1,5.306,14.657Zm0,0" transform="translate(-139.339 -105.785)"/><path class="a" d="M144,96h2.226v2.226H144Zm0,0" transform="translate(-123.968 -82.645)"/><path class="a" d="M120,64h2.226v2.226H120Zm0,0" transform="translate(-103.306 -55.097)"/><path class="a" d="M240,136h2.226v2.226H240Zm0,0" transform="translate(-206.613 -117.081)"/><path class="a" d="M240,168h2.226v14.468H240Zm0,0" transform="translate(-206.613 -144.629)"/><path class="a" d="M464,216h2.226v2.226H464Zm0,0" transform="translate(-399.452 -185.952)"/><path class="a" d="M464,248h2.226v2.226H464Zm0,0" transform="translate(-399.452 -213.5)"/><path class="a" d="M480,232h2.226v2.226H480Zm0,0" transform="translate(-413.226 -199.726)"/><path class="a" d="M448,232h2.226v2.226H448Zm0,0" transform="translate(-385.677 -199.726)"/><path class="a" d="M440,0h2.226V2.226H440Zm0,0" transform="translate(-378.79)"/><path class="a" d="M440,32h2.226v2.226H440Zm0,0" transform="translate(-378.79 -27.548)"/><path class="a" d="M456,16h2.226v2.226H456Zm0,0" transform="translate(-392.564 -13.774)"/><path class="a" d="M424,16h2.226v2.226H424Zm0,0" transform="translate(-365.016 -13.774)"/><path class="a" d="M16,248h2.226v2.226H16Zm0,0" transform="translate(-13.774 -213.5)"/><path class="a" d="M16,280h2.226v2.226H16Zm0,0" transform="translate(-13.774 -241.048)"/><path class="a" d="M32,264h2.226v2.226H32Zm0,0" transform="translate(-27.548 -227.274)"/><path class="a" d="M0,264H2.226v2.226H0Zm0,0" transform="translate(0 -227.274)"/><path class="a" d="M16,0h2.226V2.226H16Zm0,0" transform="translate(-13.774)"/><path class="a" d="M16,32h2.226v2.226H16Zm0,0" transform="translate(-13.774 -27.548)"/><path class="a" d="M32,16h2.226v2.226H32Zm0,0" transform="translate(-27.548 -13.774)"/><path class="a" d="M0,16H2.226v2.226H0Zm0,0" transform="translate(0 -13.774)"/></svg>