<?xml version="1.0" encoding="utf-8"?>
<!-- Generator: Adobe Illustrator 24.1.1, SVG Export Plug-In . SVG Version: 6.00 Build 0)  -->
<svg version="1.1" id="Layer_1" xmlns="http://www.w3.org/2000/svg" xmlns:xlink="http://www.w3.org/1999/xlink" x="0px" y="0px"
	 viewBox="0 0 454.29 361.43" style="enable-background:new 0 0 454.29 361.43;" xml:space="preserve">
<style type="text/css">
	.st0{clip-path:url(#SVGID_2_);}
	.st1{fill:#0F4665;}
</style>
<g>
	<defs>
		<rect id="SVGID_1_" x="85.29" y="51.14" width="213.57" height="190.57"/>
	</defs>
	<clipPath id="SVGID_2_">
		<use xlink:href="#SVGID_1_"  style="overflow:visible;"/>
	</clipPath>
	<g id="Repeat_Grid_26" class="st0">
		<g id="Group_1">
			<circle id="Ellipse_1" class="st1" cx="87.35" cy="53.21" r="2.07"/>
			<circle id="Ellipse_9" class="st1" cx="87.35" cy="102.83" r="2.07"/>
			<circle id="Ellipse_8" class="st1" cx="87.35" cy="78.02" r="2.07"/>
			<circle id="Ellipse_10" class="st1" cx="87.35" cy="127.65" r="2.07"/>
			<circle id="Ellipse_3" class="st1" cx="136.98" cy="53.21" r="2.07"/>
			<circle id="Ellipse_13" class="st1" cx="136.98" cy="102.83" r="2.07"/>
			<circle id="Ellipse_5" class="st1" cx="136.98" cy="78.02" r="2.07"/>
			<circle id="Ellipse_14" class="st1" cx="136.98" cy="127.65" r="2.07"/>
			<circle id="Ellipse_2" class="st1" cx="112.17" cy="53.21" r="2.07"/>
			<circle id="Ellipse_11" class="st1" cx="112.17" cy="102.83" r="2.07"/>
			<circle id="Ellipse_7" class="st1" cx="112.17" cy="78.02" r="2.07"/>
			<circle id="Ellipse_12" class="st1" cx="112.17" cy="127.65" r="2.07"/>
			<circle id="Ellipse_4" class="st1" cx="161.79" cy="53.21" r="2.07"/>
			<circle id="Ellipse_15" class="st1" cx="161.79" cy="102.83" r="2.07"/>
			<circle id="Ellipse_6" class="st1" cx="161.79" cy="78.02" r="2.07"/>
			<circle id="Ellipse_16" class="st1" cx="161.79" cy="127.65" r="2.07"/>
		</g>
		<g id="Group_1-2" transform="translate(99)">
			<circle id="Ellipse_1-2" class="st1" cx="87.35" cy="53.21" r="2.07"/>
			<circle id="Ellipse_9-2" class="st1" cx="87.35" cy="102.83" r="2.07"/>
			<circle id="Ellipse_8-2" class="st1" cx="87.35" cy="78.02" r="2.07"/>
			<circle id="Ellipse_10-2" class="st1" cx="87.35" cy="127.65" r="2.07"/>
			<circle id="Ellipse_3-2" class="st1" cx="136.98" cy="53.21" r="2.07"/>
			<circle id="Ellipse_13-2" class="st1" cx="136.98" cy="102.83" r="2.07"/>
			<circle id="Ellipse_5-2" class="st1" cx="136.98" cy="78.02" r="2.07"/>
			<circle id="Ellipse_14-2" class="st1" cx="136.98" cy="127.65" r="2.07"/>
			<circle id="Ellipse_2-2" class="st1" cx="112.17" cy="53.21" r="2.07"/>
			<circle id="Ellipse_11-2" class="st1" cx="112.17" cy="102.83" r="2.07"/>
			<circle id="Ellipse_7-2" class="st1" cx="112.17" cy="78.02" r="2.07"/>
			<circle id="Ellipse_12-2" class="st1" cx="112.17" cy="127.65" r="2.07"/>
			<circle id="Ellipse_4-2" class="st1" cx="161.79" cy="53.21" r="2.07"/>
			<circle id="Ellipse_15-2" class="st1" cx="161.79" cy="102.83" r="2.07"/>
			<circle id="Ellipse_6-2" class="st1" cx="161.79" cy="78.02" r="2.07"/>
			<circle id="Ellipse_16-2" class="st1" cx="161.79" cy="127.65" r="2.07"/>
		</g>
		<g id="Group_1-3" transform="translate(198)">
			<circle id="Ellipse_1-3" class="st1" cx="87.35" cy="53.21" r="2.07"/>
			<circle id="Ellipse_9-3" class="st1" cx="87.35" cy="102.83" r="2.07"/>
			<circle id="Ellipse_8-3" class="st1" cx="87.35" cy="78.02" r="2.07"/>
			<circle id="Ellipse_10-3" class="st1" cx="87.35" cy="127.65" r="2.07"/>
			<circle id="Ellipse_3-3" class="st1" cx="136.98" cy="53.21" r="2.07"/>
			<circle id="Ellipse_13-3" class="st1" cx="136.98" cy="102.83" r="2.07"/>
			<circle id="Ellipse_5-3" class="st1" cx="136.98" cy="78.02" r="2.07"/>
			<circle id="Ellipse_14-3" class="st1" cx="136.98" cy="127.65" r="2.07"/>
			<circle id="Ellipse_2-3" class="st1" cx="112.17" cy="53.21" r="2.07"/>
			<circle id="Ellipse_11-3" class="st1" cx="112.17" cy="102.83" r="2.07"/>
			<circle id="Ellipse_7-3" class="st1" cx="112.17" cy="78.02" r="2.07"/>
			<circle id="Ellipse_12-3" class="st1" cx="112.17" cy="127.65" r="2.07"/>
			<circle id="Ellipse_4-3" class="st1" cx="161.79" cy="53.21" r="2.07"/>
			<circle id="Ellipse_15-3" class="st1" cx="161.79" cy="102.83" r="2.07"/>
			<circle id="Ellipse_6-3" class="st1" cx="161.79" cy="78.02" r="2.07"/>
			<circle id="Ellipse_16-3" class="st1" cx="161.79" cy="127.65" r="2.07"/>
		</g>
		<g id="Group_1-4" transform="translate(0 99)">
			<circle id="Ellipse_1-4" class="st1" cx="87.35" cy="53.21" r="2.07"/>
			<circle id="Ellipse_9-4" class="st1" cx="87.35" cy="102.83" r="2.07"/>
			<circle id="Ellipse_8-4" class="st1" cx="87.35" cy="78.02" r="2.07"/>
			<circle id="Ellipse_10-4" class="st1" cx="87.35" cy="127.65" r="2.07"/>
			<circle id="Ellipse_3-4" class="st1" cx="136.98" cy="53.21" r="2.07"/>
			<circle id="Ellipse_13-4" class="st1" cx="136.98" cy="102.83" r="2.07"/>
			<circle id="Ellipse_5-4" class="st1" cx="136.98" cy="78.02" r="2.07"/>
			<circle id="Ellipse_14-4" class="st1" cx="136.98" cy="127.65" r="2.07"/>
			<circle id="Ellipse_2-4" class="st1" cx="112.17" cy="53.21" r="2.07"/>
			<circle id="Ellipse_11-4" class="st1" cx="112.17" cy="102.83" r="2.07"/>
			<circle id="Ellipse_7-4" class="st1" cx="112.17" cy="78.02" r="2.07"/>
			<circle id="Ellipse_12-4" class="st1" cx="112.17" cy="127.65" r="2.07"/>
			<circle id="Ellipse_4-4" class="st1" cx="161.79" cy="53.21" r="2.07"/>
			<circle id="Ellipse_15-4" class="st1" cx="161.79" cy="102.83" r="2.07"/>
			<circle id="Ellipse_6-4" class="st1" cx="161.79" cy="78.02" r="2.07"/>
			<circle id="Ellipse_16-4" class="st1" cx="161.79" cy="127.65" r="2.07"/>
		</g>
		<g id="Group_1-5" transform="translate(99 99)">
			<circle id="Ellipse_1-5" class="st1" cx="87.35" cy="53.21" r="2.07"/>
			<circle id="Ellipse_9-5" class="st1" cx="87.35" cy="102.83" r="2.07"/>
			<circle id="Ellipse_8-5" class="st1" cx="87.35" cy="78.02" r="2.07"/>
			<circle id="Ellipse_10-5" class="st1" cx="87.35" cy="127.65" r="2.07"/>
			<circle id="Ellipse_3-5" class="st1" cx="136.98" cy="53.21" r="2.07"/>
			<circle id="Ellipse_13-5" class="st1" cx="136.98" cy="102.83" r="2.07"/>
			<circle id="Ellipse_5-5" class="st1" cx="136.98" cy="78.02" r="2.07"/>
			<circle id="Ellipse_14-5" class="st1" cx="136.98" cy="127.65" r="2.07"/>
			<circle id="Ellipse_2-5" class="st1" cx="112.17" cy="53.21" r="2.07"/>
			<circle id="Ellipse_11-5" class="st1" cx="112.17" cy="102.83" r="2.07"/>
			<circle id="Ellipse_7-5" class="st1" cx="112.17" cy="78.02" r="2.07"/>
			<circle id="Ellipse_12-5" class="st1" cx="112.17" cy="127.65" r="2.07"/>
			<circle id="Ellipse_4-5" class="st1" cx="161.79" cy="53.21" r="2.07"/>
			<circle id="Ellipse_15-5" class="st1" cx="161.79" cy="102.83" r="2.07"/>
			<circle id="Ellipse_6-5" class="st1" cx="161.79" cy="78.02" r="2.07"/>
			<circle id="Ellipse_16-5" class="st1" cx="161.79" cy="127.65" r="2.07"/>
		</g>
		<g id="Group_1-6" transform="translate(198 99)">
			<circle id="Ellipse_1-6" class="st1" cx="87.35" cy="53.21" r="2.07"/>
			<circle id="Ellipse_9-6" class="st1" cx="87.35" cy="102.83" r="2.07"/>
			<circle id="Ellipse_8-6" class="st1" cx="87.35" cy="78.02" r="2.07"/>
			<circle id="Ellipse_10-6" class="st1" cx="87.35" cy="127.65" r="2.07"/>
			<circle id="Ellipse_3-6" class="st1" cx="136.98" cy="53.21" r="2.07"/>
			<circle id="Ellipse_13-6" class="st1" cx="136.98" cy="102.83" r="2.07"/>
			<circle id="Ellipse_5-6" class="st1" cx="136.98" cy="78.02" r="2.07"/>
			<circle id="Ellipse_14-6" class="st1" cx="136.98" cy="127.65" r="2.07"/>
			<circle id="Ellipse_2-6" class="st1" cx="112.17" cy="53.21" r="2.07"/>
			<circle id="Ellipse_11-6" class="st1" cx="112.17" cy="102.83" r="2.07"/>
			<circle id="Ellipse_7-6" class="st1" cx="112.17" cy="78.02" r="2.07"/>
			<circle id="Ellipse_12-6" class="st1" cx="112.17" cy="127.65" r="2.07"/>
			<circle id="Ellipse_4-6" class="st1" cx="161.79" cy="53.21" r="2.07"/>
			<circle id="Ellipse_15-6" class="st1" cx="161.79" cy="102.83" r="2.07"/>
			<circle id="Ellipse_6-6" class="st1" cx="161.79" cy="78.02" r="2.07"/>
			<circle id="Ellipse_16-6" class="st1" cx="161.79" cy="127.65" r="2.07"/>
		</g>
	</g>
</g>
</svg>
