<?xml version="1.0" encoding="utf-8"?>
<!-- Generator: Adobe Illustrator 24.1.1, SVG Export Plug-In . SVG Version: 6.00 Build 0)  -->
<svg version="1.1" id="Layer_1" xmlns="http://www.w3.org/2000/svg" xmlns:xlink="http://www.w3.org/1999/xlink" x="0px" y="0px"
	 viewBox="0 0 906 757" style="enable-background:new 0 0 906 757;" xml:space="preserve">
<style type="text/css">
	.st0{fill:#E99F1E;}
</style>
<path class="st0" d="M766.51,392.45h-19.74c-16.86-48.23-50.05-89.05-93.83-115.39V200.3c0-6.63-5.37-12-12-12
	c-20.01,0-39.69,5.1-57.19,14.82c20.67-81.17-28.37-163.72-109.54-184.39S310.5,47.1,289.83,128.27
	c-3.12,12.23-4.69,24.81-4.69,37.43c-0.03,32.55,10.44,64.25,29.85,90.38c-75.69,23.17-132.55,86.02-148.07,163.64
	c-0.84-0.81-1.64-1.63-2.54-2.41c0.74-15.43-3.97-30.63-13.32-42.93c-14.75-21.26-39.18-33.7-65.05-33.15
	c-6.59,0.69-11.37,6.6-10.68,13.19c0.67,6.39,6.26,11.12,12.68,10.72c17.59,0.2,33.96,9.02,43.81,23.6c3.62,4.75,6.22,10.2,7.63,16
	c-4.6-0.79-9.3-0.83-13.91-0.12c-22.51,3.43-29.88,18.27-29.36,29.97c0.68,14.63,12.14,26.46,26.74,27.61
	c0.69,0.04,1.37,0.06,2.06,0.06c12.95-0.36,24.77-7.46,31.17-18.72c2.46,3.17,4.68,6.52,6.64,10.03c-0.14,3.14-0.2,6.29-0.2,9.46
	c0.1,69.9,33.81,135.48,90.6,176.23c26,19.08,41.24,49.49,40.97,81.74c0,6.63,5.37,12,12,12h109.92c6.63,0,12-5.37,12-12v-41.25
	h65.02V721c0,6.63,5.37,12,12,12H615c6.65-0.06,12.01-5.47,12-12.12c0.37-33.04,16.38-63.95,43.15-83.33
	c35.45-26.11,62.16-62.33,76.63-103.91h19.74c17.66-0.02,31.98-14.33,32-32v-77.19C798.49,406.78,784.18,392.47,766.51,392.45
	L766.51,392.45z M136.72,429.29c-2.01,5.12-6.81,8.62-12.3,8.96c-2.32-0.44-4.06-2.38-4.25-4.73c-0.16-3.59,7.45-4.93,8.98-5.16
	c0.93-0.14,1.86-0.21,2.8-0.21c1.7,0.01,3.39,0.24,5.03,0.69C136.89,428.98,136.81,429.14,136.72,429.29L136.72,429.29z
	 M436.79,38.02c70.6,0.1,127.76,57.41,127.66,128.02c-0.03,25.16-7.49,49.75-21.44,70.69c-3.33,3.88-6.44,7.95-9.32,12.18
	c-12.79,14.84-28.82,26.53-46.85,34.18c-14.84-2.84-29.89-4.44-45-4.8c4.24-1.95,6.95-6.19,6.96-10.85v-16.09
	c26.54-6.59,42.71-33.45,36.12-59.99c-4.42-17.8-18.32-31.7-36.12-36.12v-49.63c8.4,4.38,13.68,13.05,13.71,22.52
	c0,6.63,5.37,12,12,12s12-5.37,12-12l0,0c-0.04-22.79-15.6-42.61-37.71-48.08V63.98c0-6.63-5.37-12-12-12s-12,5.37-12,12v16.1
	c-26.52,6.65-42.64,33.53-35.99,60.06c4.44,17.72,18.27,31.55,35.99,35.99v49.61c-8.34-4.4-13.57-13.03-13.6-22.46
	c0-6.63-5.37-12-12-12s-12,5.37-12,12c0.04,22.74,15.53,42.54,37.58,48.06v16.07c0.01,4.6,2.65,8.78,6.8,10.77
	c-15.61,0.08-31.19,1.47-46.57,4.16c-64.44-28.56-93.53-103.95-64.97-168.39C340.51,67.76,386.28,38,436.79,38.02L436.79,38.02z
	 M462.38,203.28c-0.03,9.42-5.26,18.06-13.58,22.46v-44.91C457.12,185.22,462.35,193.86,462.38,203.28L462.38,203.28z
	 M424.79,150.48c-12.37-6.58-17.06-21.95-10.47-34.32c2.37-4.45,6.02-8.1,10.47-10.47V150.48z M774.51,501.61c0,4.41-3.58,7.99-8,8
	h-28.47c-5.31,0-9.98,3.49-11.5,8.57c-12.11,40.09-36.89,75.18-70.63,100.01c-29.5,21.5-48.52,54.49-52.35,90.79H517.1v-41.25
	c0-6.63-5.37-12-12-12h-89.02c-6.63,0-12,5.37-12,12v41.25h-86.46c-3.12-35.65-21.52-68.2-50.44-89.27
	c-86.54-61.89-106.52-182.21-44.63-268.75c26.66-37.27,65.72-63.82,110.19-74.88c5.81,5.45,12.04,10.43,18.64,14.9
	c-13.51,4.47-26.19,11.15-37.51,19.76c-5.18,4.14-6.02,11.69-1.89,16.87c4.14,5.18,11.69,6.02,16.87,1.89
	c21.15-16.89,61.37-27.37,104.97-27.37s83.81,10.48,104.92,27.35c5.18,4.14,12.73,3.29,16.87-1.89c4.14-5.18,3.29-12.73-1.89-16.87
	l0,0c-10.19-7.8-21.52-13.98-33.6-18.32c10.58-6.89,20.26-15.08,28.8-24.37c1.32-0.95,2.43-2.15,3.27-3.55
	c0-0.04,0.32-0.49,0.72-1.11c3.13-3.7,6.12-7.54,8.86-11.49c16.97-20.64,40.84-34.43,67.2-38.81v70.93c0,4.36,2.36,8.38,6.17,10.49
	c44.01,24.53,76.78,65.18,91.41,113.4c1.51,5.09,6.19,8.57,11.5,8.57h28.47c4.41,0,7.99,3.58,8,8L774.51,501.61z"/>
<path class="st0" d="M651.88,386.11c-6.62,0-12,5.36-12,11.99c0,0,0,0.01,0,0.01c0,8.88-7.2,16.07-16.07,16.07
	c-8.88,0-16.07-7.2-16.07-16.07c0-6.63-5.37-12-12-12s-12,5.37-12,12c-0.02,22.13,17.91,40.09,40.04,40.11
	c22.13,0.02,40.09-17.91,40.11-40.04c0-0.02,0-0.04,0-0.07c0-6.62-5.36-12-11.99-12C651.89,386.11,651.89,386.11,651.88,386.11
	L651.88,386.11z"/>
</svg>
