<svg xmlns="http://www.w3.org/2000/svg" width="73.945" height="80.523" viewBox="0 0 73.945 80.523"><defs><style>.a{opacity:0.8;}.b{fill:#4d4c4c;}</style></defs><g class="a"><path class="b" d="M13.252,6.684a1.291,1.291,0,0,0,1.232-1.342,1.237,1.237,0,1,0-2.465,0A1.291,1.291,0,0,0,13.252,6.684Z" transform="translate(2.794 1.368)"/><path class="b" d="M9.252,6.684a1.291,1.291,0,0,0,1.232-1.342A1.291,1.291,0,0,0,9.252,4,1.291,1.291,0,0,0,8.02,5.342,1.291,1.291,0,0,0,9.252,6.684Z" transform="translate(1.864 1.368)"/><path class="b" d="M5.252,6.684A1.291,1.291,0,0,0,6.485,5.342,1.291,1.291,0,0,0,5.252,4,1.291,1.291,0,0,0,4.02,5.342,1.291,1.291,0,0,0,5.252,6.684Z" transform="translate(0.934 1.368)"/><path class="b" d="M67.783,0H6.162A6.461,6.461,0,0,0,0,6.71v67.1a6.462,6.462,0,0,0,6.162,6.71H67.783a6.462,6.462,0,0,0,6.162-6.71V6.71A6.462,6.462,0,0,0,67.783,0ZM6.162,2.684H67.783a3.872,3.872,0,0,1,3.7,4.026v4.026H2.465V6.71A3.872,3.872,0,0,1,6.162,2.684ZM67.783,77.839H6.162a3.872,3.872,0,0,1-3.7-4.026V13.421H71.48V73.813A3.872,3.872,0,0,1,67.783,77.839Z"/><path class="b" d="M53.232,7.026a1.237,1.237,0,1,0,2.465,0A1.291,1.291,0,0,0,56.93,5.684,1.291,1.291,0,0,0,55.7,4.342a1.237,1.237,0,1,0-2.465,0A1.291,1.291,0,0,0,52,5.684,1.291,1.291,0,0,0,53.232,7.026Z" transform="translate(12.085 1.026)"/><path class="b" d="M47.232,6.684H49.7A1.291,1.291,0,0,0,50.93,5.342,1.291,1.291,0,0,0,49.7,4H47.232A1.291,1.291,0,0,0,46,5.342,1.291,1.291,0,0,0,47.232,6.684Z" transform="translate(10.691 1.368)"/><path class="b" d="M7.465,23.736H41.972a2.581,2.581,0,0,0,2.465-2.684V15.684A2.581,2.581,0,0,0,41.972,13H7.465A2.581,2.581,0,0,0,5,15.684v5.368A2.581,2.581,0,0,0,7.465,23.736Zm0-8.052H41.972v5.368H7.465Z" transform="translate(1.162 4.447)"/><path class="b" d="M44.2,24.342A1.291,1.291,0,0,0,42.972,23H7.232a1.347,1.347,0,0,0,0,2.684h35.74A1.291,1.291,0,0,0,44.2,24.342Z" transform="translate(1.394 7.867)"/><path class="b" d="M40.508,28.342A1.291,1.291,0,0,0,39.275,27H7.232a1.347,1.347,0,0,0,0,2.684H39.275A1.291,1.291,0,0,0,40.508,28.342Z" transform="translate(1.394 9.235)"/><path class="b" d="M38.043,32.342A1.291,1.291,0,0,0,36.81,31H7.232a1.347,1.347,0,0,0,0,2.684H36.81A1.291,1.291,0,0,0,38.043,32.342Z" transform="translate(1.394 10.604)"/><path class="b" d="M7.232,35a1.347,1.347,0,0,0,0,2.684H34.346a1.347,1.347,0,0,0,0-2.684Z" transform="translate(1.394 11.972)"/><path class="b" d="M64.156,49.235H52.873c18.412-37.875,11.263-23.167,13.174-27.1A5.622,5.622,0,0,0,64,14.878l-2.183-1.255a4.736,4.736,0,0,0-6.655,2.233C35.6,56.1,39.744,47.557,38.928,49.235H7.465A2.581,2.581,0,0,0,5,51.919v16.1a2.581,2.581,0,0,0,2.465,2.684H64.156a2.581,2.581,0,0,0,2.465-2.684v-16.1A2.581,2.581,0,0,0,64.156,49.235ZM52.72,26.6,54.9,27.857,43.321,51.675a10.7,10.7,0,0,0-2.485-.624Zm2.307-4.744,6.532,3.767L60.406,28,53.874,24.23ZM40.033,53.626a8.75,8.75,0,0,1,3.272.954,9.6,9.6,0,0,1,2.561,2.408l-6.778,6.258Zm7.338,1.192A11.944,11.944,0,0,0,45.5,52.931L57.083,29.113l2.179,1.255C57.624,33.714,49,51.471,47.37,54.818ZM60.664,16l2.179,1.256a2.807,2.807,0,0,1,1.025,3.624l-1.154,2.373-6.532-3.767,1.152-2.373A2.368,2.368,0,0,1,60.664,16Zm3.491,52.027H7.465v-16.1H37.723c-.458,4.657.721-7.353-1.085,11.044a2.749,2.749,0,0,0,1.3,2.657,2.306,2.306,0,0,0,2.748-.326c6.146-5.67,7.929-7.341,7.8-7.211.19-.184-.123.452,3.088-6.164H64.156Z" transform="translate(1.162 4.447)"/><path class="b" d="M11.7,50H9.232a1.347,1.347,0,0,0,0,2.684H11.7A1.347,1.347,0,0,0,11.7,50Z" transform="translate(1.859 17.103)"/><path class="b" d="M17.7,50H15.232a1.347,1.347,0,0,0,0,2.684H17.7A1.347,1.347,0,0,0,17.7,50Z" transform="translate(3.254 17.103)"/><path class="b" d="M23.7,50H21.232a1.347,1.347,0,0,0,0,2.684H23.7A1.347,1.347,0,0,0,23.7,50Z" transform="translate(4.648 17.103)"/><path class="b" d="M28.465,50H27.232a1.347,1.347,0,0,0,0,2.684h1.232a1.347,1.347,0,0,0,0-2.684Z" transform="translate(6.043 17.103)"/><path class="b" d="M39.465,50H38.232a1.347,1.347,0,0,0,0,2.684h1.232a1.347,1.347,0,0,0,0-2.684Z" transform="translate(8.599 17.103)"/><path class="b" d="M42,51.342a1.291,1.291,0,0,0,1.232,1.342H45.7A1.347,1.347,0,0,0,45.7,50H43.232A1.291,1.291,0,0,0,42,51.342Z" transform="translate(9.761 17.103)"/><path class="b" d="M49.232,52.684H51.7A1.347,1.347,0,0,0,51.7,50H49.232a1.347,1.347,0,0,0,0,2.684Z" transform="translate(11.156 17.103)"/></g></svg>