<svg xmlns="http://www.w3.org/2000/svg" width="56.5" height="56.503" viewBox="0 0 56.5 56.503"><defs><style>.a{fill:#e99f1e;}</style></defs><g transform="translate(-0.015)"><g transform="translate(0.015)"><g transform="translate(0)"><path class="a" d="M116.731,137.433a20.716,20.716,0,1,0-20.716-20.716A20.716,20.716,0,0,0,116.731,137.433Zm-16.008-21.658H97.946A18.825,18.825,0,0,1,115.79,97.931v2.777a.942.942,0,0,0,1.883,0V97.931a18.825,18.825,0,0,1,17.843,17.843H131.8a.942.942,0,1,0,0,1.883h3.719A18.825,18.825,0,0,1,117.673,135.5v-2.777a.942.942,0,0,0-1.883,0V135.5a18.825,18.825,0,0,1-17.843-17.843h2.777a.942.942,0,1,0,0-1.883Z" transform="translate(-84.715 -84.7)"/><path class="a" d="M88.523,19.791q-.421-.73-.892-1.429l2.325-2.325a.942.942,0,0,0,0-1.331l-5.32-5.32a.942.942,0,0,0-1.332,0l-2.329,2.321a24.337,24.337,0,0,0-12.712-4.15V1.883h6.592a.942.942,0,0,0,0-1.883H59.789a.942.942,0,0,0,0,1.883H66.38V7.565A24.455,24.455,0,0,0,46.135,19.775H40.956a.942.942,0,0,0,0,1.883h5.65c.024,0,.045-.012.07-.014a.932.932,0,0,0,.822-.471,22.6,22.6,0,1,1,0,21.7.932.932,0,0,0-.82-.476c-.024,0-.046-.014-.072-.014h-5.65a.942.942,0,1,0,0,1.883h5.179A24.473,24.473,0,0,0,88.523,19.791Zm-6.009-6.953,1.456-1.456,3.989,3.989L86.5,16.829A24.741,24.741,0,0,0,82.515,12.838Z" transform="translate(-35.306)"/><path class="a" d="M9.432,264.942A.942.942,0,0,0,8.49,264H.957a.942.942,0,1,0,0,1.883H8.49A.942.942,0,0,0,9.432,264.942Z" transform="translate(-0.015 -232.925)"/><path class="a" d="M16.957,217.883h6.592a.942.942,0,1,0,0-1.883H16.957a.942.942,0,1,0,0,1.883Z" transform="translate(-14.132 -190.575)"/><path class="a" d="M24.49,312.942a.942.942,0,0,0-.942-.942H16.957a.942.942,0,1,0,0,1.883h6.592A.942.942,0,0,0,24.49,312.942Z" transform="translate(-14.132 -275.275)"/><path class="a" d="M201.39,215.583a.942.942,0,0,0,1.331,0l13.089-13.089a.942.942,0,0,0-1.331-1.332l-12.423,12.423-5.6-5.6a.942.942,0,0,0-1.331,1.332Z" transform="translate(-171.923 -177.251)"/></g></g></g></svg>