<svg xmlns="http://www.w3.org/2000/svg" width="18.314" height="18.314" viewBox="0 0 18.314 18.314"><defs><style>.a{fill:#34657f;}</style></defs><path class="a" d="M18.882,12.69l-.706-.706a.332.332,0,0,0-.47,0L13.47,16.22l-2.014-2.03a.334.334,0,0,0-.472,0l-.706.707a.332.332,0,0,0,0,.471l2.954,2.975a.333.333,0,0,0,.47,0l5.18-5.18a.331.331,0,0,0,0-.471Zm-4.1-7.065a9.157,9.157,0,1,0,9.157,9.157A9.157,9.157,0,0,0,14.782,5.625Zm0,16.2a7.044,7.044,0,1,1,7.044-7.044A7.045,7.045,0,0,1,14.782,21.826Z" transform="translate(-5.625 -5.625)"/></svg>