<svg xmlns="http://www.w3.org/2000/svg" width="204.423" height="111.721" viewBox="0 0 204.423 111.721">
  <g id="_1" data-name="1" transform="translate(-149 -1803.45)">
    <g id="Group_1221" data-name="Group 1221" transform="translate(149 1803.45)">
      <path id="Path_932" data-name="Path 932" d="M457.991,309.877l-8.857,10.971,7.06-12.233a17.682,17.682,0,0,0-3.418-1.625,17.6,17.6,0,1,0-35.1-.961l16,1.053-15.718,1.412a17.632,17.632,0,0,0,7.795,11.576l8.759-5.683-7.285,6.53a17.566,17.566,0,0,0,2.237.962,17.6,17.6,0,0,0,11.713,18.337,17.6,17.6,0,0,0,23.944,18.119,6.036,6.036,0,0,0,.814,1.94,5.783,5.783,0,0,0,2.228,2.065,6.013,6.013,0,0,0,3.163,4.957,6.023,6.023,0,0,0,3.162,4.955,6.022,6.022,0,0,0,3.161,4.959,5.8,5.8,0,0,0,.935,2.89c1.429,2.239,3.975,3.17,5.686,2.084s1.938-3.791.509-6.032a5.814,5.814,0,0,0-2.225-2.069,6.023,6.023,0,0,0-3.168-4.962,6.02,6.02,0,0,0-3.164-4.955,6.013,6.013,0,0,0-3.163-4.956,5.8,5.8,0,0,0-.935-2.89,6.025,6.025,0,0,0-1.39-1.539,17.6,17.6,0,0,0-6.237-29.448,17.614,17.614,0,0,0-6.5-15.458Z" transform="translate(-378.387 -287.653)" fill="#f2f2f2"/>
      <path id="Path_933" data-name="Path 933" d="M522.037,305.314l-1.58,1,.96-1.746a1.561,1.561,0,0,0-.957-.347h-.024a1.91,1.91,0,0,1-.329-.025l-.537.348.231-.419a1.9,1.9,0,0,1-.937-.711l-.959.608.607-1.1a2.809,2.809,0,0,0-2.148-1.088,2.945,2.945,0,0,0-2.46,1.518,1.836,1.836,0,0,1-1.626.869h-.054c-1.1,0-1.994,1.249-1.994,2.778s.893,2.788,1.994,2.788a1.5,1.5,0,0,0,.7-.173,2.873,2.873,0,0,1,2.412-.047,2.525,2.525,0,0,0,2.051,0,2.876,2.876,0,0,1,2.392.047,1.5,1.5,0,0,0,.7.173c1.1,0,1.994-1.247,1.994-2.788A3.516,3.516,0,0,0,522.037,305.314Z" transform="translate(-406.092 -291.898)" fill="#f2f2f2"/>
      <path id="Path_934" data-name="Path 934" d="M519.057,310.949a2.957,2.957,0,0,0-1.707.186,2.52,2.52,0,0,1-2.051,0,2.882,2.882,0,0,0-2.415.047,1.472,1.472,0,0,1-.694.174c-.98,0-1.792-.985-1.963-2.284a1.9,1.9,0,0,0,.49-.521,2.75,2.75,0,0,1,4.906-.017,1.886,1.886,0,0,0,1.626.893h.026A2.022,2.022,0,0,1,519.057,310.949Z" transform="translate(-406.091 -293.454)" opacity="0.03"/>
      <path id="Path_935" data-name="Path 935" d="M605.565,295.648l-1.58,1,.96-1.746a1.562,1.562,0,0,0-.957-.348h-.024a1.844,1.844,0,0,1-.329-.025l-.537.348.231-.418a1.91,1.91,0,0,1-.938-.711l-.959.608.606-1.1a2.806,2.806,0,0,0-2.148-1.087,2.942,2.942,0,0,0-2.459,1.518,1.837,1.837,0,0,1-1.626.868h-.054c-1.1,0-1.994,1.249-1.994,2.779s.893,2.787,1.994,2.787a1.488,1.488,0,0,0,.694-.174,2.877,2.877,0,0,1,2.413-.047,2.52,2.52,0,0,0,2.051,0,2.882,2.882,0,0,1,2.392.047,1.494,1.494,0,0,0,.7.174c1.1,0,1.993-1.247,1.993-2.787A3.514,3.514,0,0,0,605.565,295.648Z" transform="translate(-431.09 -289.005)" fill="#f2f2f2"/>
      <path id="Path_936" data-name="Path 936" d="M602.585,301.283a2.95,2.95,0,0,0-1.707.186,2.52,2.52,0,0,1-2.051,0,2.882,2.882,0,0,0-2.415.047,1.49,1.49,0,0,1-.694.174c-.98,0-1.793-.985-1.963-2.284a1.894,1.894,0,0,0,.49-.521,2.75,2.75,0,0,1,4.906-.018,1.884,1.884,0,0,0,1.626.893h.026A2.024,2.024,0,0,1,602.585,301.283Z" transform="translate(-431.089 -290.56)" opacity="0.03"/>
      <path id="Path_937" data-name="Path 937" d="M554.619,318.151l2.546,1.619-1.542-2.8a2.513,2.513,0,0,1,1.537-.547h.04a2.955,2.955,0,0,0,.521-.039l.86.546-.374-.671a3.093,3.093,0,0,0,1.506-1.143l1.54.976-.962-1.77a4.505,4.505,0,0,1,3.451-1.736,4.736,4.736,0,0,1,3.951,2.432,2.953,2.953,0,0,0,2.605,1.408h.086c1.769,0,3.2,2,3.2,4.478s-1.433,4.479-3.2,4.479a2.4,2.4,0,0,1-1.116-.28,4.617,4.617,0,0,0-3.875-.075,4.041,4.041,0,0,1-3.3,0,4.626,4.626,0,0,0-3.842.075,2.419,2.419,0,0,1-1.1.273c-1.769,0-3.2-2-3.2-4.479A5.691,5.691,0,0,1,554.619,318.151Z" transform="translate(-419.175 -295.114)" fill="#f2f2f2"/>
      <path id="Path_938" data-name="Path 938" d="M561.734,327.2a4.754,4.754,0,0,1,2.745.3,4.041,4.041,0,0,0,3.3,0,4.621,4.621,0,0,1,3.877.075,2.4,2.4,0,0,0,1.115.28c1.572,0,2.878-1.582,3.151-3.67a3.049,3.049,0,0,1-.785-.848,4.419,4.419,0,0,0-7.883-.021,3.028,3.028,0,0,1-2.605,1.433h-.04A3.265,3.265,0,0,0,561.734,327.2Z" transform="translate(-421.506 -297.605)" opacity="0.03"/>
      <ellipse id="Ellipse_2" data-name="Ellipse 2" cx="102.211" cy="3.647" rx="102.211" ry="3.647" transform="translate(0 104.427)" fill="#3f3d56"/>
      <rect id="Rectangle_711" data-name="Rectangle 711" width="144.85" height="79.199" rx="5.061" transform="translate(29.786 27.095)" fill="#f2f2f2"/>
      <path id="Path_939" data-name="Path 939" d="M548.975,329.867v2.011H404.124v-2.011a3.547,3.547,0,0,1,3.547-3.547H545.428A3.547,3.547,0,0,1,548.975,329.867Z" transform="translate(-374.338 -299.225)" fill="#3f3d56"/>
      <circle id="Ellipse_3" data-name="Ellipse 3" cx="1.042" cy="1.042" r="1.042" transform="translate(32.478 28.919)" fill="#34657f"/>
      <circle id="Ellipse_4" data-name="Ellipse 4" cx="1.042" cy="1.042" r="1.042" transform="translate(35.084 28.919)" fill="#34657f"/>
      <circle id="Ellipse_5" data-name="Ellipse 5" cx="1.042" cy="1.042" r="1.042" transform="translate(37.689 28.919)" fill="#34657f"/>
      <path id="Path_940" data-name="Path 940" d="M444.9,380.725" transform="translate(-386.54 -315.507)" fill="none" stroke="#f2f2f2" stroke-miterlimit="10" stroke-width="2"/>
      <path id="Path_941" data-name="Path 941" d="M441.427,380.477" transform="translate(-385.502 -315.432)" fill="none" stroke="#f2f2f2" stroke-miterlimit="10" stroke-width="2"/>
      <rect id="Rectangle_712" data-name="Rectangle 712" width="16.673" height="13.547" rx="2.303" transform="translate(51.844 41.858)" fill="#fff"/>
      <rect id="Rectangle_713" data-name="Rectangle 713" width="16.673" height="13.547" rx="2.303" transform="translate(71.296 41.858)" fill="#34657f"/>
      <rect id="Rectangle_714" data-name="Rectangle 714" width="16.673" height="13.547" rx="2.303" transform="translate(90.748 41.858)" fill="#fff"/>
      <rect id="Rectangle_715" data-name="Rectangle 715" width="16.673" height="13.547" rx="2.303" transform="translate(110.201 41.858)" fill="#fff"/>
      <rect id="Rectangle_716" data-name="Rectangle 716" width="16.673" height="13.547" rx="2.303" transform="translate(129.653 41.858)" fill="#34657f"/>
      <rect id="Rectangle_717" data-name="Rectangle 717" width="16.673" height="13.547" rx="2.303" transform="translate(51.844 64.61)" fill="#fff"/>
      <rect id="Rectangle_718" data-name="Rectangle 718" width="16.673" height="13.547" rx="2.303" transform="translate(71.296 64.61)" fill="#fff"/>
      <rect id="Rectangle_719" data-name="Rectangle 719" width="16.673" height="13.547" rx="2.303" transform="translate(90.748 64.61)" fill="#34657f"/>
      <rect id="Rectangle_720" data-name="Rectangle 720" width="16.673" height="13.547" rx="2.303" transform="translate(110.201 64.61)" fill="#fff"/>
      <rect id="Rectangle_721" data-name="Rectangle 721" width="16.673" height="13.547" rx="2.303" transform="translate(129.653 64.61)" fill="#fff"/>
      <rect id="Rectangle_722" data-name="Rectangle 722" width="16.673" height="13.547" rx="2.303" transform="translate(51.844 87.363)" fill="#fff"/>
      <rect id="Rectangle_723" data-name="Rectangle 723" width="16.673" height="13.547" rx="2.303" transform="translate(71.296 87.363)" fill="#fff"/>
      <rect id="Rectangle_724" data-name="Rectangle 724" width="16.673" height="13.547" rx="2.303" transform="translate(90.748 87.363)" fill="#fff"/>
      <rect id="Rectangle_725" data-name="Rectangle 725" width="16.673" height="13.547" rx="2.303" transform="translate(110.201 87.363)" fill="#34657f" opacity="0.3"/>
      <rect id="Rectangle_726" data-name="Rectangle 726" width="16.673" height="13.547" rx="2.303" transform="translate(129.653 87.363)" fill="#fff"/>
      <path id="Path_942" data-name="Path 942" d="M487.936,343.392l-.879-.884a.466.466,0,0,0-.659,0l0,0-5.516,5.469-2.333-2.352a.463.463,0,0,0-.654,0l0,0L477,346.5a.473.473,0,0,0,0,.664l3.542,3.569a.473.473,0,0,0,.664,0l6.728-6.679a.466.466,0,0,0,0-.659Z" transform="translate(-396.108 -304.028)" fill="#3acc6c"/>
      <path id="Path_943" data-name="Path 943" d="M572.208,343.392l-.879-.884a.466.466,0,0,0-.658,0l0,0-5.516,5.469-2.333-2.352a.462.462,0,0,0-.653,0l0,0-.887.877a.472.472,0,0,0,0,.664l3.542,3.569a.472.472,0,0,0,.664,0l6.728-6.679a.466.466,0,0,0,0-.659Z" transform="translate(-421.328 -304.028)" fill="#3acc6c"/>
      <path id="Path_944" data-name="Path 944" d="M515.7,375.614l-.879-.884a.465.465,0,0,0-.658,0l0,0L508.64,380.2l-2.333-2.352a.462.462,0,0,0-.654,0l0,0-.888.877a.473.473,0,0,0,0,.663l3.541,3.57a.472.472,0,0,0,.664,0l6.728-6.68a.464.464,0,0,0,.005-.658Z" transform="translate(-404.416 -313.671)" fill="#3acc6c"/>
      <path id="Path_945" data-name="Path 945" d="M543.209,409.322l-.879-.884a.465.465,0,0,0-.658,0l0,0-5.516,5.47-2.333-2.352a.462.462,0,0,0-.653,0l0,0-.887.868a.472.472,0,0,0,0,.664l3.541,3.569a.472.472,0,0,0,.664,0l6.728-6.68A.465.465,0,0,0,543.209,409.322Z" transform="translate(-412.649 -323.759)" fill="#3acc6c"/>
      <path id="Path_946" data-name="Path 946" d="M610.593,431.935c-.521-.957.069-2.132.745-2.984s1.5-1.736,1.478-2.829c-.026-1.563-1.685-2.488-3.01-3.316a14.589,14.589,0,0,1-2.7-2.172,3.953,3.953,0,0,1-.83-1.112,4.5,4.5,0,0,1-.25-1.975q.088-3.345.331-6.685" transform="translate(-434.758 -324.526)" fill="none" stroke="#3f3d56" stroke-miterlimit="10" stroke-width="4"/>
      <path id="Path_947" data-name="Path 947" d="M602.9,409.7a2.433,2.433,0,0,1,1.216-2l.545,1.081-.017-1.308a2.431,2.431,0,1,1,.566,4.76A2.431,2.431,0,0,1,602.9,409.7Z" transform="translate(-433.826 -323.481)" fill="#57b894"/>
      <path id="Path_948" data-name="Path 948" d="M608.987,432.718a2.431,2.431,0,1,0-.118-1.963l1.523,1.238-1.676-.388A2.429,2.429,0,0,0,608.987,432.718Z" transform="translate(-435.566 -330.005)" fill="#57b894"/>
      <path id="Path_949" data-name="Path 949" d="M609.845,425.4a2.431,2.431,0,0,0,.764-4.774l.014,1-.552-1.092h0a2.433,2.433,0,0,0-2.548,2.31v.01a2.406,2.406,0,0,0,.1.832A2.432,2.432,0,0,0,609.845,425.4Z" transform="translate(-435.208 -327.42)" fill="#57b894"/>
      <path id="Path_950" data-name="Path 950" d="M601.388,419.783a2.431,2.431,0,1,0-1.079-4.562l.431,1.181-.886-.851a2.435,2.435,0,0,0-.787,1.683,2.434,2.434,0,0,0,2.321,2.549Z" transform="translate(-432.678 -325.741)" fill="#57b894"/>
      <path id="Path_951" data-name="Path 951" d="M603.254,410.916c.563.06,1.11.236,1.674.27a1.819,1.819,0,0,0,1.542-.538,7.457,7.457,0,0,0,.45-.794,1.737,1.737,0,0,1,.615-.578,2.432,2.432,0,1,1-4.557,1.619C603.07,410.9,603.163,410.905,603.254,410.916Z" transform="translate(-433.849 -324.051)" opacity="0.1"/>
      <path id="Path_952" data-name="Path 952" d="M601.418,420.376a2.432,2.432,0,0,0,2.319-3.474,1.792,1.792,0,0,0-.49.49,7.936,7.936,0,0,1-.483.806,1.994,1.994,0,0,1-1.617.566c-.589-.026-1.157-.194-1.737-.248-.081,0-.163-.012-.247-.014A2.432,2.432,0,0,0,601.418,420.376Z" transform="translate(-432.707 -326.333)" opacity="0.1"/>
      <path id="Path_953" data-name="Path 953" d="M609.892,426.012a2.431,2.431,0,0,0,2.338-3.431,1.991,1.991,0,0,0-.521.495c-.189.268-.308.575-.521.821a2.259,2.259,0,0,1-1.725.607c-.622-.014-1.186-.162-1.785-.209A2.432,2.432,0,0,0,609.892,426.012Z" transform="translate(-435.255 -328.033)" opacity="0.1"/>
      <path id="Path_954" data-name="Path 954" d="M609.1,433.384a2.434,2.434,0,1,0,4.444-1.989h0a2.347,2.347,0,0,0-.535.477,10.447,10.447,0,0,1-.653.868,3.036,3.036,0,0,1-2.02.711A10.408,10.408,0,0,1,609.1,433.384Z" transform="translate(-435.682 -330.671)" opacity="0.1"/>
      <path id="Path_955" data-name="Path 955" d="M614.737,438.917a7.06,7.06,0,0,1-2.5-.472c-.58-.413-2.953-.905-3.1-.243s-2.892,3.3-.721,3.31a18.78,18.78,0,0,0,5.628-.7C614.617,440.47,614.737,438.917,614.737,438.917Z" transform="translate(-435.225 -332.611)" fill="#656380"/>
      <path id="Path_956" data-name="Path 956" d="M608.375,441.724a18.269,18.269,0,0,0,5.625-.7c.441-.269.617-1.231.676-1.676h.064s-.122,1.553-.7,1.911a18.306,18.306,0,0,1-5.627.694c-.627,0-.842-.228-.83-.558C607.67,441.6,607.907,441.715,608.375,441.724Z" transform="translate(-435.228 -333.052)" opacity="0.2"/>
      <path id="Path_957" data-name="Path 957" d="M404.416,426.446c-.762-1.41.1-3.14,1.1-4.4s2.206-2.567,2.182-4.169c-.039-2.3-2.484-3.664-4.44-4.887a21.675,21.675,0,0,1-3.984-3.2,5.874,5.874,0,0,1-1.216-1.64,6.651,6.651,0,0,1-.366-2.914q.125-4.932.486-9.856" transform="translate(-372.408 -319.892)" fill="none" stroke="#3f3d56" stroke-miterlimit="10" stroke-width="4"/>
      <path id="Path_958" data-name="Path 958" d="M393.07,393.651a3.59,3.59,0,0,1,1.795-2.952l.806,1.592-.025-1.928a3.594,3.594,0,1,1-2.576,3.281Z" transform="translate(-371.029 -318.347)" fill="#57b894"/>
      <path id="Path_959" data-name="Path 959" d="M402.049,427.6a3.593,3.593,0,1,0-.174-2.894l2.244,1.825-2.473-.571A3.574,3.574,0,0,0,402.049,427.6Z" transform="translate(-373.596 -327.967)" fill="#57b894"/>
      <path id="Path_960" data-name="Path 960" d="M403.266,416.807a3.6,3.6,0,0,0,1.139-7.051l.019,1.479-.814-1.61H403.6a3.6,3.6,0,0,0-.447,7.176Z" transform="translate(-373.039 -324.154)" fill="#57b894"/>
      <path id="Path_961" data-name="Path 961" d="M390.836,408.521a3.6,3.6,0,0,0,3.758-3.424,3.543,3.543,0,0,0-.348-1.7,3.589,3.589,0,0,0-4.777-1.718c-.078.037-.155.076-.23.118l.633,1.737-1.305-1.254a3.6,3.6,0,0,0,2.258,6.241Z" transform="translate(-369.334 -321.674)" fill="#57b894"/>
      <path id="Path_962" data-name="Path 962" d="M393.59,395.452c.828.092,1.636.348,2.468.4a2.674,2.674,0,0,0,2.273-.8,11.167,11.167,0,0,0,.666-1.169,2.567,2.567,0,0,1,.9-.853,3.6,3.6,0,1,1-6.72,2.387C393.317,395.428,393.454,395.438,393.59,395.452Z" transform="translate(-371.063 -319.191)" opacity="0.1"/>
      <path id="Path_963" data-name="Path 963" d="M390.876,409.4a3.6,3.6,0,0,0,3.758-3.424,3.543,3.543,0,0,0-.348-1.7,2.686,2.686,0,0,0-.722.722,11.365,11.365,0,0,1-.712,1.188,2.95,2.95,0,0,1-2.383.834c-.867-.034-1.706-.284-2.569-.364-.12-.01-.242-.02-.363-.023A3.594,3.594,0,0,0,390.876,409.4Z" transform="translate(-369.374 -322.554)" opacity="0.1"/>
      <path id="Path_964" data-name="Path 964" d="M403.358,417.715a3.594,3.594,0,0,0,3.448-5.061,2.888,2.888,0,0,0-.759.732,12.7,12.7,0,0,1-.782,1.216,3.33,3.33,0,0,1-2.544.893c-.889-.021-1.747-.238-2.631-.306A3.6,3.6,0,0,0,403.358,417.715Z" transform="translate(-373.13 -325.062)" opacity="0.1"/>
      <path id="Path_965" data-name="Path 965" d="M402.221,428.583a3.6,3.6,0,0,0,6.552-2.934,3.626,3.626,0,0,0-.79.7,15.4,15.4,0,0,1-.962,1.278,4.49,4.49,0,0,1-2.977,1.042A15.53,15.53,0,0,1,402.221,428.583Z" transform="translate(-373.768 -328.951)" opacity="0.1"/>
      <path id="Path_966" data-name="Path 966" d="M410.522,436.744s-2.836-.087-3.692-.7-4.363-1.336-4.575-.359-4.264,4.863-1.061,4.882,7.442-.5,8.295-1.019S410.522,436.744,410.522,436.744Z" transform="translate(-373.094 -331.813)" fill="#656380"/>
      <path id="Path_967" data-name="Path 967" d="M401.147,440.882c3.2.026,7.442-.5,8.295-1.017.65-.4.91-1.817,1-2.471h.1s-.174,2.287-1.034,2.806-5.092,1.042-8.295,1.02c-.924,0-1.244-.337-1.226-.823C400.1,440.693,400.451,440.877,401.147,440.882Z" transform="translate(-373.097 -332.466)" opacity="0.2"/>
      <path id="Path_968" data-name="Path 968" d="M586.453,404.861a10.8,10.8,0,0,0-1.434.841,1.146,1.146,0,0,0-.189.155,1.286,1.286,0,0,0-.116.153,2.858,2.858,0,0,0-.49.976" transform="translate(-428.236 -322.73)" fill="none" stroke="#000" stroke-miterlimit="10" stroke-width="1" opacity="0.1"/>
    </g>
  </g>
</svg>
