<svg xmlns="http://www.w3.org/2000/svg" width="21.533" height="17.493" viewBox="0 0 21.533 17.493"><defs><style>.a{fill:#63666a;}</style></defs><path class="a" d="M20.936,3.323A8.873,8.873,0,0,1,18.13,4.4,4.421,4.421,0,0,0,10.6,8.423,12.541,12.541,0,0,1,1.5,3.807,4.423,4.423,0,0,0,2.866,9.7a4.418,4.418,0,0,1-2-.554V9.2a4.422,4.422,0,0,0,3.543,4.332,4.43,4.43,0,0,1-2,.075A4.423,4.423,0,0,0,6.538,16.68,8.865,8.865,0,0,1,1.052,18.57,9.079,9.079,0,0,1,0,18.509a12.507,12.507,0,0,0,6.771,1.985A12.483,12.483,0,0,0,19.337,7.925c0-.191,0-.382-.013-.572A8.9,8.9,0,0,0,21.531,5.07a8.82,8.82,0,0,1-2.537.7A4.43,4.43,0,0,0,20.936,3.323Z" transform="translate(0.002 -3)"/></svg>