<svg xmlns="http://www.w3.org/2000/svg" width="14.31" height="11.625" viewBox="0 0 14.31 11.625"><defs><style>.a{fill:#fff;}</style></defs><path class="a" d="M13.913,3.215a5.9,5.9,0,0,1-1.865.713,2.938,2.938,0,0,0-5,2.677A8.335,8.335,0,0,1,1,3.537,2.939,2.939,0,0,0,1.9,7.455a2.936,2.936,0,0,1-1.33-.368v.037A2.939,2.939,0,0,0,2.928,10a2.944,2.944,0,0,1-1.326.05,2.94,2.94,0,0,0,2.742,2.039A5.892,5.892,0,0,1,.7,13.348a6.034,6.034,0,0,1-.7-.041,8.312,8.312,0,0,0,4.5,1.319A8.3,8.3,0,0,0,12.85,6.273c0-.127,0-.254-.009-.38a5.916,5.916,0,0,0,1.467-1.518,5.862,5.862,0,0,1-1.686.462A2.944,2.944,0,0,0,13.913,3.215Z" transform="translate(0.002 -3)"/></svg>