<svg xmlns="http://www.w3.org/2000/svg" width="12.277" height="12.086" viewBox="0 0 12.277 12.086"><defs><style>.a{fill:#fff;}</style></defs><path class="a" d="M2.783,4.67a1.241,1.241,0,0,1-.4.928,1.411,1.411,0,0,1-1.023.382A1.329,1.329,0,0,1,.382,5.6,1.263,1.263,0,0,1,0,4.67a1.251,1.251,0,0,1,.382-.941A1.393,1.393,0,0,1,1.391,3.36a1.346,1.346,0,0,1,1,.368,1.372,1.372,0,0,1,.4.941ZM.082,15.446V7.016H2.7v8.43H.082ZM4.256,9.717q0-1.173-.055-2.7H6.466L6.6,8.189h.055A2.8,2.8,0,0,1,9.248,6.825a2.828,2.828,0,0,1,2.2.914,3.911,3.911,0,0,1,.832,2.715v4.993H9.658V10.781q0-1.828-1.337-1.828a1.357,1.357,0,0,0-1.337.982,1.7,1.7,0,0,0-.082.655v4.856H4.256V9.717h0Z" transform="translate(0 -3.36)"/></svg>