<svg xmlns="http://www.w3.org/2000/svg" width="18.473" height="18.186" viewBox="0 0 18.473 18.186"><defs><style>.a{fill:#63666a;}</style></defs><path class="a" d="M4.187,5.331a1.868,1.868,0,0,1-.6,1.4A2.124,2.124,0,0,1,2.053,7.3,2,2,0,0,1,.575,6.726,1.9,1.9,0,0,1,0,5.331,1.882,1.882,0,0,1,.575,3.914,2.1,2.1,0,0,1,2.094,3.36a2.025,2.025,0,0,1,1.5.554,2.065,2.065,0,0,1,.6,1.416ZM.123,21.546V8.861H4.064V21.546H.123ZM6.4,12.925q0-1.765-.082-4.064H9.729l.205,1.765h.082a4.213,4.213,0,0,1,3.9-2.053,4.255,4.255,0,0,1,3.3,1.375,5.884,5.884,0,0,1,1.252,4.085v7.513H14.532v-7.02q0-2.751-2.012-2.751a2.042,2.042,0,0,0-2.012,1.478,2.562,2.562,0,0,0-.123.985v7.307H6.4V12.925h0Z" transform="translate(0 -3.36)"/></svg>