<svg id="Group_1560" data-name="Group 1560" xmlns="http://www.w3.org/2000/svg" width="48.794" height="48.899" viewBox="0 0 48.794 48.899">
  <path id="Path_1131" data-name="Path 1131" d="M154.9,449.216c.058,2.38.019,4.763.027,7.143.008,2.437,0,4.872,0,7.309v7.337c1.49.086,2.925.056,4.5,0v-6.8c0-1.11.067-1.178,1.12-1.179h9.137c1.312,0,1.314,0,1.314,1.284v18.619h3.5a4.722,4.722,0,0,1-.426.673c-1.05,1.059-2.076,2.137-3.164,3.151a6.212,6.212,0,0,1-8.691-.183q-5.727-5.683-11.417-11.4c-2.13-2.129-4.2-4.318-6.4-6.374a6.516,6.516,0,0,1,.037-9.613c3.2-3.02,6.239-6.2,9.351-9.306.271-.271.568-.513.854-.769Z" transform="translate(-142.304 -439.536)" fill="#87888e"/>
  <path id="Path_1132" data-name="Path 1132" d="M218.658,437.251h.385c.011.386.151.583.565.392a1.434,1.434,0,0,0,.868-1.547c-.037-.481-.023-.965-.067-1.445-.006-.068-.207-.117-.317-.176a4.108,4.108,0,0,0-.055-.861,2.269,2.269,0,0,0-.375-.584c-.222-.489-.489-.753-1.05-.369a1.573,1.573,0,0,1-.841.183q-10.023.015-20.046,0a7.036,7.036,0,0,1-.747-.076,12.233,12.233,0,0,1-.138-4.471.574.574,0,0,0-.5-.736l.007-.4a2.2,2.2,0,0,1,1.472-.42c3.345.026,6.691.018,10.036,0a5.828,5.828,0,0,0,1.038-.19,10.82,10.82,0,0,0,.183-1.278c.028-.971.008-1.943.008-3.079H192.879a6.1,6.1,0,0,1,.505-.747c1.884-1.9,3.787-3.775,5.66-5.683a6.191,6.191,0,0,1,4.34-1.921,5.813,5.813,0,0,1,4.34,1.643q2.936,2.877,5.835,5.79,3.592,3.584,7.173,7.178c1.84,1.843,3.715,3.653,5.513,5.535a6.207,6.207,0,0,1-.077,8.692q-6.185,6.234-12.42,12.417a.794.794,0,0,1-.172.1c-.721-.183-.624-.769-.624-1.294V439.3c0-.492-.058-.984-.1-1.591h1.16c1.386,0,2.772,0,4.158.014C218.535,437.74,218.658,437.573,218.658,437.251Z" transform="translate(-179.189 -413.836)" fill="#34657f"/>
</svg>
