<svg xmlns="http://www.w3.org/2000/svg" width="197.384" height="49.206" viewBox="0 0 197.384 49.206">
  <g id="Group_1440" data-name="Group 1440" transform="translate(-1225.582 4580.41)">
    <g id="Logo_Grid" data-name="Logo Grid" transform="translate(1225.582 -4580.41)">
      <g id="Group_1230" data-name="Group 1230" transform="translate(0 0)">
        <g id="Group_1229" data-name="Group 1229">
          <path id="Path_1131" data-name="Path 1131" d="M154.9,449.216c.058,2.38.019,4.763.027,7.143.008,2.437,0,4.872,0,7.309v7.337c1.49.086,2.925.056,4.5,0v-6.8c0-1.11.067-1.178,1.12-1.179h9.137c1.312,0,1.314,0,1.314,1.284v18.619h3.5a4.722,4.722,0,0,1-.426.673c-1.05,1.059-2.076,2.137-3.164,3.151a6.212,6.212,0,0,1-8.691-.183q-5.727-5.683-11.417-11.4c-2.13-2.129-4.2-4.318-6.4-6.374a6.516,6.516,0,0,1,.037-9.613c3.2-3.02,6.239-6.2,9.351-9.306.271-.271.568-.513.854-.769Z" transform="translate(-142.304 -439.536)" fill="#87888e"/>
          <path id="Path_1132" data-name="Path 1132" d="M218.658,437.251h.385c.011.386.151.583.565.392a1.434,1.434,0,0,0,.868-1.547c-.037-.481-.023-.965-.067-1.445-.006-.068-.207-.117-.317-.176a4.108,4.108,0,0,0-.055-.861,2.269,2.269,0,0,0-.375-.584c-.222-.489-.489-.753-1.05-.369a1.573,1.573,0,0,1-.841.183q-10.023.015-20.046,0a7.036,7.036,0,0,1-.747-.076,12.233,12.233,0,0,1-.138-4.471.574.574,0,0,0-.5-.736l.007-.4a2.2,2.2,0,0,1,1.472-.42c3.345.026,6.691.018,10.036,0a5.828,5.828,0,0,0,1.038-.19,10.82,10.82,0,0,0,.183-1.278c.028-.971.008-1.943.008-3.079H192.879a6.1,6.1,0,0,1,.505-.747c1.884-1.9,3.787-3.775,5.66-5.683a6.191,6.191,0,0,1,4.34-1.921,5.813,5.813,0,0,1,4.34,1.643q2.936,2.877,5.835,5.79,3.592,3.584,7.173,7.178c1.84,1.843,3.715,3.653,5.513,5.535a6.207,6.207,0,0,1-.077,8.692q-6.185,6.234-12.42,12.417a.794.794,0,0,1-.172.1c-.721-.183-.624-.769-.624-1.294V439.3c0-.492-.058-.984-.1-1.591h1.16c1.386,0,2.772,0,4.158.014C218.535,437.74,218.658,437.573,218.658,437.251Z" transform="translate(-179.189 -413.836)" fill="#34657f"/>
          <g id="Group_1440-2" data-name="Group 1440" transform="translate(54.566 35.762)">
            <path id="Path_1142" data-name="Path 1142" d="M355.518,546.134a7.07,7.07,0,0,1-.741.109c-.8.019-.97-.1-1.1-.86-.225-1.3-.418-2.6-.637-3.894-.067-.391-.177-.774-.312-1.349a4.731,4.731,0,0,0-.4.68c-.512,1.5-1.007,3.006-1.517,4.507-.153.452-.31.888-.922.928-.79.052-1.076-.117-1.342-.9-.467-1.374-.925-2.75-1.4-4.122a2.5,2.5,0,0,0-.583-1.015l-.633,3.459c-.117.663-.219,1.332-.383,1.984-.138.547-.584.708-1.3.575-.6-.117-.5-.493-.42-.924.5-2.822.99-5.644,1.451-8.471.081-.493.179-.832.756-.871.774-.052,1.222.106,1.424.662.334.917.622,1.852.934,2.778.4,1.18.795,2.359,1.274,3.779l1.674-4.941c.184-.544.34-1.1.558-1.628.233-.572.646-.707,1.431-.623.557.06.676.373.756.876.426,2.628.907,5.252,1.35,7.873a12.9,12.9,0,0,1,.08,1.389Z" transform="translate(-343.772 -535.698)" fill="#87888e"/>
            <path id="Path_1144" data-name="Path 1144" d="M551.448,546.271c.07-.566.417-.773.958-.764.727.012.911.133.916.874.014,1.993.023,3.988-.023,5.981a5.242,5.242,0,0,1-.35,1.771,2.9,2.9,0,0,1-2.551,1.881,12.23,12.23,0,0,1-2.025,0,2.948,2.948,0,0,1-2.6-2.079,3.119,3.119,0,0,1,2.139.068,4.735,4.735,0,0,0,1.854.35c1.139-.052,1.517-.515,1.663-1.818a7.811,7.811,0,0,1-2.061.583,3.991,3.991,0,0,1-2.086-.583,4.163,4.163,0,0,1-1.4-1.659,4.045,4.045,0,0,1,.872-4.565C548,545.16,549.247,545.146,551.448,546.271Zm.117,2.993a2.05,2.05,0,0,0-2.161-2.141,2.158,2.158,0,0,0-2.1,2.158,2.23,2.23,0,0,0,2.166,2.217,2.056,2.056,0,0,0,2.089-2.232Z" transform="translate(-490.863 -542.611)" fill="#87888e"/>
            <path id="Path_1145" data-name="Path 1145" d="M475.771,546.231c.117-.668.592-.691,1.081-.677.678.019.855.16.86.829.015,2.1.065,4.2-.015,6.292a3.26,3.26,0,0,1-3.587,3.4,7.769,7.769,0,0,1-1.619-.056,3.279,3.279,0,0,1-2.444-2.031,2.73,2.73,0,0,1,2.168.057,3.185,3.185,0,0,0,2.55.233c.832-.275,1.1-.754.992-1.822a3.7,3.7,0,0,1-3.47.484,3.906,3.906,0,0,1-1.811-1.553,4.131,4.131,0,0,1,.442-4.8C472.127,545.267,473.506,545.14,475.771,546.231Zm-3.945,3.1a2.053,2.053,0,1,0,4.1.007,2.009,2.009,0,0,0-2-2.184,1.971,1.971,0,0,0-2.1,2.176Z" transform="translate(-435.735 -542.652)" fill="#87888e"/>
            <path id="Path_1146" data-name="Path 1146" d="M644.46,540.707c.179.135.281.224.393.3a2.7,2.7,0,0,1,1.11,3.213,2.814,2.814,0,0,1-2.619,2.075c-.972.1-1.962.03-2.943.036-.631,0-.669-.421-.668-.9.006-2.167,0-4.333,0-6.5v-2.691a4.379,4.379,0,0,1,.84-.159,19.718,19.718,0,0,1,2.531.132,2.459,2.459,0,0,1,1.767,3.888C644.754,540.258,644.649,540.429,644.46,540.707Zm-2.834,3.843c.584-.055,1.1-.085,1.618-.159a1,1,0,0,0,.977-1.075,1.208,1.208,0,0,0-.962-1.35,11.9,11.9,0,0,0-1.634-.152Zm-.012-6.652c-.018.362-.04.69-.047,1.018-.008.359,0,.72,0,1.145.74-.029,1.391.174,1.826-.524a.934.934,0,0,0-.018-1.126,1.612,1.612,0,0,0-1.761-.514Z" transform="translate(-559.556 -535.787)" fill="#87888e"/>
            <path id="Path_1147" data-name="Path 1147" d="M677.056,546.24c.34-1.035,1.1-.714,1.867-.692.033.4.085.761.087,1.123.008,1.761.014,3.522-.007,5.282,0,.406.171.921-.386,1.145a1.385,1.385,0,0,1-1.591-.551c-.17.086-.35.165-.522.268-2.459,1.525-5.037-.665-5.264-2.935a4.147,4.147,0,0,1,1.05-3.373,3.435,3.435,0,0,1,4.765-.267Zm-1.924,5.3c1.152.173,2.138-.752,2.157-2.241a2.081,2.081,0,0,0-2.119-2.224,2.134,2.134,0,0,0-2.115,2.241,2.04,2.04,0,0,0,2.076,2.225Z" transform="translate(-582.51 -542.595)" fill="#87888e"/>
            <path id="Path_1148" data-name="Path 1148" d="M748.649,541.636l3.223,3.608a1.873,1.873,0,0,1-2.439-.233c-.557-.589-1.078-1.213-1.634-1.808-.264-.284-.564-.534-.846-.8l-.249.083c0,.686.014,1.374,0,2.059-.025.913-.179,1.044-1.1,1.009-.746-.029-.867-.137-.874-.91-.013-1.589,0-3.179,0-4.768v-3.653c0-1.139.061-1.209.955-1.213.942,0,1.025.1,1.022,1.274,0,1.15-.009,2.3-.014,3.45v1.312a28.691,28.691,0,0,0,2.008-2.187,2.394,2.394,0,0,1,2.844-.817C750.752,539.418,749.48,540.314,748.649,541.636Z" transform="translate(-636.108 -535.011)" fill="#87888e"/>
            <path id="Path_1149" data-name="Path 1149" d="M513.415,552.536c-.149.07-.3.138-.454.212a3.468,3.468,0,0,1-5.135-2.167,4.044,4.044,0,0,1,2.234-5.032,3.792,3.792,0,0,1,3.4.612.888.888,0,0,1,1.015-.706c.756.006.9.1.9.86q.021,2.789,0,5.58c0,.412.172.914-.38,1.151A1.431,1.431,0,0,1,513.415,552.536Zm-1.877-1.041a1.984,1.984,0,0,0,2.16-2.123,2.135,2.135,0,0,0-2.12-2.334,2.08,2.08,0,0,0-2.09,2.231,2.014,2.014,0,0,0,2.051,2.227Z" transform="translate(-463.232 -542.556)" fill="#87888e"/>
            <path id="Path_1150" data-name="Path 1150" d="M585.1,549.768a2.1,2.1,0,0,0,3.251,1.5c.841-.467,1.372-.223,2.091.406a6.671,6.671,0,0,1-1.05.939,4.022,4.022,0,0,1-5.815-1.768,3.955,3.955,0,1,1,7.31-3.006,2.369,2.369,0,0,1,.139.584c.132,1.239.039,1.343-1.19,1.346C588.28,549.771,586.727,549.768,585.1,549.768Zm4.162-1.517a2.186,2.186,0,0,0-2.768-1.314,1.346,1.346,0,0,0-1.128,1.314Z" transform="translate(-518.356 -542.452)" fill="#87888e"/>
            <path id="Path_1151" data-name="Path 1151" d="M798.809,541.99v3.119c0,1.145-.075,1.213-1.189,1.186-.166,0-.33-.027-.6-.049a10.957,10.957,0,0,1-.13-1.178q-.021-4-.012-8c0-.922.117-1.04,1.07-1.031.909.009,1.819.075,2.727.128a1.6,1.6,0,0,1,.478.131,2.845,2.845,0,0,1,1.7,3.4,2.8,2.8,0,0,1-2.508,2.151C799.857,541.9,799.362,541.939,798.809,541.99Zm.033-1.933c.75-.166,1.585.33,2.064-.476a1.3,1.3,0,0,0-.035-1.193,1.912,1.912,0,0,0-2.031-.45Z" transform="translate(-674.131 -535.755)" fill="#87888e"/>
            <path id="Path_1152" data-name="Path 1152" d="M398.437,545.412a3.948,3.948,0,1,1-3.968,3.957,3.95,3.95,0,0,1,3.968-3.957Zm-.062,6.111c1.428.043,2.089-.9,2.141-2.27a2.1,2.1,0,0,0-4.2.057,1.966,1.966,0,0,0,2.059,2.213Z" transform="translate(-380.727 -542.579)" fill="#87888e"/>
            <path id="Path_1153" data-name="Path 1153" d="M711.977,553.169c-.3.026-.5.06-.7.057-.887-.008-.991-.1-1-.986-.015-1.892-.009-3.785-.009-5.677,0-.411-.022-.817.53-.944a1.017,1.017,0,0,1,1.331.54,13,13,0,0,1,2.388-.614,2.269,2.269,0,0,1,2.424,2.206c.077,1.585.022,3.176.031,4.763,0,.606-.373.718-.868.721-.721,0-.934-.117-.955-.727-.033-1.013,0-2.027-.021-3.04-.01-.433-.11-.864-.162-1.3a1.05,1.05,0,0,0-.9-.962,1.2,1.2,0,0,0-1.413.542,5.315,5.315,0,0,0-.537,1.805c-.089.869-.012,1.75-.028,2.633a9.648,9.648,0,0,1-.111.978Z" transform="translate(-610.988 -542.685)" fill="#87888e"/>
            <path id="Path_1154" data-name="Path 1154" d="M850.447,546.913c-.889.875-1.021.9-2.1.4a2.727,2.727,0,0,0-2.86.361,2.3,2.3,0,0,0-.548,2.517,2.43,2.43,0,0,0,3.531,1.011,1.039,1.039,0,0,1,1.367.026c.531.449.559.672.036,1.121a3.921,3.921,0,0,1-2.725.934,3.968,3.968,0,0,1-.719-7.9,4.134,4.134,0,0,1,3.735,1.134,4,4,0,0,1,.285.393Z" transform="translate(-707.667 -542.542)" fill="#87888e"/>
            <path id="Path_1155" data-name="Path 1155" d="M452.518,535.813c.041.789.083,1.615.128,2.488l.848.194c.3,1.274.284,1.318-.9,1.769v3.208c0,.542.014,1.084,0,1.625-.026.836-.182.969-1.05.958-.781-.009-.924-.141-.934-.969-.012-1.591,0-3.18,0-4.858a1.019,1.019,0,0,1-.879-1.183c.053-.574.475-.584.879-.766,0-.553-.01-1.126,0-1.7.019-.805.082-.864.868-.887.2-.006.406-.006.609.007A3.114,3.114,0,0,1,452.518,535.813Z" transform="translate(-421.016 -535.503)" fill="#87888e"/>
            <path id="Path_1156" data-name="Path 1156" d="M829.813,540.41c0,1.417.01,2.833,0,4.251-.008.778-.14.9-.869.906-.769.01-.945-.14-.948-.934q-.015-4.352,0-8.7c0-.794.117-.885.869-.89.81-.007.942.106.95.923.013,1.484,0,2.969,0,4.453Z" transform="translate(-696.811 -535.023)" fill="#87888e"/>
            <path id="Path_1157" data-name="Path 1157" d="M432.543,546.06c.583-.447,1.189-.894,1.984-.467-.064,1.105-.152,1.2-1.067,1.5-.7.226-.817.838-.833,1.46-.023,1.182,0,2.364-.016,3.547-.009.924-.162,1.066-1.05,1.05-.781-.019-.934-.151-.934-.971-.013-1.858-.008-3.716,0-5.574,0-.389-.117-.888.4-1.033a1.038,1.038,0,0,1,1.337.388C432.392,546,432.465,546.016,432.543,546.06Z" transform="translate(-407.088 -542.597)" fill="#87888e"/>
          </g>
          <path id="Path_1159" data-name="Path 1159" d="M271.076,500.063c0,.322-.123.489-.483.484-1.386-.016-2.772-.012-4.158-.014h-1.161c.039.607.1,1.1.1,1.591q.009,7.3,0,14.605c0,.525-.1,1.111.624,1.294l-.934.985-.208-.079c-.027-.35-.076-.707-.076-1.061q0-8.462-.016-16.922c0-.573.117-.945.741-.943C267.367,500.011,269.221,500.04,271.076,500.063Z" transform="translate(-231.606 -476.647)" fill="#4c6d79"/>
          <path id="Path_1162" data-name="Path 1162" d="M205.553,464.487a.574.574,0,0,1,.5.736,12.233,12.233,0,0,0,.138,4.471,7.061,7.061,0,0,0,.747.076q10.023.006,20.046,0a1.571,1.571,0,0,0,.841-.183c.564-.384.832-.117,1.05.369-2.635.01-5.272.029-7.908.03q-7.149,0-14.3-.006c-1.111,0-1.157-.041-1.154-1.13C205.516,467.393,205.539,465.94,205.553,464.487Z" transform="translate(-188.4 -450.753)" fill="#486673"/>
          <path id="Path_1166" data-name="Path 1166" d="M218.232,460.7a5.837,5.837,0,0,1-1.037.19c-3.345.015-6.691.022-10.037,0a2.2,2.2,0,0,0-1.472.42,2.034,2.034,0,0,1,.413-.573c.142-.1.392-.042.594-.041Q212.462,460.7,218.232,460.7Z" transform="translate(-188.526 -447.979)" fill="#486673"/>
          <path id="Path_1167" data-name="Path 1167" d="M290.51,490c.111.058.312.108.317.176.043.48.029.965.067,1.445a1.434,1.434,0,0,1-.868,1.547c-.414.195-.553,0-.565-.392l.958-.2C290.451,491.712,290.481,490.854,290.51,490Z" transform="translate(-249.607 -469.351)" fill="#4c6d79"/>
          <g id="Group_1559" data-name="Group 1559">
            <path id="Path_1133" data-name="Path 1133" d="M360.189,456.372c.029.741.085,1.481.082,2.217,0,.777-.084.846-.9.848-3.079.007-6.157,0-9.236,0-.432,0-.864.036-1.386.06-.027.431-.065.79-.068,1.15-.009,2.1-.007,4.194-.013,6.293,0,1.133-.072,1.2-1.208,1.208q-1.015.006-2.029,0c-1.116,0-1.159-.046-1.167-1.123v-20.8c0-1.213.03-1.236,1.263-1.236h14.209c1.112,0,1.167.054,1.167,1.122,0,.745-.021,1.489.008,2.233.023.573-.253.8-.781.817H349.979c-.4,0-.795.036-1.249.058-.03.365-.076.661-.076.956,0,1.556.023,3.112,0,4.668,0,.5.133.775.665.752.09.6.566.364.88.366,2.528.019,5.054.009,7.586.012a3.773,3.773,0,0,1,2.4.4Z" transform="translate(-289.563 -436.539)" fill="#34657f"/>
            <path id="Path_1134" data-name="Path 1134" d="M782.583,473.128c-.379-.222-.532-.293-.664-.392-1.517-1.129-3.268-.988-4.975-.817a2.21,2.21,0,0,0-1.311.83,1.284,1.284,0,0,0,.61,1.942,7.294,7.294,0,0,0,1.751.44c1.29.233,2.615.321,3.873.663a4.443,4.443,0,0,1,3.534,3.968,4.95,4.95,0,0,1-2.812,5.077,7.252,7.252,0,0,1-3.4.852,14.318,14.318,0,0,1-4.318-.394,8.636,8.636,0,0,1-3.9-2.486l1.887-2.667a9.97,9.97,0,0,0,4.106,1.94,4.922,4.922,0,0,0,3.547-.3,1.634,1.634,0,0,0,.924-1.664,1.36,1.36,0,0,0-1.193-1.216,18.262,18.262,0,0,0-2.193-.341,10.9,10.9,0,0,1-4.34-1.224,4.435,4.435,0,0,1-.063-7.639,9.686,9.686,0,0,1,6.046-1.194,8.3,8.3,0,0,1,4.15,1.466c.678.494.713.641.209,1.284-.313.4-.665.766-.984,1.16C782.9,472.622,782.763,472.862,782.583,473.128Z" transform="translate(-600.676 -453.629)" fill="#34657f"/>
            <path id="Path_1135" data-name="Path 1135" d="M488.356,480.135a10.085,10.085,0,0,0,4.1,1.937,5.405,5.405,0,0,0,3.094-.09,2.665,2.665,0,0,0,.994-.662,1.4,1.4,0,0,0-.609-2.361,7.807,7.807,0,0,0-2.067-.4,11.508,11.508,0,0,1-3.925-.868,4.646,4.646,0,0,1-2.525-2.24,4.533,4.533,0,0,1,1.284-5.475,8.247,8.247,0,0,1,4.138-1.494,9.546,9.546,0,0,1,6.136,1.236c.363.222.682.516,1.123.855l-2.006,2.371a1.35,1.35,0,0,1-.35-.028,6.8,6.8,0,0,0-5.028-1.076c-1.1.069-1.751.635-1.787,1.44a1.343,1.343,0,0,0,1.081,1.517c.971.251,1.993.3,2.981.495a20.72,20.72,0,0,1,3.034.729c3.524,1.27,3.772,6.029,1.089,8.138a6.863,6.863,0,0,1-4.214,1.508,11.455,11.455,0,0,1-5.368-.7,21.364,21.364,0,0,1-2.477-1.556.745.745,0,0,1-.195-1.208C487.36,481.536,487.836,480.854,488.356,480.135Z" transform="translate(-393.362 -453.619)" fill="#34657f"/>
            <path id="Path_1136" data-name="Path 1136" d="M607.6,446.88v.4c-.124.125-.327.233-.35.379a5.376,5.376,0,0,0-.021.906c-.021,1.032-.817,1.58-1.686,1.039a2.121,2.121,0,0,0-1.213-.285c-.774-.014-1.55.037-2.32-.016a1.547,1.547,0,0,0-1.478.6,6.787,6.787,0,0,0-.2,1.151q-.02,8.364-.009,16.729c0,.233-.012.474,0,.71.027.517-.221.739-.728.734-.946-.009-1.893-.006-2.838,0-.514,0-.735-.251-.7-.757.014-.233,0-.473,0-.71V449.927h-1.913c-1.517,0-3.041.009-4.562-.008-.75-.009-.833-.089-.84-.811-.008-.876.033-1.751.052-2.629a2.78,2.78,0,0,0,.768.191c.414-.015.826-.184,1.238-.186,5.077-.014,10.153,0,15.229-.019a2.513,2.513,0,0,1,1.568.414Z" transform="translate(-467.806 -437.612)" fill="#34657f"/>
            <path id="Path_1137" data-name="Path 1137" d="M708.387,480.732c1.451,2.374,3.932,3.012,6.009,1.487a4.064,4.064,0,0,0,1.742-3.384c.012-2.5,0-5.005.007-7.508,0-1.182.089-1.266,1.258-1.284.575-.008,1.151-.022,1.725,0,.923.033,1.05.163,1.059,1.076.008,2.2,0,4.4,0,6.595v7.609c0,1.027-.057,1.076-1.1,1.085-.541,0-1.083.013-1.623,0-.8-.02-.844-.075-.934-.851-.047-.393-.134-.781-.233-1.323-.365.292-.623.492-.874.7-3.6,3-9.552,2.083-10.984-3.466a9.365,9.365,0,0,1-.31-2.189c-.039-2.773-.021-5.546-.019-8.32,0-.233.041-.467.068-.75a9.387,9.387,0,0,1,3.421-.042,4.326,4.326,0,0,1,.1.69c-.027,2.478-.068,4.956-.1,7.435-.009.777,0,1.556,0,2.366Zm11.506-8.074c-.655-.092-.505.362-.505.654q-.013,5.835,0,11.67a3.281,3.281,0,0,0,.093.556c.656.092.5-.362.505-.654q.013-5.835,0-11.67a3.275,3.275,0,0,0-.095-.561Z" transform="translate(-551.922 -454.791)" fill="#34657f"/>
            <path id="Path_1138" data-name="Path 1138" d="M544.39,461.44h-2.175c-.364,0-.7-.081-.711-.532-.015-.9,0-1.809,0-2.821h2.87c.008-.934.022-1.758.023-2.584,0-1.844.042-1.878,1.942-1.95.633-.024,1.265-.1,2.066-.162v4.634c1.271,0,2.377-.007,3.484,0,.934.008.984.062,1,.964.01.54.015,1.083,0,1.623-.026.72-.107.817-.834.829-1.05.022-2.1.008-3.144.015a4.674,4.674,0,0,0-.494.061v2.727c0,1.353-.012,2.705,0,4.058.022,2.021,1.124,2.849,3.115,2.357.934-.233,1.032-.179,1.316.708.186.577.35,1.16.557,1.731a.57.57,0,0,1-.435.845,7.907,7.907,0,0,1-5.542-.042,4.7,4.7,0,0,1-2.85-4.229c-.155-2.289-.131-4.589-.181-6.885C544.383,462.388,544.39,461.987,544.39,461.44Z" transform="translate(-433.366 -442.661)" fill="#34657f"/>
            <path id="Path_1139" data-name="Path 1139" d="M829.321,453.809c1.106-.137,2.166-.281,3.229-.39.447-.045.573.27.574.654v3.968h2.885c.338,0,.677,0,1.014.012a.527.527,0,0,1,.584.557v2.815h-4.364a2.546,2.546,0,0,0-.11.467c-.007,2.233-.029,4.465,0,6.7a2.089,2.089,0,0,0,2.567,2.237c.132-.019.258-.077.389-.1.327-.066.654-.126,1.125-.216l1.05,3.164a7.333,7.333,0,0,1-4.108.721,4.948,4.948,0,0,1-4.908-5.238c-.055-2.095-.02-4.192-.035-6.287,0-.432-.049-.864-.083-1.41-.777,0-1.48-.023-2.181.007a.7.7,0,0,1-.829-.777c-.019-.642-.008-1.284,0-1.927a.638.638,0,0,1,.754-.722c.706.021,1.414,0,2.187,0C829.421,456.672,829.069,455.309,829.321,453.809Z" transform="translate(-640.882 -442.681)" fill="#34657f"/>
            <path id="Path_1140" data-name="Path 1140" d="M655.934,470.683a5.26,5.26,0,0,1,4.634-2.207,5.375,5.375,0,0,1,3.985,1.712l-1.647,3.118a14.006,14.006,0,0,0-1.9-.687c-2.934-.592-5.163.869-5.172,3.995-.008,2.468,0,4.938,0,7.406,0,.391-.054.782-.089,1.252h-3.331a.575.575,0,0,1-.63-.633c0-.2-.013-.406-.013-.608v-13.9c0-1.1.1-1.2,1.221-1.216.507-.009,1.015,0,1.517.016.908.034.907.042,1.136.92C655.709,470.077,655.8,470.295,655.934,470.683Z" transform="translate(-513.765 -453.661)" fill="#34657f"/>
            <path id="Path_1141" data-name="Path 1141" d="M438.868,471.03v-1.222c.27-.523.76-.375,1.2-.4.321-.023.773.169.8-.421h1.547l.441,1.432a13.629,13.629,0,0,1,2.44-1.576,6.179,6.179,0,0,1,5.523.615c.714.421.753.573.4,1.3-.411.845-.859,1.671-1.337,2.6-.343-.17-.6-.3-.861-.427a4.91,4.91,0,0,0-4.208-.028,3.919,3.919,0,0,0-1.709,1.8c-.666.165-.61.7-.61,1.2v7.6a2.3,2.3,0,0,1-.1.889.817.817,0,0,1-.564.444c-.907.034-1.879.233-2.585-.664V471.722C439.236,471.431,439.341,471.076,438.868,471.03Z" transform="translate(-358.537 -453.638)" fill="#34657f"/>
            <path id="Path_1143" data-name="Path 1143" d="M413.246,477.944v-7c0-1.153.026-1.176,1.211-1.182.643,0,1.284.008,1.928,0,.5-.008.757.215.747.727,0,.233.009.474.009.711v13.7c0,.233-.007.474-.013.711-.009.419-.233.606-.644.6-.817,0-1.625.019-2.436,0-.713-.019-.8-.1-.8-.853-.013-1.657,0-3.316,0-4.973Q413.246,479.163,413.246,477.944Z" transform="translate(-339.855 -454.596)" fill="#34657f"/>
            <path id="Path_1158" data-name="Path 1158" d="M416.455,446.967a2.231,2.231,0,0,1-2.217,2.334,2.375,2.375,0,0,1-2.451-2.271,2.259,2.259,0,0,1,2.376-2.32,2.143,2.143,0,0,1,2.292,2.257Z" transform="translate(-338.792 -436.338)" fill="#34657f"/>
            <path id="Path_1160" data-name="Path 1160" d="M438.764,477.993c.467.041.366.4.368.687.006,1.25,0,2.5,0,3.751v8.692c.7.9,1.678.7,2.585.664a.817.817,0,0,0,.564-.443,2.3,2.3,0,0,0,.1-.889c.007-2.535,0-5.068,0-7.6,0-.5-.056-1.035.61-1.2-.07.7-.194,1.4-.2,2.1-.026,2.4-.009,4.793-.009,7.19,0,1.271,0,1.272-1.314,1.274-.641,0-1.284.012-1.924-.01-.7-.025-.808-.117-.817-.85-.019-1.215-.008-2.431,0-3.646Q438.743,482.853,438.764,477.993Z" transform="translate(-358.432 -460.601)" fill="#34657f"/>
            <path id="Path_1161" data-name="Path 1161" d="M607.747,445.752a2.513,2.513,0,0,0-1.578-.418c-5.077.018-10.153,0-15.229.019-.413,0-.824.169-1.238.186a2.779,2.779,0,0,1-.768-.191c.117-.134.222-.326.373-.388a1.673,1.673,0,0,1,.6-.035h16.844C607.654,444.925,607.654,444.938,607.747,445.752Z" transform="translate(-467.952 -436.484)" fill="#34657f"/>
            <path id="Path_1163" data-name="Path 1163" d="M717.783,481.1l-.79-.071c0-.811-.008-1.588,0-2.366.03-2.479.071-4.956.1-7.435a4.325,4.325,0,0,0-.1-.69c.573.085.4.544.406.873.015,2.1-.034,4.192.026,6.287C717.455,478.838,717.656,479.969,717.783,481.1Z" transform="translate(-561.317 -455.168)" fill="#34657f"/>
            <path id="Path_1164" data-name="Path 1164" d="M373.853,484.788a3.773,3.773,0,0,0-2.387-.4c-2.528,0-5.054.007-7.586-.012-.314,0-.791.233-.88-.366,3.384-.01,6.769-.015,10.153-.038C373.752,483.962,373.931,484.245,373.853,484.788Z" transform="translate(-303.223 -464.956)" fill="#34657f"/>
            <path id="Path_1165" data-name="Path 1165" d="M632.271,452.115a1.548,1.548,0,0,1,1.477-.6c.77.054,1.546,0,2.32.016a2.12,2.12,0,0,1,1.213.285c.866.542,1.667-.007,1.686-1.039a5.369,5.369,0,0,1,.021-.906c.028-.144.233-.253.35-.379v2.62Z" transform="translate(-499.549 -439.823)" fill="#34657f"/>
            <path id="Path_1168" data-name="Path 1168" d="M440.781,470.342c-.03.589-.483.4-.8.421-.439.03-.934-.117-1.2.4-.117-.593.1-.889.725-.858C439.929,470.333,440.355,470.333,440.781,470.342Z" transform="translate(-358.45 -454.998)" fill="#34657f"/>
            <path id="Path_1169" data-name="Path 1169" d="M760.988,479.692a3.267,3.267,0,0,1,.093.556q.008,5.835,0,11.67c0,.292.151.746-.505.654a3.274,3.274,0,0,1-.093-.556q-.008-5.835,0-11.67C760.483,480.054,760.333,479.6,760.988,479.692Z" transform="translate(-593.019 -461.83)" fill="#34657f"/>
          </g>
        </g>
      </g>
    </g>
  </g>
</svg>
