<svg xmlns="http://www.w3.org/2000/svg" width="11.605" height="11.605" viewBox="0 0 11.605 11.605"><defs><style>.a{fill:#fff;}</style></defs><path class="a" d="M8.148,0H3.457A3.461,3.461,0,0,0,0,3.457V8.148a3.461,3.461,0,0,0,3.457,3.457H8.148a3.461,3.461,0,0,0,3.457-3.457V3.457A3.461,3.461,0,0,0,8.148,0Zm2.29,8.148a2.29,2.29,0,0,1-2.29,2.29H3.457a2.29,2.29,0,0,1-2.29-2.29V3.457a2.29,2.29,0,0,1,2.29-2.29H8.148a2.29,2.29,0,0,1,2.29,2.29V8.148Z"/><path class="a" d="M7.821,4.819a3,3,0,1,0,3,3,3.005,3.005,0,0,0-3-3Zm0,4.836A1.834,1.834,0,1,1,9.654,7.821,1.834,1.834,0,0,1,7.821,9.655Z" transform="translate(-2.018 -2.018)"/><ellipse class="a" cx="0.719" cy="0.719" rx="0.719" ry="0.719" transform="translate(8.091 2.105)"/></svg>