<svg xmlns="http://www.w3.org/2000/svg" width="169.149" height="41.888" viewBox="0 0 169.149 41.888">
  <g id="Logo_Grid" data-name="Logo Grid" transform="translate(0)">
    <g id="Group_1230" data-name="Group 1230" transform="translate(-142.293 -413.85)">
      <g id="Group_1229" data-name="Group 1229" transform="translate(142.293 413.85)">
        <path id="Path_1131" data-name="Path 1131" d="M153.1,449.2c.05,2.039.016,4.081.023,6.121.007,2.088,0,4.175,0,6.263v6.287c1.277.074,2.506.048,3.853,0V467q0-2.479,0-4.958c0-.951.057-1.009.96-1.01q3.914,0,7.829,0c1.124,0,1.126,0,1.126,1.1q0,7.437,0,14.875v1.079h3a4.048,4.048,0,0,1-.365.577c-.9.907-1.779,1.831-2.711,2.7a5.323,5.323,0,0,1-7.447-.157q-4.907-4.87-9.783-9.772c-1.825-1.824-3.6-3.7-5.483-5.462a5.583,5.583,0,0,1,.032-8.237c2.738-2.588,5.346-5.312,8.013-7.974.232-.232.487-.44.732-.659Z" transform="translate(-142.293 -440.919)" fill="#54575c"/>
        <path id="Path_1132" data-name="Path 1132" d="M214.968,433.9l.33,0c.009.331.129.5.484.336a1.229,1.229,0,0,0,.744-1.326c-.032-.412-.02-.827-.057-1.238-.005-.058-.177-.1-.272-.151a3.522,3.522,0,0,0-.047-.738,1.944,1.944,0,0,0-.321-.5c-.19-.419-.419-.645-.9-.316a1.347,1.347,0,0,1-.721.157q-8.588.013-17.177,0a6.03,6.03,0,0,1-.64-.065,10.482,10.482,0,0,1-.118-3.831.492.492,0,0,0-.425-.631l.006-.343a1.887,1.887,0,0,1,1.261-.36c2.866.022,5.733.015,8.6,0a5,5,0,0,0,.889-.163,9.264,9.264,0,0,0,.157-1.095c.024-.832.007-1.665.007-2.638H192.879a5.232,5.232,0,0,1,.433-.64c1.614-1.626,3.245-3.235,4.85-4.87a5.305,5.305,0,0,1,3.719-1.646,4.981,4.981,0,0,1,3.719,1.408q2.516,2.465,5,4.961,3.078,3.071,6.146,6.151c1.577,1.579,3.183,3.13,4.724,4.743a5.319,5.319,0,0,1-.066,7.448c-3.533,3.561-7.092,7.1-10.642,10.64a.682.682,0,0,1-.147.087c-.618-.157-.535-.659-.535-1.109q0-6.257,0-12.515c0-.422-.05-.843-.083-1.363h.994c1.188,0,2.375,0,3.563.012C214.863,434.319,214.968,434.176,214.968,433.9Z" transform="translate(-181.137 -413.85)" fill="#386884"/>
        <path id="Path_1133" data-name="Path 1133" d="M357.909,454.742c.025.635.073,1.269.07,1.9,0,.666-.072.725-.772.727-2.638.006-5.276,0-7.914,0-.37,0-.74.031-1.188.051-.023.369-.056.677-.058.985-.008,1.8-.006,3.594-.011,5.392,0,.971-.062,1.029-1.035,1.035q-.87.005-1.739,0c-.956,0-.993-.039-1-.962,0-.87,0-1.739,0-2.609q0-7.609,0-15.218c0-1.039.026-1.059,1.082-1.059q6.087,0,12.175,0c.953,0,1,.046,1,.961,0,.638-.018,1.276.007,1.913.02.491-.217.687-.669.7-.174,0-.348,0-.522,0q-4.087,0-8.174,0c-.341,0-.681.031-1.07.05-.026.313-.065.566-.065.819,0,1.333.02,2.667,0,4,0,.425.114.664.57.644.077.516.485.312.754.314,2.166.016,4.331.008,6.5.01A3.233,3.233,0,0,1,357.909,454.742Z" transform="translate(-297.381 -437.762)" fill="#3a6882"/>
        <path id="Path_1134" data-name="Path 1134" d="M780.921,472.454c-.325-.19-.456-.251-.569-.336-1.3-.967-2.8-.847-4.263-.7a1.893,1.893,0,0,0-1.123.711,1.1,1.1,0,0,0,.523,1.664,6.251,6.251,0,0,0,1.5.377c1.105.2,2.241.275,3.319.568a3.807,3.807,0,0,1,3.028,3.4,4.242,4.242,0,0,1-2.41,4.35,6.214,6.214,0,0,1-2.916.73,12.271,12.271,0,0,1-3.7-.338,7.4,7.4,0,0,1-3.339-2.13l1.617-2.285a8.543,8.543,0,0,0,3.518,1.662,4.217,4.217,0,0,0,3.039-.259,1.4,1.4,0,0,0,.792-1.426,1.165,1.165,0,0,0-1.022-1.042,15.657,15.657,0,0,0-1.879-.292,9.335,9.335,0,0,1-3.719-1.049,3.8,3.8,0,0,1-.054-6.546,8.3,8.3,0,0,1,5.181-1.023A7.115,7.115,0,0,1,782,469.746c.581.423.611.549.179,1.1-.268.342-.57.656-.843.994C781.193,472.021,781.075,472.226,780.921,472.454Z" transform="translate(-625.039 -455.76)" fill="#3b6982"/>
        <path id="Path_1135" data-name="Path 1135" d="M488.109,478.455a8.641,8.641,0,0,0,3.51,1.66,4.632,4.632,0,0,0,2.651-.077,2.284,2.284,0,0,0,.852-.567,1.2,1.2,0,0,0-.522-2.023,6.688,6.688,0,0,0-1.771-.341,9.862,9.862,0,0,1-3.363-.744,3.981,3.981,0,0,1-2.164-1.919,3.884,3.884,0,0,1,1.1-4.691,7.067,7.067,0,0,1,3.546-1.28,8.18,8.18,0,0,1,5.258,1.059c.311.19.584.442.962.733l-1.719,2.032c-.187-.013-.261,0-.3-.024a5.824,5.824,0,0,0-4.308-.922c-.941.059-1.5.544-1.531,1.234a1.151,1.151,0,0,0,.926,1.3c.832.215,1.708.257,2.554.424a17.752,17.752,0,0,1,2.6.625c3.02,1.088,3.232,5.166.933,6.973a5.881,5.881,0,0,1-3.611,1.292,9.816,9.816,0,0,1-4.6-.6,18.307,18.307,0,0,1-2.122-1.333.638.638,0,0,1-.167-1.035C487.255,479.656,487.663,479.071,488.109,478.455Z" transform="translate(-406.7 -455.748)" fill="#3b6982"/>
        <path id="Path_1136" data-name="Path 1136" d="M604.9,446.82q0,.173,0,.346c-.106.107-.28.2-.3.325a4.6,4.6,0,0,0-.018.776c-.018.884-.7,1.354-1.445.89a1.817,1.817,0,0,0-1.039-.244c-.663-.012-1.328.032-1.988-.014a1.326,1.326,0,0,0-1.266.513,5.815,5.815,0,0,0-.169.986q-.017,7.167-.008,14.335c0,.2-.01.406,0,.608.023.443-.189.633-.624.629-.811-.008-1.622-.005-2.432,0-.44,0-.63-.215-.6-.649.012-.2,0-.405,0-.608q0-7.038,0-14.075v-1.207h-1.639c-1.3,0-2.606.008-3.909-.007-.643-.008-.714-.076-.72-.695-.007-.751.028-1.5.045-2.253a2.383,2.383,0,0,0,.658.164c.355-.013.708-.158,1.061-.159,4.35-.012,8.7,0,13.049-.016A2.153,2.153,0,0,1,604.9,446.82Z" transform="translate(-485.104 -438.892)" fill="#376781"/>
        <path id="Path_1137" data-name="Path 1137" d="M707.774,479.2c1.243,2.034,3.369,2.581,5.149,1.274a3.482,3.482,0,0,0,1.493-2.9c.01-2.144,0-4.289.006-6.433,0-1.013.076-1.085,1.078-1.1.493-.007.986-.019,1.478,0,.791.028.9.14.907.922.007,1.883,0,3.767,0,5.651q0,3.26,0,6.52c0,.88-.049.922-.943.93-.464,0-.928.011-1.391,0-.688-.017-.723-.064-.8-.729-.04-.337-.115-.669-.2-1.134-.313.25-.534.422-.749.6-3.082,2.568-8.185,1.785-9.412-2.97a8.026,8.026,0,0,1-.266-1.876c-.033-2.376-.018-4.752-.016-7.129,0-.2.035-.4.058-.643a8.043,8.043,0,0,1,2.931-.036,3.7,3.7,0,0,1,.087.591c-.023,2.123-.058,4.247-.085,6.371-.008.666,0,1.333,0,2.027Zm9.859-6.918c-.561-.079-.433.31-.433.56q-.011,5,0,10a2.807,2.807,0,0,0,.08.476c.562.079.432-.31.433-.56q.011-5,0-10A2.807,2.807,0,0,0,717.632,472.277Z" transform="translate(-573.692 -456.986)" fill="#3a6882"/>
        <path id="Path_1138" data-name="Path 1138" d="M543.976,460.288c-.713,0-1.288,0-1.864,0-.312,0-.6-.069-.609-.456-.013-.775,0-1.55,0-2.417h2.459c.007-.8.019-1.506.02-2.214,0-1.58.036-1.609,1.664-1.671.542-.021,1.084-.084,1.77-.139v3.971c1.089,0,2.037-.006,2.985,0,.8.007.843.053.858.826.009.463.013.928,0,1.391-.022.617-.092.7-.715.71-.9.019-1.8.007-2.694.013-.111,0-.221.026-.423.052v2.337c0,1.159-.01,2.318,0,3.477.019,1.732.963,2.441,2.669,2.02.8-.2.884-.153,1.128.607.159.494.3.994.477,1.483a.488.488,0,0,1-.373.724,6.775,6.775,0,0,1-4.749-.036,4.031,4.031,0,0,1-2.442-3.624c-.133-1.961-.112-3.932-.155-5.9C543.97,461.1,543.976,460.757,543.976,460.288Z" transform="translate(-448.831 -444.211)" fill="#3b6982"/>
        <path id="Path_1139" data-name="Path 1139" d="M828.862,453.753c.948-.117,1.856-.241,2.767-.334.383-.039.491.231.492.56q0,1.13,0,2.26c0,.343,0,.686,0,1.14.87,0,1.671,0,2.472,0,.29,0,.58,0,.869.01s.5.15.5.477c0,.774,0,1.548,0,2.412h-3.739a2.177,2.177,0,0,0-.094.4c-.006,1.913-.025,3.826,0,5.738a1.79,1.79,0,0,0,2.2,1.917c.113-.016.221-.066.333-.089.28-.057.56-.108.964-.185l.9,2.711a6.283,6.283,0,0,1-3.52.618A4.24,4.24,0,0,1,828.8,466.9c-.047-1.795-.017-3.592-.03-5.387,0-.37-.042-.74-.071-1.208-.666,0-1.268-.02-1.869.006a.6.6,0,0,1-.71-.666c-.016-.55-.007-1.1,0-1.651a.547.547,0,0,1,.646-.619c.605.018,1.212,0,1.874,0C828.947,456.206,828.646,455.038,828.862,453.753Z" transform="translate(-667.382 -444.231)" fill="#3a6882"/>
        <path id="Path_1140" data-name="Path 1140" d="M655.338,470.366a4.507,4.507,0,0,1,3.971-1.891,4.606,4.606,0,0,1,3.415,1.467l-1.411,2.672a12,12,0,0,0-1.629-.589c-2.514-.507-4.424.745-4.432,3.423-.007,2.115,0,4.231,0,6.346,0,.335-.046.67-.076,1.073-1.01,0-1.932,0-2.854,0a.493.493,0,0,1-.54-.542c0-.174-.011-.348-.011-.521q0-5.955,0-11.91c0-.943.085-1.024,1.046-1.042.434-.008.87,0,1.3.014.778.029.777.036.973.788C655.145,469.846,655.224,470.033,655.338,470.366Z" transform="translate(-533.506 -455.794)" fill="#3a6880"/>
        <path id="Path_1141" data-name="Path 1141" d="M438.868,470.661l0-1.047c.231-.448.651-.321,1.027-.347.275-.02.662.145.689-.361h1.326l.378,1.227a11.676,11.676,0,0,1,2.091-1.35,5.294,5.294,0,0,1,4.732.527c.612.361.645.491.343,1.114-.352.724-.736,1.432-1.146,2.225-.294-.146-.515-.258-.738-.366a4.207,4.207,0,0,0-3.606-.024A3.359,3.359,0,0,0,442.5,473.8c-.571.141-.523.6-.523,1.028,0,2.172,0,4.343,0,6.515a1.97,1.97,0,0,1-.085.762.7.7,0,0,1-.483.38c-.777.029-1.61.2-2.215-.569v-7.448c0-1.071,0-2.143,0-3.214C439.183,471.005,439.273,470.7,438.868,470.661Z" transform="translate(-370.023 -455.772)" fill="#386882"/>
        <path id="Path_1142" data-name="Path 1142" d="M353.837,544.678a6.057,6.057,0,0,1-.635.093c-.686.016-.831-.085-.945-.737-.193-1.11-.358-2.225-.546-3.337-.057-.335-.152-.663-.267-1.156a4.046,4.046,0,0,0-.34.583c-.439,1.285-.863,2.576-1.3,3.862-.131.387-.266.761-.79.795-.677.045-.922-.1-1.15-.77-.4-1.177-.793-2.356-1.2-3.532a2.144,2.144,0,0,0-.5-.87q-.271,1.482-.542,2.964c-.1.568-.188,1.141-.328,1.7-.118.469-.5.607-1.112.493-.514-.1-.425-.422-.36-.792.426-2.418.848-4.836,1.243-7.259.069-.422.153-.713.648-.746.663-.045,1.047.091,1.22.567.286.786.533,1.587.8,2.38.339,1.011.681,2.021,1.092,3.238l1.434-4.234c.158-.466.291-.941.478-1.395.2-.49.554-.606,1.226-.534.477.051.579.32.648.751.365,2.252.777,4.5,1.157,6.746A11.063,11.063,0,0,1,353.837,544.678Z" transform="translate(-297.004 -507.614)" fill="#595b5e"/>
        <path id="Path_1143" data-name="Path 1143" d="M413.245,476.773q0-3,0-6c0-.988.022-1.008,1.038-1.013.551,0,1.1.007,1.652,0,.432-.007.649.184.64.623,0,.2.008.406.008.609q0,5.87,0,11.74c0,.2-.006.406-.011.609-.008.359-.2.519-.552.517-.7,0-1.392.016-2.087,0-.611-.016-.682-.088-.687-.731-.011-1.42,0-2.841,0-4.261Q413.245,477.817,413.245,476.773Z" transform="translate(-350.347 -456.78)" fill="#386880"/>
        <path id="Path_1144" data-name="Path 1144" d="M550.6,546.152c.06-.485.357-.662.821-.655.623.01.781.114.785.749.012,1.708.02,3.417-.02,5.125a4.491,4.491,0,0,1-.3,1.517A2.482,2.482,0,0,1,549.7,554.5a10.486,10.486,0,0,1-1.735,0,2.526,2.526,0,0,1-2.231-1.781,2.672,2.672,0,0,1,1.833.058,4.057,4.057,0,0,0,1.589.3c.976-.045,1.3-.441,1.425-1.558a6.693,6.693,0,0,1-1.766.5,3.419,3.419,0,0,1-1.787-.5,3.567,3.567,0,0,1-1.2-1.422,3.466,3.466,0,0,1,.747-3.912C547.644,545.2,548.714,545.188,550.6,546.152Zm.1,2.565a1.757,1.757,0,0,0-1.852-1.835,1.849,1.849,0,0,0-1.8,1.849,1.911,1.911,0,0,0,1.856,1.9A1.762,1.762,0,0,0,550.694,548.718Z" transform="translate(-451.918 -514.894)" fill="#5b5c60"/>
        <path id="Path_1145" data-name="Path 1145" d="M474.932,546.126c.1-.572.507-.592.926-.58.581.016.733.137.737.71.013,1.8.056,3.6-.013,5.391a2.793,2.793,0,0,1-3.074,2.914,6.652,6.652,0,0,1-1.387-.048,2.81,2.81,0,0,1-2.094-1.74,2.339,2.339,0,0,1,1.858.049,2.729,2.729,0,0,0,2.185.2c.713-.236.941-.646.85-1.561a3.167,3.167,0,0,1-2.973.415,3.347,3.347,0,0,1-1.552-1.331,3.54,3.54,0,0,1,.379-4.116C471.809,545.3,472.991,545.191,474.932,546.126Zm-3.38,2.658a1.759,1.759,0,1,0,3.511.006,1.721,1.721,0,0,0-1.714-1.871A1.689,1.689,0,0,0,471.552,548.784Z" transform="translate(-393.858 -514.937)" fill="#595b5e"/>
        <path id="Path_1146" data-name="Path 1146" d="M643.783,540.044c.153.116.241.192.337.255a2.312,2.312,0,0,1,.951,2.753,2.411,2.411,0,0,1-2.244,1.778c-.833.083-1.681.026-2.522.031-.541,0-.573-.361-.572-.771.005-1.857,0-3.713,0-5.57v-2.306a3.753,3.753,0,0,1,.72-.136,16.907,16.907,0,0,1,2.169.113,2.107,2.107,0,0,1,1.514,3.332C644.035,539.66,643.945,539.806,643.783,540.044Zm-2.428,3.293c.5-.047.943-.073,1.386-.136a.859.859,0,0,0,.837-.921,1.035,1.035,0,0,0-.824-1.157,10.2,10.2,0,0,0-1.4-.13Zm-.01-5.7c-.015.31-.034.591-.04.872-.007.308,0,.617,0,.981.634-.025,1.192.149,1.565-.449a.8.8,0,0,0-.015-.965A1.381,1.381,0,0,0,641.346,537.636Z" transform="translate(-524.264 -507.707)" fill="#59595e"/>
        <path id="Path_1147" data-name="Path 1147" d="M676.218,546.121c.291-.887.942-.612,1.6-.593.028.343.073.652.075.962.007,1.509.012,3.018-.006,4.526,0,.348.147.789-.331.981a1.187,1.187,0,0,1-1.363-.472c-.146.074-.3.141-.447.23-2.107,1.307-4.316-.57-4.511-2.515a3.554,3.554,0,0,1,.9-2.89A2.943,2.943,0,0,1,676.218,546.121Zm-1.649,4.539c.987.148,1.832-.644,1.848-1.92a1.783,1.783,0,0,0-1.816-1.906,1.829,1.829,0,0,0-1.812,1.92A1.748,1.748,0,0,0,674.568,550.661Z" transform="translate(-548.436 -514.875)" fill="#585b5f"/>
        <path id="Path_1148" data-name="Path 1148" d="M748.088,540.688l2.762,3.092a1.605,1.605,0,0,1-2.09-.2c-.477-.505-.924-1.039-1.4-1.549-.226-.243-.483-.458-.725-.685l-.213.071c0,.588.012,1.177,0,1.764-.021.782-.153.895-.939.865-.639-.025-.743-.117-.749-.78-.011-1.362,0-2.724,0-4.086,0-1.043,0-2.087,0-3.13,0-.976.052-1.036.818-1.039.807,0,.878.082.876,1.092,0,.985-.008,1.971-.012,2.956,0,.3,0,.609,0,1.124a24.593,24.593,0,0,0,1.721-1.874,2.051,2.051,0,0,1,2.437-.7C749.89,538.787,748.8,539.555,748.088,540.688Z" transform="translate(-604.887 -506.889)" fill="#5c5e62"/>
        <path id="Path_1149" data-name="Path 1149" d="M512.584,551.513c-.128.06-.26.118-.389.182a2.972,2.972,0,0,1-4.4-1.857,3.465,3.465,0,0,1,1.914-4.312,3.25,3.25,0,0,1,2.913.524.761.761,0,0,1,.87-.605c.648.005.769.086.774.737q.018,2.39,0,4.781c0,.353.147.783-.326.986A1.226,1.226,0,0,1,512.584,551.513Zm-1.608-.892a1.7,1.7,0,0,0,1.851-1.819,1.829,1.829,0,0,0-1.817-2,1.782,1.782,0,0,0-1.791,1.912A1.726,1.726,0,0,0,510.976,550.622Z" transform="translate(-422.815 -514.839)" fill="#595b5e"/>
        <path id="Path_1150" data-name="Path 1150" d="M584.832,549.121a1.8,1.8,0,0,0,2.786,1.284c.721-.4,1.176-.191,1.792.348a5.716,5.716,0,0,1-.9.805,3.446,3.446,0,0,1-4.983-1.515,3.389,3.389,0,1,1,6.264-2.576,2.029,2.029,0,0,1,.119.5c.113,1.062.033,1.151-1.02,1.153C587.556,549.123,586.225,549.121,584.832,549.121Zm3.566-1.3a1.873,1.873,0,0,0-2.372-1.126,1.153,1.153,0,0,0-.967,1.126Z" transform="translate(-480.872 -514.73)" fill="#595b5e"/>
        <path id="Path_1151" data-name="Path 1151" d="M798.533,541.138c0,.944,0,1.809,0,2.673,0,.981-.064,1.039-1.019,1.016-.142,0-.283-.023-.511-.042a9.4,9.4,0,0,1-.111-1.009q-.018-3.428-.01-6.855c0-.79.1-.891.917-.883.779.008,1.559.064,2.337.11a1.367,1.367,0,0,1,.41.112A2.438,2.438,0,0,1,802,539.174a2.4,2.4,0,0,1-2.149,1.843C799.431,541.058,799.007,541.094,798.533,541.138Zm.028-1.656c.643-.142,1.358.283,1.769-.408a1.115,1.115,0,0,0-.03-1.022,1.639,1.639,0,0,0-1.74-.386Z" transform="translate(-644.932 -507.674)" fill="#57595e"/>
        <path id="Path_1152" data-name="Path 1152" d="M397.869,545.412a3.427,3.427,0,0,1,3.4,3.339,3.4,3.4,0,1,1-6.8.052A3.385,3.385,0,0,1,397.869,545.412Zm-.053,5.236c1.224.037,1.79-.772,1.835-1.945a1.8,1.8,0,1,0-3.6.049A1.685,1.685,0,0,0,397.815,550.648Z" transform="translate(-335.926 -514.863)" fill="#585b5f"/>
        <path id="Path_1153" data-name="Path 1153" d="M711.732,552.077c-.256.022-.426.051-.6.049-.76-.007-.849-.082-.855-.845-.013-1.621-.008-3.243-.008-4.864,0-.352-.019-.7.454-.809a.871.871,0,0,1,1.14.463,11.15,11.15,0,0,1,2.046-.526,1.944,1.944,0,0,1,2.077,1.89c.066,1.358.019,2.721.027,4.081,0,.519-.32.615-.744.618-.618,0-.8-.1-.818-.623-.028-.868,0-1.737-.018-2.605-.009-.371-.094-.74-.139-1.11a.9.9,0,0,0-.772-.824,1.029,1.029,0,0,0-1.211.464,4.559,4.559,0,0,0-.46,1.547c-.076.745-.01,1.5-.024,2.256A8.236,8.236,0,0,1,711.732,552.077Z" transform="translate(-578.43 -514.972)" fill="#575b5e"/>
        <path id="Path_1154" data-name="Path 1154" d="M849.381,546.683c-.762.75-.875.77-1.8.341a2.337,2.337,0,0,0-2.451.309,1.967,1.967,0,0,0-.47,2.157,2.082,2.082,0,0,0,3.026.866.89.89,0,0,1,1.171.022c.455.385.479.576.031.961a3.36,3.36,0,0,1-2.335.8,3.4,3.4,0,0,1-.616-6.765,3.542,3.542,0,0,1,3.2.972A3.421,3.421,0,0,1,849.381,546.683Z" transform="translate(-680.269 -514.816)" fill="#5a5b60"/>
        <path id="Path_1155" data-name="Path 1155" d="M452.117,535.795c.035.676.071,1.384.11,2.132l.727.166c.261,1.092.243,1.129-.77,1.516v2.749c0,.464.012.929,0,1.392-.022.716-.156.83-.9.821-.669-.008-.792-.121-.8-.83-.01-1.363,0-2.725,0-4.163a.873.873,0,0,1-.753-1.014c.045-.492.407-.5.753-.656,0-.474-.009-.965,0-1.455.016-.69.07-.74.744-.76.174-.005.348-.005.522.006A2.668,2.668,0,0,1,452.117,535.795Z" transform="translate(-378.356 -507.408)" fill="#5b5c60"/>
        <path id="Path_1156" data-name="Path 1156" d="M829.552,539.641c0,1.214.009,2.428,0,3.643-.007.667-.12.768-.745.776-.659.009-.81-.12-.812-.8q-.013-3.729,0-7.459c0-.68.1-.758.745-.763.694-.006.807.091.814.791.011,1.272,0,2.544,0,3.816Z" transform="translate(-668.818 -506.903)" fill="#56595c"/>
        <path id="Path_1157" data-name="Path 1157" d="M432.267,545.968c.5-.383,1.019-.766,1.7-.4-.055.947-.13,1.032-.914,1.284-.6.194-.7.718-.714,1.251-.02,1.013,0,2.026-.014,3.039-.008.792-.139.913-.9.9-.669-.016-.8-.129-.8-.832-.011-1.592-.007-3.184,0-4.776,0-.333-.1-.761.345-.885a.889.889,0,0,1,1.146.332C432.138,545.916,432.2,545.931,432.267,545.968Z" transform="translate(-363.688 -514.879)" fill="#5c5e62"/>
        <path id="Path_1158" data-name="Path 1158" d="M415.787,446.643a1.912,1.912,0,0,1-1.9,2,2.035,2.035,0,0,1-2.1-1.946,1.936,1.936,0,0,1,2.036-1.988A1.836,1.836,0,0,1,415.787,446.643Z" transform="translate(-349.228 -437.549)" fill="#3d6a80"/>
        <path id="Path_1159" data-name="Path 1159" d="M270.172,500.054c0,.276-.105.419-.414.415-1.188-.014-2.375-.01-3.563-.012H265.2c.033.52.082.941.083,1.363q.008,6.257,0,12.515c0,.45-.083.952.535,1.109l-.8.844-.178-.068c-.023-.3-.065-.606-.065-.909,0-4.834,0-9.667-.014-14.5,0-.491.1-.81.635-.808C266.994,500.01,268.583,500.035,270.172,500.054Z" transform="translate(-236.34 -480.004)" fill="#4c6d79"/>
        <path id="Path_1160" data-name="Path 1160" d="M438.757,477.993c.4.035.314.344.315.589.005,1.071,0,2.143,0,3.214v7.448c.6.77,1.438.6,2.215.569a.7.7,0,0,0,.483-.38,1.969,1.969,0,0,0,.085-.762c.006-2.172,0-4.343,0-6.515,0-.43-.048-.887.523-1.028-.06.6-.166,1.2-.172,1.8-.022,2.054-.008,4.107-.008,6.161,0,1.089,0,1.09-1.126,1.092-.549,0-1.1.01-1.649-.009-.6-.021-.692-.1-.7-.728-.016-1.041-.007-2.083,0-3.124Q438.739,482.157,438.757,477.993Z" transform="translate(-369.911 -463.104)" fill="#456777"/>
        <path id="Path_1161" data-name="Path 1161" d="M605.054,445.632a2.153,2.153,0,0,0-1.352-.358c-4.35.015-8.7,0-13.049.016-.354,0-.706.145-1.061.159a2.382,2.382,0,0,1-.658-.164c.1-.115.19-.279.32-.332a1.434,1.434,0,0,1,.516-.03q7.216,0,14.433,0C604.975,444.923,604.975,444.934,605.054,445.632Z" transform="translate(-485.257 -437.704)" fill="#426576"/>
        <path id="Path_1162" data-name="Path 1162" d="M205.547,464.487a.492.492,0,0,1,.425.631,10.482,10.482,0,0,0,.118,3.831,6.03,6.03,0,0,0,.64.065q8.588.005,17.177,0a1.347,1.347,0,0,0,.721-.157c.483-.329.713-.1.9.316-2.258.009-4.517.025-6.776.026q-6.126,0-12.252-.005c-.952,0-.991-.035-.989-.968C205.515,466.977,205.535,465.732,205.547,464.487Z" transform="translate(-190.838 -452.733)" fill="#486673"/>
        <path id="Path_1163" data-name="Path 1163" d="M717.669,479.592l-.677-.061c0-.695-.007-1.361,0-2.027.026-2.124.061-4.247.085-6.371a3.7,3.7,0,0,0-.087-.591c.491.073.345.466.348.748.013,1.8-.029,3.592.022,5.387C717.388,477.651,717.561,478.62,717.669,479.592Z" transform="translate(-583.587 -457.382)" fill="#456777"/>
        <path id="Path_1164" data-name="Path 1164" d="M372.3,484.67a3.233,3.233,0,0,0-2.045-.347c-2.166,0-4.331.006-6.5-.01-.269,0-.678.2-.754-.314,2.9-.009,5.8-.013,8.7-.033C372.213,483.963,372.367,484.205,372.3,484.67Z" transform="translate(-311.768 -467.691)" fill="#426576"/>
        <path id="Path_1165" data-name="Path 1165" d="M632.271,451.74a1.326,1.326,0,0,1,1.266-.513c.66.046,1.325,0,1.988.014a1.817,1.817,0,0,1,1.039.244c.742.464,1.428-.006,1.445-.89a4.609,4.609,0,0,1,.018-.776c.024-.123.2-.217.3-.325v2.245Z" transform="translate(-518.534 -441.221)" fill="#426576"/>
        <path id="Path_1166" data-name="Path 1166" d="M216.436,460.7a5,5,0,0,1-.889.163c-2.866.013-5.733.019-8.6,0a1.887,1.887,0,0,0-1.261.36,1.745,1.745,0,0,1,.354-.491c.122-.083.336-.036.509-.035Q211.492,460.7,216.436,460.7Z" transform="translate(-190.971 -449.811)" fill="#486673"/>
        <path id="Path_1167" data-name="Path 1167" d="M290.36,489.995c.095.05.267.093.272.151.037.411.025.827.057,1.238a1.229,1.229,0,0,1-.744,1.326c-.355.167-.474,0-.484-.336l.821-.168C290.309,491.466,290.335,490.731,290.36,489.995Z" transform="translate(-255.3 -472.32)" fill="#4c6d79"/>
        <path id="Path_1168" data-name="Path 1168" d="M440.49,470.337c-.026.505-.414.341-.689.361-.376.026-.8-.1-1.027.347-.1-.508.084-.762.621-.735C439.76,470.329,440.125,470.329,440.49,470.337Z" transform="translate(-369.932 -457.203)" fill="#456777"/>
        <path id="Path_1169" data-name="Path 1169" d="M760.914,479.69a2.8,2.8,0,0,1,.08.476q.007,5,0,10c0,.25.129.639-.433.56a2.807,2.807,0,0,1-.08-.476q-.007-5,0-10C760.481,480,760.352,479.611,760.914,479.69Z" transform="translate(-616.974 -464.399)" fill="#2e6d77"/>
      </g>
    </g>
  </g>
</svg>
