<svg xmlns="http://www.w3.org/2000/svg" width="40.347" height="44.308" viewBox="0 0 40.347 44.308"><defs><style>.a{fill:#fff;stroke:#fff;stroke-width:0.3px;}</style></defs><g transform="translate(-55.96 -36.222)"><g transform="translate(56.11 36.38)"><g transform="translate(0 0)"><g transform="translate(18.054 15.828)"><path class="a" d="M255.432,200.926H236.741a.4.4,0,0,1-.4-.4v-1.959a.4.4,0,1,1,.8,0v1.558h17.89v-4.934H236.741a.4.4,0,0,1,0-.8h18.691a.4.4,0,0,1,.4.4v5.736a.4.4,0,0,1-.4.4Zm-18.691-3.963a.4.4,0,1,1,.4-.4A.4.4,0,0,1,236.741,196.963Z" transform="translate(-236.34 -194.39)"/></g><g transform="translate(18.321 27.283)"><path class="a" d="M242.562,312.7H239.4a.4.4,0,0,1-.4-.4v-3.162a.4.4,0,0,1,.4-.4h3.161a.4.4,0,0,1,.4.4V312.3a.4.4,0,0,1-.4.4Zm-2.761-.8h2.36v-2.361H239.8Z" transform="translate(-239 -308.74)"/></g><g transform="translate(23.321 27.283)"><path class="a" d="M292.484,312.7h-3.163a.4.4,0,0,1-.4-.4v-3.162a.4.4,0,0,1,.4-.4h3.163a.4.4,0,0,1,.4.4V312.3a.4.4,0,0,1-.4.4Zm-2.763-.8h2.362v-2.361h-2.362Z" transform="translate(-288.92 -308.74)"/></g><g transform="translate(28.324 27.283)"><path class="a" d="M342.421,312.7H339.26a.4.4,0,0,1-.4-.4v-3.162a.4.4,0,0,1,.4-.4h3.162a.4.4,0,0,1,.4.4V312.3a.4.4,0,0,1-.4.4Zm-2.761-.8h2.36v-2.361h-2.36Z" transform="translate(-338.859 -308.74)"/></g><g transform="translate(33.321 27.283)"><path class="a" d="M392.3,312.7h-3.163a.4.4,0,0,1-.4-.4v-3.162a.4.4,0,0,1,.4-.4H392.3a.4.4,0,0,1,.4.4V312.3a.4.4,0,0,1-.4.4Zm-2.763-.8H391.9v-2.361h-2.362Z" transform="translate(-388.74 -308.74)"/></g><g transform="translate(18.321 31.793)"><path class="a" d="M242.562,357.722H239.4a.4.4,0,0,1-.4-.4V354.16a.4.4,0,0,1,.4-.4h3.161a.4.4,0,0,1,.4.4v3.161a.4.4,0,0,1-.4.4Zm-2.761-.8h2.36v-2.36H239.8Z" transform="translate(-239 -353.759)"/></g><g transform="translate(23.321 31.793)"><path class="a" d="M292.484,357.722h-3.163a.4.4,0,0,1-.4-.4V354.16a.4.4,0,0,1,.4-.4h3.163a.4.4,0,0,1,.283.117.4.4,0,0,1,.117.284v3.161a.4.4,0,0,1-.4.4Zm-2.763-.8h2.362v-2.36h-2.362Z" transform="translate(-288.92 -353.759)"/></g><g transform="translate(28.324 31.793)"><path class="a" d="M342.421,357.722H339.26a.4.4,0,0,1-.4-.4V354.16a.4.4,0,0,1,.4-.4h3.162a.4.4,0,0,1,.4.4v3.161a.4.4,0,0,1-.117.284A.4.4,0,0,1,342.421,357.722Zm-2.761-.8h2.36v-2.36h-2.36Z" transform="translate(-338.859 -353.759)"/></g><g transform="translate(33.321 31.793)"><path class="a" d="M392.3,362.241h-3.163a.4.4,0,0,1-.4-.4v-7.679a.4.4,0,0,1,.4-.4H392.3a.4.4,0,0,1,.4.4v7.679a.4.4,0,0,1-.117.283A.4.4,0,0,1,392.3,362.241Zm-2.763-.8H391.9v-6.878h-2.362Z" transform="translate(-388.74 -353.76)"/></g><g transform="translate(18.321 36.311)"><path class="a" d="M242.562,402.822H239.4a.4.4,0,0,1-.4-.4V399.26a.4.4,0,0,1,.4-.4h3.161a.4.4,0,0,1,.4.4v3.162a.4.4,0,0,1-.4.4Zm-2.761-.8h2.36v-2.36H239.8Z" transform="translate(-239 -398.859)"/></g><g transform="translate(23.321 36.311)"><path class="a" d="M292.484,402.822h-3.163a.4.4,0,0,1-.4-.4V399.26a.4.4,0,0,1,.117-.283.407.407,0,0,1,.283-.117h3.163a.4.4,0,0,1,.4.4v3.162a.4.4,0,0,1-.4.4Zm-2.763-.8h2.362v-2.36h-2.362Z" transform="translate(-288.92 -398.859)"/></g><g transform="translate(28.324 36.311)"><path class="a" d="M342.421,402.822H339.26a.4.4,0,0,1-.4-.4V399.26a.4.4,0,0,1,.4-.4h3.162a.4.4,0,0,1,.4.4v3.162a.4.4,0,0,1-.4.4Zm-2.761-.8h2.36v-2.36h-2.36Z" transform="translate(-338.859 -398.859)"/></g><g transform="translate(18.321 24.081)"><path class="a" d="M242.562,279.031H239.4a.4.4,0,0,1-.4-.4v-1.46a.4.4,0,0,1,.4-.4h3.161a.4.4,0,0,1,.4.4v1.46a.4.4,0,0,1-.4.4Zm-2.761-1.46v.658h2.36v-.658Z" transform="translate(-239 -276.77)"/></g><g transform="translate(23.321 24.081)"><path class="a" d="M292.484,279.031h-3.163a.4.4,0,0,1-.4-.4v-1.46a.4.4,0,0,1,.4-.4h3.163a.4.4,0,0,1,.4.4v1.46a.4.4,0,0,1-.4.4Zm-2.763-.8h2.362v-.658h-2.362Z" transform="translate(-288.92 -276.77)"/></g><g transform="translate(28.324 24.081)"><path class="a" d="M342.421,279.031H339.26a.4.4,0,0,1-.4-.4v-1.46a.4.4,0,0,1,.4-.4h3.162a.4.4,0,0,1,.4.4v1.46a.4.4,0,0,1-.4.4Zm-2.761-.8h2.36v-.658h-2.36Z" transform="translate(-338.859 -276.77)"/></g><g transform="translate(33.321 24.081)"><path class="a" d="M392.3,279.031h-3.163a.4.4,0,0,1-.4-.4v-1.46a.4.4,0,0,1,.4-.4H392.3a.4.4,0,0,1,.4.4v1.46a.4.4,0,0,1-.4.4Zm-2.763-.8H391.9v-.658h-2.362Z" transform="translate(-388.74 -276.77)"/></g><g transform="translate(35.05 17.722)"><path class="a" d="M406.4,215.778a.4.4,0,0,1-.4-.4v-1.687a.4.4,0,1,1,.8,0v1.687a.4.4,0,0,1-.4.4Z" transform="translate(-406 -213.29)"/></g><g transform="translate(33.046 17.722)"><path class="a" d="M386.4,215.778a.4.4,0,0,1-.4-.4v-1.687a.4.4,0,0,1,.8,0v1.687a.4.4,0,0,1-.4.4Z" transform="translate(-386 -213.29)"/></g><g transform="translate(31.043 17.722)"><path class="a" d="M366.4,215.778a.4.4,0,0,1-.4-.4v-1.687a.4.4,0,1,1,.8,0v1.687a.4.4,0,0,1-.4.4Z" transform="translate(-366 -213.29)"/></g><g transform="translate(29.039 17.722)"><path class="a" d="M346.4,215.778a.4.4,0,0,1-.4-.4v-1.687a.4.4,0,0,1,.8,0v1.687a.4.4,0,0,1-.4.4Z" transform="translate(-346 -213.29)"/></g><g transform="translate(27.036 17.722)"><path class="a" d="M326.4,215.778a.4.4,0,0,1-.4-.4v-1.687a.4.4,0,1,1,.8,0v1.687a.4.4,0,0,1-.4.4Z" transform="translate(-326 -213.29)"/></g><g transform="translate(15.517 13.593)"><path class="a" d="M233.4,201.648h-20.25a2.162,2.162,0,0,1-1.545-.654.4.4,0,0,1,.057-.606,1.958,1.958,0,0,0,.5-.478.74.74,0,0,0,.142-.413.77.77,0,0,0-.159-.444,2.113,2.113,0,0,0-.557-.506.4.4,0,0,1,0-.667,2.13,2.13,0,0,0,.557-.507.694.694,0,0,0,0-.885,2.1,2.1,0,0,0-.557-.507.4.4,0,0,1,0-.668,2.055,2.055,0,0,0,.556-.5.693.693,0,0,0,0-.886,2.1,2.1,0,0,0-.557-.506.4.4,0,0,1,0-.668,2.129,2.129,0,0,0,.557-.506.681.681,0,0,0,0-.871,2,2,0,0,0-.541-.495.4.4,0,0,1-.179-.332.4.4,0,0,1,.176-.334,2.117,2.117,0,0,0,.545-.5.753.753,0,0,0,.155-.433.846.846,0,0,0-.242-.548,2.88,2.88,0,0,0-.832-.614.4.4,0,0,1-.213-.354v-4.92a.4.4,0,0,1,.8,0v4.685a3.368,3.368,0,0,1,.85.679,1.633,1.633,0,0,1,.437,1.072,1.547,1.547,0,0,1-.3.895,2.422,2.422,0,0,1-.328.371,2.443,2.443,0,0,1,.329.372,1.559,1.559,0,0,1,.3.9,1.541,1.541,0,0,1-.307.9,2.413,2.413,0,0,1-.336.375,2.424,2.424,0,0,1,.336.377,1.494,1.494,0,0,1,0,1.813,2.414,2.414,0,0,1-.336.376,2.47,2.47,0,0,1,.336.377,1.492,1.492,0,0,1,0,1.812,2.381,2.381,0,0,1-.337.377,2.379,2.379,0,0,1,.337.377,1.558,1.558,0,0,1,.307.907,1.532,1.532,0,0,1-.277.858,2.257,2.257,0,0,1-.287.344,1.331,1.331,0,0,0,.615.147H233.4a1.338,1.338,0,0,0,1.2-.736.4.4,0,0,1,.757.18.393.393,0,0,1-.043.181v0a.115.115,0,0,1-.008.014,2.144,2.144,0,0,1-1.9,1.16Zm1.742-2.929a.4.4,0,1,1,.4-.4A.4.4,0,0,1,235.14,198.719Zm0-2a.4.4,0,0,1-.4-.4v-22.1a1.344,1.344,0,0,0-1.341-1.334H213.15a1.344,1.344,0,0,0-1.338,1.334v4.618a.4.4,0,0,1-.8,0v-4.618a2.143,2.143,0,0,1,2.14-2.135H233.4a2.145,2.145,0,0,1,2.143,2.135v22.1A.4.4,0,0,1,235.14,196.716Zm-23.729-15.479a.4.4,0,1,1,.4-.4A.4.4,0,0,1,211.411,181.237Z" transform="translate(-211.01 -172.08)"/></g><g transform="translate(18.974 40.843)"><path class="a" d="M266.088,444.9H245.922a.4.4,0,0,1,0-.8h20.167a.4.4,0,1,1,0,.8Z" transform="translate(-245.521 -444.1)"/></g><g transform="translate(6.55)"><path class="a" d="M130.867,66.054a.4.4,0,0,1-.185-.046,12.754,12.754,0,0,0-5.427-1.036h-.021a16.455,16.455,0,0,0-3.253.307.408.408,0,0,1-.334-.082.4.4,0,0,1-.147-.311V40.9a.4.4,0,0,1,.8,0V64.4a17.871,17.871,0,0,1,2.932-.233,14.561,14.561,0,0,1,5.233.859V53.7a.4.4,0,1,1,.8,0V65.654a.4.4,0,0,1-.4.4Zm.05-13.957a.388.388,0,0,1-.1-.011.4.4,0,0,1-.294-.484h0a.4.4,0,0,1,.39-.306.4.4,0,0,1,.1.012.4.4,0,0,1,.292.485v0A.4.4,0,0,1,130.917,52.1Zm1.382-1.3a.4.4,0,0,1-.071-.8,2.169,2.169,0,0,1,.378-.033h12.248V42.425L139.6,37.181H123.514a1.205,1.205,0,0,0-.725.242.4.4,0,0,1-.56-.081.389.389,0,0,1-.08-.239.4.4,0,0,1,.16-.321,1.991,1.991,0,0,1,1.205-.4h16.254a.4.4,0,0,1,.283.117l5.485,5.478a.4.4,0,0,1,.118.283v8.115a.4.4,0,0,1-.4.4H132.606a1.418,1.418,0,0,0-.235.021A.335.335,0,0,1,132.3,50.8ZM121.9,39.3a.4.4,0,1,1,.4-.4A.4.4,0,0,1,121.9,39.3Z" transform="translate(-121.5 -36.38)"/></g><g transform="translate(24.418 0.001)"><path class="a" d="M305.758,42.665h-3.873a2.022,2.022,0,0,1-2.014-2.014V36.786a.4.4,0,0,1,.247-.37.4.4,0,0,1,.437.086l5.485,5.478h0a.4.4,0,0,1-.283.684Zm-5.086-4.912v2.9a1.219,1.219,0,0,0,1.213,1.213h2.9Z" transform="translate(-299.871 -36.386)"/></g><g transform="translate(9.005 2.967)"><path class="a" d="M153.064,66.8H146.4a.4.4,0,0,1,0-.8h6.664a.4.4,0,0,1,0,.8Z" transform="translate(-146 -66)"/></g><g transform="translate(9.005 4.686)"><path class="a" d="M157.509,83.96H146.4a.4.4,0,1,1,0-.8h11.108a.4.4,0,1,1,0,.8Z" transform="translate(-146 -83.16)"/></g><g transform="translate(9.005 6.821)"><path class="a" d="M148.979,110.433h0A2.977,2.977,0,0,1,146,107.451a2.985,2.985,0,0,1,2.978-2.981h0a2.982,2.982,0,1,1,0,5.963Zm0-5.162a2.18,2.18,0,1,0,2.176,2.18,2.186,2.186,0,0,0-2.176-2.18Z" transform="translate(-146 -104.47)"/></g><path class="a" d="M168.426,121.5a.434.434,0,0,0,.205-.122.343.343,0,0,0,.081-.225.287.287,0,0,0-.068-.194.444.444,0,0,0-.218-.121v.662Zm-.241-1.8a.317.317,0,0,0-.161.121.3.3,0,0,0-.057.178.265.265,0,0,0,.052.161.358.358,0,0,0,.166.13Zm0,1.768v-.7a.966.966,0,0,1-.485-.282.71.71,0,0,1-.153-.467.649.649,0,0,1,.169-.46.691.691,0,0,1,.469-.218v-.17h.241v.17a.715.715,0,0,1,.428.185.7.7,0,0,1,.2.4l-.428.048a.342.342,0,0,0-.2-.266v.662a1.046,1.046,0,0,1,.553.282.647.647,0,0,1,.15.442.777.777,0,0,1-.186.517.838.838,0,0,1-.516.259v.314h-.241v-.314a.831.831,0,0,1-.476-.21.9.9,0,0,1-.234-.509l.444-.057a.546.546,0,0,0,.1.234A.389.389,0,0,0,168.185,121.471Z" transform="translate(-156.319 -110.878)"/><g transform="translate(2.957 39.328)"><path class="a" d="M92.958,433.652h0a16.509,16.509,0,0,1-3.97-.455,6.533,6.533,0,0,1-2.677-1.227,1.764,1.764,0,0,1-.68-1.307,1.568,1.568,0,0,1,.309-.911,2.8,2.8,0,0,1,.773-.709.409.409,0,0,1,.438,0,11.616,11.616,0,0,0,5.77,1.25h.073a11.623,11.623,0,0,0,5.771-1.25.409.409,0,0,1,.438,0,2.763,2.763,0,0,1,.771.71,1.572,1.572,0,0,1,.306.91,1.761,1.761,0,0,1-.678,1.306,5.117,5.117,0,0,1-1.609.9A14.935,14.935,0,0,1,92.958,433.652Zm-6.01-3.794a1.747,1.747,0,0,0-.354.359.76.76,0,0,0-.161.446,1,1,0,0,0,.409.706,4.418,4.418,0,0,0,1.359.748,14.253,14.253,0,0,0,4.748.733h.011a15.646,15.646,0,0,0,3.77-.431,5.848,5.848,0,0,0,2.341-1.051,1,1,0,0,0,.408-.706.767.767,0,0,0-.159-.448,1.726,1.726,0,0,0-.352-.357,12.846,12.846,0,0,1-6.009,1.237A12.849,12.849,0,0,1,86.947,429.859Z" transform="translate(-85.631 -428.98)"/></g><g transform="translate(2.957 36.763)"><path class="a" d="M92.958,408.053h0a16.511,16.511,0,0,1-3.971-.456,6.52,6.52,0,0,1-2.677-1.231,1.771,1.771,0,0,1-.679-1.311,1.551,1.551,0,0,1,.31-.908,2.9,2.9,0,0,1,.768-.709.406.406,0,0,1,.442,0,11.622,11.622,0,0,0,5.77,1.249h.073a11.624,11.624,0,0,0,5.771-1.249.4.4,0,0,1,.441,0,2.849,2.849,0,0,1,.767.71,1.557,1.557,0,0,1,.307.907,1.767,1.767,0,0,1-.678,1.311,5.141,5.141,0,0,1-1.608.9A14.906,14.906,0,0,1,92.958,408.053Zm-6.008-3.8a1.827,1.827,0,0,0-.357.362.763.763,0,0,0-.16.442,1,1,0,0,0,.41.711,4.385,4.385,0,0,0,1.359.75,14.182,14.182,0,0,0,4.747.735h.011a15.6,15.6,0,0,0,3.77-.432,5.826,5.826,0,0,0,2.34-1.054,1.008,1.008,0,0,0,.41-.711.762.762,0,0,0-.16-.443,1.772,1.772,0,0,0-.354-.36,12.858,12.858,0,0,1-6.007,1.235A12.842,12.842,0,0,1,86.949,404.251Z" transform="translate(-85.631 -403.372)"/></g><g transform="translate(2.957 34.198)"><path class="a" d="M92.958,382.447h0a16.456,16.456,0,0,1-3.971-.456,6.494,6.494,0,0,1-2.677-1.232,1.77,1.77,0,0,1-.679-1.311,1.547,1.547,0,0,1,.31-.907,2.885,2.885,0,0,1,.768-.709.408.408,0,0,1,.443,0,11.561,11.561,0,0,0,5.767,1.248H93a11.558,11.558,0,0,0,5.767-1.248.408.408,0,0,1,.443,0,2.851,2.851,0,0,1,.767.71,1.555,1.555,0,0,1,.307.906,1.766,1.766,0,0,1-.678,1.311,5.2,5.2,0,0,1-1.608.9A14.9,14.9,0,0,1,92.958,382.447Zm-6.008-3.8a1.822,1.822,0,0,0-.357.361.759.759,0,0,0-.16.441,1.007,1.007,0,0,0,.41.712,4.388,4.388,0,0,0,1.359.75,14.183,14.183,0,0,0,4.747.735h.011a15.646,15.646,0,0,0,3.77-.431,5.842,5.842,0,0,0,2.34-1.055,1.009,1.009,0,0,0,.41-.712.764.764,0,0,0-.159-.442,1.8,1.8,0,0,0-.354-.36,12.8,12.8,0,0,1-6.008,1.235A12.794,12.794,0,0,1,86.949,378.646Z" transform="translate(-85.631 -377.767)"/></g><g transform="translate(2.957 31.657)"><path class="a" d="M92.958,357.056h0a16.5,16.5,0,0,1-3.97-.455,6.533,6.533,0,0,1-2.677-1.228,1.764,1.764,0,0,1-.68-1.307,1.552,1.552,0,0,1,.3-.9,2.784,2.784,0,0,1,.755-.7.407.407,0,0,1,.444,0,11.526,11.526,0,0,0,5.786,1.255H93a11.506,11.506,0,0,0,5.782-1.255.4.4,0,0,1,.444,0,2.75,2.75,0,0,1,.754.7,1.554,1.554,0,0,1,.3.9,1.761,1.761,0,0,1-.678,1.306,5.135,5.135,0,0,1-1.609.9A14.931,14.931,0,0,1,92.958,357.056Zm-6.03-3.775a1.718,1.718,0,0,0-.34.348.747.747,0,0,0-.156.436,1,1,0,0,0,.409.706,4.413,4.413,0,0,0,1.36.748,14.217,14.217,0,0,0,4.747.735h.011a15.606,15.606,0,0,0,3.77-.432,5.854,5.854,0,0,0,2.341-1.052,1,1,0,0,0,.409-.706.754.754,0,0,0-.156-.437,1.705,1.705,0,0,0-.338-.348,12.786,12.786,0,0,1-6.027,1.241A12.8,12.8,0,0,1,86.928,353.282Z" transform="translate(-85.631 -352.4)"/></g><g transform="translate(2.957 27.791)"><path class="a" d="M92.958,319.8h0a16.548,16.548,0,0,1-3.97-.456,6.506,6.506,0,0,1-2.678-1.231,1.6,1.6,0,0,1,0-2.62,5.167,5.167,0,0,1,1.61-.9,14.95,14.95,0,0,1,5.038-.784h0a16.6,16.6,0,0,1,3.969.455,6.53,6.53,0,0,1,2.675,1.228,1.6,1.6,0,0,1,0,2.62,5.125,5.125,0,0,1-1.608.9A14.9,14.9,0,0,1,92.958,319.8Zm0-5.188a15.671,15.671,0,0,0-3.771.431,5.858,5.858,0,0,0-2.343,1.052.819.819,0,0,0,0,1.419,4.386,4.386,0,0,0,1.359.75,14.2,14.2,0,0,0,4.746.735h.012a15.593,15.593,0,0,0,3.77-.432,5.841,5.841,0,0,0,2.34-1.053.821.821,0,0,0,0-1.42,4.413,4.413,0,0,0-1.358-.748,14.21,14.21,0,0,0-4.747-.734h-.01Z" transform="translate(-85.631 -313.809)"/></g><g transform="translate(0 35.884)"><path class="a" d="M59.577,398.013a.406.406,0,0,1-.06,0,8.31,8.31,0,0,1-1.851-.482,3.142,3.142,0,0,1-1.235-.807,1.266,1.266,0,0,1-.321-.809,1.224,1.224,0,0,1,.242-.712,2.124,2.124,0,0,1,.575-.533.408.408,0,0,1,.441,0,7.017,7.017,0,0,0,3.015.823h0a.4.4,0,0,1-.067.8,8.185,8.185,0,0,1-3.143-.805,1.031,1.031,0,0,0-.169.182.431.431,0,0,0-.094.247.471.471,0,0,0,.132.293,1.827,1.827,0,0,0,.517.392,6.532,6.532,0,0,0,2.077.622.4.4,0,0,1-.06.8Z" transform="translate(-56.11 -394.6)"/></g><g transform="translate(0 34.068)"><path class="a" d="M60.351,379.973l-.034,0a10.093,10.093,0,0,1-2.272-.438,3.784,3.784,0,0,1-1.532-.856,1.315,1.315,0,0,1-.4-.9,1.215,1.215,0,0,1,.243-.71,2.19,2.19,0,0,1,.574-.528.407.407,0,0,1,.44,0,6.208,6.208,0,0,0,2.347.746h0a.4.4,0,0,1,.339.454.407.407,0,0,1-.455.339,7.482,7.482,0,0,1-2.425-.723,1.041,1.041,0,0,0-.17.181.423.423,0,0,0-.092.241.531.531,0,0,0,.179.349,2.327,2.327,0,0,0,.685.448,8.064,8.064,0,0,0,2.609.6.4.4,0,0,1,.366.434A.4.4,0,0,1,60.351,379.973Z" transform="translate(-56.11 -376.469)"/></g><g transform="translate(0 32.245)"><path class="a" d="M59.658,361.7a.376.376,0,0,1-.058,0,8.469,8.469,0,0,1-1.893-.479,3.208,3.208,0,0,1-1.266-.815,1.268,1.268,0,0,1-.33-.821,1.222,1.222,0,0,1,.242-.713,2.141,2.141,0,0,1,.575-.534.408.408,0,0,1,.443,0,5.848,5.848,0,0,0,2.171.721.4.4,0,0,1-.129.79,7.129,7.129,0,0,1-2.238-.7,1.06,1.06,0,0,0-.168.181.436.436,0,0,0-.094.249.478.478,0,0,0,.137.3,1.866,1.866,0,0,0,.535.4,6.686,6.686,0,0,0,2.131.622.4.4,0,0,1-.057.8Z" transform="translate(-56.111 -358.273)"/></g><g transform="translate(0 30.438)"><path class="a" d="M59.477,343.622a.344.344,0,0,1-.064-.005,8,8,0,0,1-1.8-.486,3.059,3.059,0,0,1-1.2-.8,1.264,1.264,0,0,1-.31-.8,1.207,1.207,0,0,1,.236-.7,2.142,2.142,0,0,1,.562-.529.408.408,0,0,1,.449,0,6.319,6.319,0,0,0,2.591.789.4.4,0,0,1,.231.111,2.744,2.744,0,0,0,.416.332h0a.4.4,0,0,1-.221.735.4.4,0,0,1-.219-.065,3.685,3.685,0,0,1-.436-.335,7.358,7.358,0,0,1-2.561-.751,1.056,1.056,0,0,0-.157.173.413.413,0,0,0-.09.238.464.464,0,0,0,.127.29,1.735,1.735,0,0,0,.5.386,6.33,6.33,0,0,0,2.005.623.4.4,0,0,1-.063.8Z" transform="translate(-56.11 -340.233)"/></g><g transform="translate(0 27.694)"><path class="a" d="M59.9,317.241a.424.424,0,0,1-.05,0,9.06,9.06,0,0,1-2.028-.467,3.4,3.4,0,0,1-1.358-.831,1.282,1.282,0,0,1-.355-.849,1.393,1.393,0,0,1,.521-1.021,3.755,3.755,0,0,1,1.178-.663,10.7,10.7,0,0,1,3.614-.565c.117,0,.418.019.8.048.325.026.794.067,1.183.118a3.424,3.424,0,0,1,.591.115l.013.005a.558.558,0,0,1,.152.078.443.443,0,0,1,.137.168h0a.4.4,0,0,1-.59.5c-.047-.013-.131-.029-.224-.044-.237-.038-.554-.071-.778-.093-.578-.056-1.192-.093-1.286-.093h-.005a10.945,10.945,0,0,0-2.647.3,4.046,4.046,0,0,0-1.611.723.616.616,0,0,0-.252.422.5.5,0,0,0,.151.315,2.012,2.012,0,0,0,.586.417,7.185,7.185,0,0,0,2.3.62.4.4,0,0,1-.048.8Z" transform="translate(-56.11 -312.841)"/></g></g></g></g></svg>