<svg xmlns="http://www.w3.org/2000/svg" width="46.296" height="36.376" viewBox="0 0 46.296 36.376"><defs><style>.a{fill:#fff;}</style></defs><g transform="translate(-4 -10)"><path class="a" d="M49.469,28.44h-2.48a7.44,7.44,0,0,0-14.881,0H22.188a7.44,7.44,0,1,0-14.881,0H4.827A.781.781,0,0,0,4,29.267V47.455a.781.781,0,0,0,.827.827H24.668a.781.781,0,0,0,.827-.827V43.321H28.8v4.134a.781.781,0,0,0,.827.827H49.469a.781.781,0,0,0,.827-.827V29.267A.781.781,0,0,0,49.469,28.44Zm-9.921-5.787a5.751,5.751,0,0,1,5.787,5.787H33.762A5.751,5.751,0,0,1,39.549,22.653Zm-24.8,0a5.751,5.751,0,0,1,5.787,5.787H8.96A5.751,5.751,0,0,1,14.747,22.653Zm-9.094,7.44H48.643V41.668H5.653ZM23.841,46.628H5.653V43.321H23.841Zm24.8,0H30.455V43.321H48.643Z" transform="translate(0 -1.906)"/><path class="a" d="M12,14.134A4.134,4.134,0,1,0,16.134,10,4.093,4.093,0,0,0,12,14.134Zm6.614,0a2.48,2.48,0,1,1-2.48-2.48A2.436,2.436,0,0,1,18.614,14.134Z" transform="translate(-1.386)"/><path class="a" d="M42,14.134A4.134,4.134,0,1,0,46.134,10,4.093,4.093,0,0,0,42,14.134Zm6.614,0a2.48,2.48,0,1,1-2.48-2.48A2.436,2.436,0,0,1,48.614,14.134Z" transform="translate(-6.585)"/><path class="a" d="M15.827,37.653H42.282a.827.827,0,0,0,0-1.653H15.827a.827.827,0,0,0,0,1.653Z" transform="translate(-1.906 -4.505)"/><path class="a" d="M43.108,40.827A.781.781,0,0,0,42.282,40H15.827a.827.827,0,0,0,0,1.653H42.282A.781.781,0,0,0,43.108,40.827Z" transform="translate(-1.906 -5.198)"/></g></svg>