<svg xmlns="http://www.w3.org/2000/svg" width="55.612" height="44.312" viewBox="0 0 55.612 44.312"><defs><style>.a{fill:#fff;stroke:#fff;stroke-width:0.3px;}</style></defs><g transform="translate(-1.1 -10.445)"><g transform="translate(1.25 10.607)"><g transform="translate(49.101 43.093)"><path class="a" d="M88.233,81.894h-5.3a.453.453,0,1,0,0,.907h5.3a.453.453,0,1,0,0-.907Z" transform="translate(-82.476 -81.894)"/></g><g transform="translate(0 43.093)"><path class="a" d="M7.008,81.894H1.7a.453.453,0,0,0,0,.907h5.3a.453.453,0,1,0,0-.907Z" transform="translate(-1.25 -81.894)"/></g><g transform="translate(7.464)"><path class="a" d="M53.528,53.7h-9.72a1.725,1.725,0,0,0,.226-.842V41.91l7.182-10.97a.448.448,0,0,0,.488-.748l1.7-2.6a1.1,1.1,0,0,0-.317-1.523l-3.247-2.125a1.128,1.128,0,0,0-1.523.318l-1.7,2.6a.447.447,0,0,0-.488.746l-2.095,3.2V19.024a1.749,1.749,0,0,0-1.747-1.747h-3.88l-.01-.106c.292-.3.983-.566.978-1.351,0-.766-.665-1.014-.978-1.332,0-.494.261-1.068-.221-1.6-.538-.593-1.273-.29-1.678-.3l-.462-.562a1.173,1.173,0,0,0-1.759,0l-.462.562c-.406.01-1.141-.292-1.679.3-.485.536-.215,1.119-.216,1.593-.319.326-.973.57-.977,1.336,0,.782.694,1.061.978,1.355l-.015.1H27.79l1.5-1.5a.453.453,0,0,0,0-.641l-.891-.891a1.146,1.146,0,0,0-1.594,0L25.747,15.3a5.537,5.537,0,0,1-1.231-2.442,2.976,2.976,0,1,0-3.579,3.617,5.615,5.615,0,0,1,1.877.8H15.736a1.749,1.749,0,0,0-1.747,1.747V52.858a1.726,1.726,0,0,0,.226.842h-.164a.453.453,0,0,0,0,.907H53.528a.453.453,0,0,0,0-.907ZM49.078,24.756a.2.2,0,0,1,.268-.056l3.246,2.125a.193.193,0,0,1,.055.268l-1.7,2.6L47.38,27.35ZM32.766,14.9a.548.548,0,0,0,.075-.312l-.09-.92c-.043-.444.8-.138,1.169-.163a.451.451,0,0,0,.2-.028l.079-.03a.45.45,0,0,0,.188-.135c.532-.584.558-.8.767-.8.284,0,.63.811.952.933l.079.03c.409.154,1.423-.324,1.372.193-.067.869-.122.953-.057,1.123l.03.079c.157.407,1.257.789.849,1.132-.483.412-.949.649-.907,1.059.046.506.092,1,.084.915h0c-.014.064.014.1-.057.18s-.13.056-.191.072c-.659-.052-1.129-.212-1.393.109-.537.59-.554.793-.763.793-.26,0-.622-.775-.927-.916-.665-.256-1.226.2-1.438-.082a6.509,6.509,0,0,1,.047-1.174c-.043-.325-.31-.447-.9-.95C31.822,15.917,32.6,15.267,32.766,14.9Zm-5.317-.023a.21.21,0,0,1,.151-.063.214.214,0,0,1,.154.067l.574.574L23.5,20.281l-.571-.57a.223.223,0,0,1,0-.312Zm-6.306.712a2.07,2.07,0,1,1,2.492-2.518,6.431,6.431,0,0,0,1.46,2.876l-1.1,1.1A6.217,6.217,0,0,0,21.143,15.592ZM14.9,19.024a.841.841,0,0,1,.84-.84h7.127l-.574.574a1.133,1.133,0,0,0,0,1.59l.895.895a.453.453,0,0,0,.641,0l3.059-3.059h4.973c.216,1.388,1.77.842,1.955.882.3.292.562.977,1.347.977s1.015-.657,1.343-.977c.179,0,1.752.421,1.955-.881h3.83a.841.841,0,0,1,.84.84V21.89H14.9Zm28.23,33.834a.841.841,0,0,1-.84.84H15.736a.841.841,0,0,1-.84-.84V22.8h28.23v9.4L35.9,43.228l0,0-.014.021c-.111.169-.055.184-.567,3.487h0c-.271,2.318-.775,3.34.027,3.34a.452.452,0,0,0,.241-.069c5.488-3.458,5.286-3.272,5.387-3.427L43.126,43.3v9.563Zm-6.868-6.272.347-2.317,3.145,2.058-1.985,1.245ZM36.92,48.1l-.981.615.171-1.145Zm3.543-2.4-3.57-2.338,9.989-15.258,3.57,2.337Z" transform="translate(-13.598 -10.607)"/></g><g transform="translate(11.175 15.59)"><path class="a" d="M24.716,36.4H20.19a.453.453,0,0,0-.453.453v4.526a.453.453,0,0,0,.453.453h4.527a.453.453,0,0,0,.453-.453V36.849A.453.453,0,0,0,24.716,36.4Zm-.453,4.526h-3.62V37.3h3.62Z" transform="translate(-19.736 -36.396)"/></g><g transform="translate(11.175 24.421)"><path class="a" d="M24.716,51H20.19a.453.453,0,0,0-.453.453v4.526a.453.453,0,0,0,.453.453h4.527a.453.453,0,0,0,.453-.453V51.458A.453.453,0,0,0,24.716,51Zm-.453,4.526h-3.62v-3.62h3.62Z" transform="translate(-19.736 -51.005)"/></g><g transform="translate(11.175 33.264)"><path class="a" d="M24.716,65.633H20.19a.453.453,0,0,0-.453.453v4.527a.453.453,0,0,0,.453.453h4.527a.453.453,0,0,0,.453-.453V66.087A.453.453,0,0,0,24.716,65.633Zm-.453,4.527h-3.62V66.54h3.62Z" transform="translate(-19.736 -65.633)"/></g><g transform="translate(12.497 17.368)"><path class="a" d="M22.411,41.03a.454.454,0,0,0,.685.052,3.92,3.92,0,0,1,1.3-.858.453.453,0,1,0-.267-.867,4.126,4.126,0,0,0-1.279.736l-.106-.144a.453.453,0,1,0-.73.538Z" transform="translate(-21.923 -39.337)"/></g><g transform="translate(12.497 26.199)"><path class="a" d="M22.411,55.639a.454.454,0,0,0,.685.052,3.92,3.92,0,0,1,1.3-.858.453.453,0,1,0-.267-.867,4.126,4.126,0,0,0-1.279.736l-.106-.144a.453.453,0,1,0-.73.538Z" transform="translate(-21.923 -53.947)"/></g><g transform="translate(12.497 35.042)"><path class="a" d="M22.411,70.267a.453.453,0,0,0,.331.183h.034a.455.455,0,0,0,.321-.132,3.92,3.92,0,0,1,1.3-.857.453.453,0,0,0-.267-.867,4.119,4.119,0,0,0-1.279.736l-.106-.144a.453.453,0,1,0-.73.538Z" transform="translate(-21.923 -68.575)"/></g><g transform="translate(17.482 16.721)"><path class="a" d="M30.623,39.175H44.364a.453.453,0,0,0,0-.907H30.623a.453.453,0,0,0,0,.907Z" transform="translate(-30.17 -38.268)"/></g><g transform="translate(17.482 18.984)"><path class="a" d="M30.623,42.918h7.4a.453.453,0,1,0,0-.907h-7.4a.453.453,0,1,0,0,.907Z" transform="translate(-30.17 -42.012)"/></g><g transform="translate(17.482 25.553)"><path class="a" d="M30.623,53.784H42.173a.453.453,0,1,0,0-.907H30.623a.453.453,0,1,0,0,.907Z" transform="translate(-30.17 -52.877)"/></g><g transform="translate(17.482 27.816)"><path class="a" d="M30.623,57.527h7.4a.453.453,0,1,0,0-.907h-7.4a.453.453,0,0,0,0,.907Z" transform="translate(-30.17 -56.621)"/></g><g transform="translate(17.482 34.395)"><path class="a" d="M30.623,68.412H37.9a.453.453,0,1,0,0-.907H30.623a.453.453,0,0,0,0,.907Z" transform="translate(-30.17 -67.505)"/></g><g transform="translate(17.482 36.659)"><path class="a" d="M34.26,71.249H30.623a.453.453,0,0,0,0,.907H34.26a.453.453,0,0,0,0-.907Z" transform="translate(-30.17 -71.249)"/></g><g transform="translate(24.207 37.087)"><path class="a" d="M50.233,74.5a.451.451,0,0,0-.583.268,1.65,1.65,0,0,1-2.566.72L47,75.422c-1.41-1.162-1.362.564-2.825.393a1.483,1.483,0,0,0-.109-2.925l.152-.173a.453.453,0,0,0-.039-.64c-.44-.39-.9.267-1.252.8-2.3.384-2.188,2.977.452,3.7a2.411,2.411,0,0,0,2.777-.637,3.231,3.231,0,0,0,1.965.81,2.487,2.487,0,0,0,.674-.091,2.6,2.6,0,0,0,1.7-1.572A.453.453,0,0,0,50.233,74.5Zm-7.751-.523a1.742,1.742,0,0,0,.472,1.474C42.3,75.119,41.933,74.357,42.482,73.98Zm.945-.093q.025-.077.057-.152c1,0,1.152.7.833,1.035C43.888,75.221,43.156,74.745,43.426,73.887Z" transform="translate(-41.294 -71.959)"/></g><g transform="translate(14.229 1.707)"><path class="a" d="M26.042,13.431a1.253,1.253,0,1,0,1.253,1.253A1.254,1.254,0,0,0,26.042,13.431Zm0,1.6a.346.346,0,1,1,.346-.346A.346.346,0,0,1,26.042,15.029Z" transform="translate(-24.789 -13.431)"/></g></g></g></svg>