<svg xmlns="http://www.w3.org/2000/svg" width="49" height="40.66" viewBox="0 0 49 40.66"><defs><style>.a{fill:#fff;stroke:#fff;stroke-width:0.5px;}</style></defs><g transform="translate(-5.25 -15.45)"><g transform="translate(5.5 15.7)"><path class="a" d="M68,51H48.5v5.1H68Zm-1.245,3.858H49.745V52.245h17.01Z" transform="translate(-30.66 -36.355)"/><path class="a" d="M56.022,56.645H68.552a.622.622,0,0,0,0-1.245H56.022a.622.622,0,0,0,0,1.245Z" transform="translate(-34.698 -38.929)"/><path class="a" d="M68,66.9H48.5V72H68Zm-1.245,3.858H49.745V68.145h17.01Z" transform="translate(-30.66 -45.658)"/><path class="a" d="M70.947,72.694a.747.747,0,1,0-.747-.747A.744.744,0,0,0,70.947,72.694Zm0-1.245a.5.5,0,0,1,.5.5.5.5,0,1,1-1,0A.5.5,0,0,1,70.947,71.449Z" transform="translate(-43.358 -48.174)"/><path class="a" d="M64.047,72.694a.747.747,0,1,0-.747-.747A.744.744,0,0,0,64.047,72.694Zm0-1.245a.5.5,0,0,1,.5.5.5.5,0,1,1-1,0A.5.5,0,0,1,64.047,71.449Z" transform="translate(-39.32 -48.174)"/><path class="a" d="M57.047,72.694a.747.747,0,1,0-.747-.747A.771.771,0,0,0,57.047,72.694Zm0-1.245a.5.5,0,0,1,.5.5.5.5,0,1,1-.5-.5Z" transform="translate(-35.224 -48.174)"/><path class="a" d="M77.847,72.694a.747.747,0,1,0-.747-.747A.744.744,0,0,0,77.847,72.694Zm0-1.245a.5.5,0,0,1,.5.5.5.5,0,1,1-1,0A.5.5,0,0,1,77.847,71.449Z" transform="translate(-47.395 -48.174)"/><path class="a" d="M84.847,72.694a.747.747,0,1,0-.747-.747A.744.744,0,0,0,84.847,72.694Zm0-1.245a.5.5,0,0,1,.5.5.5.5,0,1,1-1,0A.5.5,0,0,1,84.847,71.449Z" transform="translate(-51.491 -48.174)"/><path class="a" d="M68.731,29.561A2.531,2.531,0,1,0,66.2,27.031,2.541,2.541,0,0,0,68.731,29.561Zm0-3.775a1.286,1.286,0,1,1-1.286,1.286A1.293,1.293,0,0,1,68.731,25.786Z" transform="translate(-41.017 -20.849)"/><path class="a" d="M70.269,40.326A3.523,3.523,0,0,0,66.742,36.8H64.626A3.523,3.523,0,0,0,61.1,40.326v1.825h9.169Zm-1.245.622H62.345v-.581a2.3,2.3,0,0,1,2.282-2.282h2.116a2.3,2.3,0,0,1,2.282,2.282Z" transform="translate(-38.033 -28.046)"/><path class="a" d="M51.51,15.7H14.793a2.514,2.514,0,0,0-2.531,2.531V33.5c0,.083.041.166.041.249-2.365.332-4.19,2.033-4.19,4.149v1.411H5.5v12.9H20.684V49.637H32.508v4.978h-7.26a.622.622,0,1,0,0,1.245H41.1a.622.622,0,1,0,0-1.245H33.753V49.637H51.468A2.514,2.514,0,0,0,54,47.106V18.189A2.445,2.445,0,0,0,51.51,15.7Zm-38,2.489A1.293,1.293,0,0,1,14.793,16.9H51.51A1.293,1.293,0,0,1,52.8,18.189V43.911H20.684V39.306H18.071V37.9c0-2.2-2.033-4.024-4.605-4.19a.374.374,0,0,0,.041-.207ZM9.4,37.854c0-1.618,1.659-2.946,3.692-2.946s3.692,1.328,3.692,2.946v1.411H9.4ZM19.44,50.923H6.745V40.551h12.7Zm32.07-2.572H20.684V45.156H52.8v1.908A1.293,1.293,0,0,1,51.51,48.351Z" transform="translate(-5.5 -15.7)"/><path class="a" d="M18.766,88.555h3.983l-.456-2.9a2.3,2.3,0,0,0,.622-1.494,2.157,2.157,0,0,0-4.315,0,1.972,1.972,0,0,0,.622,1.494Zm1.991-5.31a.9.9,0,0,1,.5,1.66l-.29.207.332,2.2h-1.12l.332-2.2-.29-.207a.887.887,0,0,1-.373-.747A.921.921,0,0,1,20.757,83.245Z" transform="translate(-13.165 -54.494)"/></g></g></svg>