<svg xmlns="http://www.w3.org/2000/svg" xmlns:xlink="http://www.w3.org/1999/xlink" width="169.75" height="117.013" viewBox="0 0 169.75 117.013">
  <defs>
    <linearGradient id="linear-gradient" x1="0.907" y1="-1.089" x2="0.907" y2="-0.089" gradientUnits="objectBoundingBox">
      <stop offset="0" stop-color="gray" stop-opacity="0.251"/>
      <stop offset="0.54" stop-color="gray" stop-opacity="0.122"/>
      <stop offset="1" stop-color="gray" stop-opacity="0.102"/>
    </linearGradient>
  </defs>
  <g id="_2" data-name="2" transform="translate(-499 -1803.45)">
    <g id="Group_1225" data-name="Group 1225" transform="translate(499 1803.45)">
      <path id="Path_969" data-name="Path 969" d="M468.945,331.533c5.759-5.187,14.8-6.243,23.029-5.831,25.847,1.3,49.178,13.9,69.36,28.148,7.306,5.16,14.5,10.725,19.245,17.825,9.655,14.464,6.79,34.5-6.633,46.416-4.568,4.054-10.1,7.162-15.789,9.918-10.106,4.9-21.008,8.829-32.481,9.949A106.17,106.17,0,0,1,501.082,437c-22.72-3.112-45.021-9.99-63.715-21.764-8.2-5.163-15.93-11.581-19.309-19.938s-1.216-18.935,7.155-23.879c3.463-2.045,7.6-2.967,11.654-3.835,5.966-1.276,12.027-2.535,17.411-5.129,5.561-2.68,12.143-7.863,11.044-13.8C464.141,342.294,463.193,336.7,468.945,331.533Z" transform="translate(-416.532 -325.621)" fill="#34657f" opacity="0.1"/>
      <path id="Path_970" data-name="Path 970" d="M475.747,428.557a3.458,3.458,0,0,1,3.1-.417s-.441.937-2.4.925Z" transform="translate(-438.034 -362.767)" fill="#34657f"/>
      <path id="Path_971" data-name="Path 971" d="M475.413,429.019a3.458,3.458,0,0,0,.833,3.016s.688-.774-.094-2.576Z" transform="translate(-437.889 -363.167)" fill="#34657f"/>
      <path id="Path_972" data-name="Path 972" d="M472.287,425.706s.055-1.544,3.552-1.166a1.66,1.66,0,0,1-1.147,1.51A2,2,0,0,1,472.287,425.706Z" transform="translate(-436.777 -361.519)" fill="#34657f"/>
      <path id="Path_973" data-name="Path 973" d="M471.576,426.4s-1.453.529-.016,3.74a1.661,1.661,0,0,0,1.083-1.557A2.007,2.007,0,0,0,471.576,426.4Z" transform="translate(-436.283 -362.216)" fill="#34657f"/>
      <path id="Path_974" data-name="Path 974" d="M468.722,421.717s-.294-2.527,3.267-2.4c0,0,.339,2.284-2.616,2.988Z" transform="translate(-435.481 -359.641)" fill="#34657f"/>
      <path id="Path_975" data-name="Path 975" d="M464.866,417.437s.378-2.89,3.967-2.171c0,0,.109,2.483-3.356,2.833Z" transform="translate(-434.083 -358.131)" fill="#34657f"/>
      <path id="Path_976" data-name="Path 976" d="M461.994,412.921s.708-2.834,4.26-2.126a4.059,4.059,0,0,1-4.006,2.634Z" transform="translate(-433.04 -356.508)" fill="#34657f"/>
      <path id="Path_977" data-name="Path 977" d="M459.26,408.443s.687-2.938,4.114-2.192a4.148,4.148,0,0,1-3.874,2.679Z" transform="translate(-432.047 -354.855)" fill="#34657f"/>
      <path id="Path_978" data-name="Path 978" d="M457.445,403.812s.478-3.575,3.673-2.911c0,0-.8,3.266-3.423,3.417Z" transform="translate(-431.388 -352.927)" fill="#34657f"/>
      <path id="Path_979" data-name="Path 979" d="M455.7,398.753s.6-3.607,3.842-2.688c0,0-1.129,3.43-3.6,3.175Z" transform="translate(-430.754 -351.146)" fill="#34657f"/>
      <path id="Path_980" data-name="Path 980" d="M454.555,393.506s1.028-3.623,3.514-3.621c0,0-1.05,3.819-3.279,4.331Z" transform="translate(-430.339 -348.956)" fill="#34657f"/>
      <path id="Path_981" data-name="Path 981" d="M453.766,388.516s1.106-4.358,3.137-4.1c0,0-.754,3.326-3.04,4.77Z" transform="translate(-430.052 -346.966)" fill="#34657f"/>
      <path id="Path_982" data-name="Path 982" d="M453.2,383.029s1.053-3.634,3.04-3.854c0,0-.676,3.562-2.96,4.786Z" transform="translate(-429.848 -345.067)" fill="#34657f"/>
      <path id="Path_983" data-name="Path 983" d="M452.624,377.829s1.348-3.651,2.662-3.782c0,0-.51,3.562-2.508,4.368Z" transform="translate(-429.637 -343.205)" fill="#34657f"/>
      <path id="Path_984" data-name="Path 984" d="M452.179,372.642s.764-3.939,2.065-4.312c0,0-.057,3.2-1.923,4.6Z" transform="translate(-429.476 -341.129)" fill="#34657f"/>
      <path id="Path_985" data-name="Path 985" d="M451.157,366.637s.841-3.147,1.888-3.663c0,0-.071,3.673-1.616,4.407Z" transform="translate(-429.105 -339.185)" fill="#34657f"/>
      <path id="Path_986" data-name="Path 986" d="M450.119,361.418l-.4-5.477s2.145,4.063.588,6.439Z" transform="translate(-428.581 -336.631)" fill="#34657f"/>
      <path id="Path_987" data-name="Path 987" d="M446.5,353.7a30.409,30.409,0,0,0-1.937-4.161s2.909,2.5,2.762,5.844Z" transform="translate(-426.71 -334.307)" fill="#34657f"/>
      <path id="Path_988" data-name="Path 988" d="M467.242,423.065s-2.534-.233-2.321,3.325c0,0,2.292.283,2.922-2.69Z" transform="translate(-434.098 -361.003)" fill="#34657f"/>
      <path id="Path_989" data-name="Path 989" d="M463.209,418.6s-2.912.1-2.535,3.737c0,0,2.461.344,3.138-3.072Z" transform="translate(-432.548 -359.382)" fill="#34657f"/>
      <path id="Path_990" data-name="Path 990" d="M459.535,414.462s-2.691-1.139-4.261,2.126a4.072,4.072,0,0,0,4.514-1.616Z" transform="translate(-430.6 -357.811)" fill="#34657f"/>
      <path id="Path_991" data-name="Path 991" d="M456.758,409.678s-2.756-1.216-4.226,1.972A4.147,4.147,0,0,0,457,410.163Z" transform="translate(-429.604 -356.061)" fill="#34657f"/>
      <path id="Path_992" data-name="Path 992" d="M454.833,405.064s-2.7-2.388-4.682.209c0,0,2.74,1.945,4.823.341Z" transform="translate(-428.739 -354.104)" fill="#34657f"/>
      <path id="Path_993" data-name="Path 993" d="M453.257,399.655s-2.718-2.444-4.679.294c0,0,3.022,1.976,4.794.233Z" transform="translate(-428.168 -352.14)" fill="#34657f"/>
      <path id="Path_994" data-name="Path 994" d="M452.409,394s-2.141-3.1-4.491-2.3c0,0,2.224,3.285,4.5,3.049Z" transform="translate(-427.929 -349.568)" fill="#34657f"/>
      <path id="Path_995" data-name="Path 995" d="M451.531,388.969s-2.19-3.926-4.086-3.157c0,0,1.584,3.02,4.162,3.827Z" transform="translate(-427.757 -347.441)" fill="#34657f"/>
      <path id="Path_996" data-name="Path 996" d="M451.041,383.383s-2.213-3.071-4.156-2.611c0,0,1.832,3.13,4.394,3.516Z" transform="translate(-427.553 -345.63)" fill="#34657f"/>
      <path id="Path_997" data-name="Path 997" d="M451.215,377.893s-1.756-3.473-3.076-3.454c0,0,.913,3.482,2.988,4.052Z" transform="translate(-428.009 -343.348)" fill="#34657f"/>
      <path id="Path_998" data-name="Path 998" d="M450.4,373s-1.939-3.511-3.293-3.467c0,0,1.04,3.026,3.245,3.784Z" transform="translate(-427.633 -341.566)" fill="#34657f"/>
      <path id="Path_999" data-name="Path 999" d="M450.146,367.216s-1.462-2.912-2.59-3.2c0,0,.813,3.585,2.471,4Z" transform="translate(-427.797 -339.561)" fill="#34657f"/>
      <path id="Path_1000" data-name="Path 1000" d="M448.274,361.838l-3.186-4.472s.945,4.5,3.66,5.33Z" transform="translate(-426.901 -337.148)" fill="#34657f"/>
      <path id="Path_1001" data-name="Path 1001" d="M444.417,355.174a30.6,30.6,0,0,1-3.733-2.668s1.91,3.318,5.239,3.788Z" transform="translate(-425.302 -335.384)" fill="#34657f"/>
      <path id="Path_1002" data-name="Path 1002" d="M443.191,352.912s-4.167-3.71-5.192-3.665a6.58,6.58,0,0,1,5.289,3.456Z" transform="translate(-424.327 -334.2)" fill="#34657f"/>
      <path id="Path_1003" data-name="Path 1003" d="M449.529,364.355l-.147.025c-.981-5.884-2.217-9.335-3.477-9.72l.043-.147C447.281,354.919,448.524,358.32,449.529,364.355Z" transform="translate(-427.197 -336.112)" fill="#444053"/>
      <path id="Path_1004" data-name="Path 1004" d="M453.136,383.8l-.22.027c-.068-.55-.126-1.114-.172-1.675-.4-4.885-.9-9.366-1.456-12.719l.122-.163c.56,3.359,1.156,7.972,1.556,12.864C453.011,382.691,453.069,383.251,453.136,383.8Z" transform="translate(-429.152 -341.47)" fill="#444053"/>
      <path id="Path_1005" data-name="Path 1005" d="M472,417.964a28.846,28.846,0,0,1-8.2-5.6,32.106,32.106,0,0,1-6.147-8.036,37.494,37.494,0,0,1-3.889-12.894l.235.1a34.052,34.052,0,0,0,9.99,20.608,28.529,28.529,0,0,0,8.117,5.546Z" transform="translate(-430.05 -349.519)" fill="#444053"/>
      <g id="Group_1222" data-name="Group 1222" transform="translate(32.646 0.883)" opacity="0.7">
        <path id="Path_1006" data-name="Path 1006" d="M485.4,414.216a3.463,3.463,0,0,1,3.085.525s-.7.764-2.572.167Z" transform="translate(-474.184 -358.617)" fill="#34657f"/>
        <path id="Path_1007" data-name="Path 1007" d="M484.83,414.309a3.46,3.46,0,0,0-.1,3.126s.881-.533.678-2.486Z" transform="translate(-473.816 -358.708)" fill="#34657f"/>
        <path id="Path_1008" data-name="Path 1008" d="M482.84,410.495s.514-1.457,3.739-.057a1.659,1.659,0,0,1-1.546,1.1A2.007,2.007,0,0,1,482.84,410.495Z" transform="translate(-473.256 -357.081)" fill="#34657f"/>
        <path id="Path_1009" data-name="Path 1009" d="M481.836,410.77s-1.543.073-1.128,3.566a1.661,1.661,0,0,0,1.5-1.166A2.005,2.005,0,0,0,481.836,410.77Z" transform="translate(-472.456 -357.423)" fill="#34657f"/>
        <path id="Path_1010" data-name="Path 1010" d="M480.429,405.71s.469-2.5,3.833-1.322c0,0-.354,2.282-3.386,2.074Z" transform="translate(-472.38 -354.991)" fill="#34657f"/>
        <path id="Path_1011" data-name="Path 1011" d="M478.04,400.487s1.219-2.644,4.428-.894c0,0-.634,2.4-4.047,1.708Z" transform="translate(-471.513 -353.147)" fill="#34657f"/>
        <path id="Path_1012" data-name="Path 1012" d="M476.646,395.375s1.521-2.5,4.7-.762a4.072,4.072,0,0,1-4.609,1.322Z" transform="translate(-471.006 -351.333)" fill="#34657f"/>
        <path id="Path_1013" data-name="Path 1013" d="M475.357,390.276s1.528-2.6,4.582-.869a4.148,4.148,0,0,1-4.495,1.4Z" transform="translate(-470.538 -349.45)" fill="#34657f"/>
        <path id="Path_1014" data-name="Path 1014" d="M474.886,385.309s1.519-3.27,4.375-1.684c0,0-1.732,2.88-4.284,2.244Z" transform="translate(-470.367 -347.408)" fill="#34657f"/>
        <path id="Path_1015" data-name="Path 1015" d="M474.753,379.952s1.644-3.266,4.466-1.424c0,0-2.1,2.939-4.379,1.96Z" transform="translate(-470.319 -345.511)" fill="#34657f"/>
        <path id="Path_1016" data-name="Path 1016" d="M475.092,374.715s2.057-3.153,4.431-2.413c0,0-2.141,3.34-4.419,3.16Z" transform="translate(-470.442 -343.414)" fill="#34657f"/>
        <path id="Path_1017" data-name="Path 1017" d="M475.687,369.658s2.351-3.83,4.215-2.982c0,0-1.71,2.951-4.321,3.649Z" transform="translate(-470.62 -341.367)" fill="#34657f"/>
        <path id="Path_1018" data-name="Path 1018" d="M476.761,364.284s2.089-3.157,4.049-2.776c0,0-1.7,3.2-4.249,3.689Z" transform="translate(-470.976 -339.523)" fill="#34657f"/>
        <path id="Path_1019" data-name="Path 1019" d="M477.867,359.091s2.372-3.086,3.665-2.818c0,0-1.547,3.25-3.693,3.422Z" transform="translate(-471.44 -337.628)" fill="#34657f"/>
        <path id="Path_1020" data-name="Path 1020" d="M478.909,353.914s1.9-3.526,3.256-3.5c0,0-1.008,3.037-3.2,3.819Z" transform="translate(-471.828 -335.506)" fill="#34657f"/>
        <path id="Path_1021" data-name="Path 1021" d="M479.83,347.844s1.741-2.753,2.893-2.939c0,0-1.161,3.488-2.853,3.733Z" transform="translate(-472.163 -333.506)" fill="#34657f"/>
        <path id="Path_1022" data-name="Path 1022" d="M480.241,342.233l1.245-5.351s.839,4.518-1.356,6.318Z" transform="translate(-472.271 -330.593)" fill="#34657f"/>
        <path id="Path_1023" data-name="Path 1023" d="M479.859,333.79a30.657,30.657,0,0,0-.613-4.554s2.036,3.244.9,6.4Z" transform="translate(-471.95 -327.816)" fill="#34657f"/>
        <path id="Path_1024" data-name="Path 1024" d="M478.462,406.509s-2.351-.976-3.2,2.486c0,0,2.1.952,3.589-1.7Z" transform="translate(-470.502 -355.829)" fill="#34657f"/>
        <path id="Path_1025" data-name="Path 1025" d="M475.882,401.114s-2.811-.768-3.533,2.815c0,0,2.248,1.06,3.911-2Z" transform="translate(-469.446 -353.891)" fill="#34657f"/>
        <path id="Path_1026" data-name="Path 1026" d="M473.827,396.133s-2.23-1.888-4.7.762a4.07,4.07,0,0,0,4.791-.2Z" transform="translate(-468.276 -351.871)" fill="#34657f"/>
        <path id="Path_1027" data-name="Path 1027" d="M472.623,390.715s-2.272-1.981-4.622.624a4.145,4.145,0,0,0,4.708-.088Z" transform="translate(-467.867 -349.879)" fill="#34657f"/>
        <path id="Path_1028" data-name="Path 1028" d="M472.324,385.617s-1.869-3.085-4.533-1.2c0,0,2.037,2.674,4.5,1.763Z" transform="translate(-467.791 -347.633)" fill="#34657f"/>
        <path id="Path_1029" data-name="Path 1029" d="M472.414,379.992s-1.869-3.142-4.554-1.109c0,0,2.3,2.792,4.506,1.65Z" transform="translate(-467.816 -345.595)" fill="#34657f"/>
        <path id="Path_1030" data-name="Path 1030" d="M473.483,374.1s-1.121-3.6-3.6-3.526c0,0,1.146,3.8,3.386,4.249Z" transform="translate(-468.55 -342.826)" fill="#34657f"/>
        <path id="Path_1031" data-name="Path 1031" d="M474.146,369.01s-.922-4.4-2.96-4.23c0,0,.614,3.355,2.835,4.893Z" transform="translate(-469.024 -340.721)" fill="#34657f"/>
        <path id="Path_1032" data-name="Path 1032" d="M475.352,363.505s-1.2-3.591-3.192-3.73c0,0,.818,3.533,3.149,4.665Z" transform="translate(-469.377 -338.906)" fill="#34657f"/>
        <path id="Path_1033" data-name="Path 1033" d="M477.156,358.289s-.643-3.837-1.91-4.212c0,0-.163,3.6,1.649,4.759Z" transform="translate(-470.497 -336.836)" fill="#34657f"/>
        <path id="Path_1034" data-name="Path 1034" d="M477.834,353.375s-.806-3.93-2.113-4.29c0,0,.093,3.2,1.973,4.578Z" transform="translate(-470.671 -335.024)" fill="#34657f"/>
        <path id="Path_1035" data-name="Path 1035" d="M479.3,347.787s-.529-3.214-1.519-3.83c0,0-.294,3.664,1.175,4.554Z" transform="translate(-471.409 -333.162)" fill="#34657f"/>
        <path id="Path_1036" data-name="Path 1036" d="M479.109,342.078l-1.713-5.219s-.441,4.575,1.909,6.178Z" transform="translate(-471.267 -330.584)" fill="#34657f"/>
        <path id="Path_1037" data-name="Path 1037" d="M477.428,334.578a30.329,30.329,0,0,1-2.772-3.658s.841,3.736,3.874,5.174Z" transform="translate(-470.284 -328.428)" fill="#34657f"/>
        <path id="Path_1038" data-name="Path 1038" d="M476.93,332.054s-2.875-4.782-3.866-5.047a6.571,6.571,0,0,1,4.014,4.872Z" transform="translate(-469.706 -327.007)" fill="#34657f"/>
        <path id="Path_1039" data-name="Path 1039" d="M479.554,344.859l-.147-.02c.813-5.908.661-9.572-.429-10.314l.084-.122C480.218,335.191,480.387,338.807,479.554,344.859Z" transform="translate(-471.853 -329.693)" fill="#444053"/>
        <path id="Path_1040" data-name="Path 1040" d="M475.652,364.532l-.219-.039c.1-.545.211-1.1.335-1.651,1.074-4.782,1.93-9.207,2.393-12.575l.166-.12c-.464,3.379-1.267,7.955-2.342,12.745C475.862,363.43,475.75,363.982,475.652,364.532Z" transform="translate(-470.566 -335.409)" fill="#444053"/>
        <path id="Path_1041" data-name="Path 1041" d="M484.7,402.73a28.915,28.915,0,0,1-6.17-7.787,32.084,32.084,0,0,1-3.476-9.5,37.46,37.46,0,0,1,.124-13.468l.194.164a34.039,34.039,0,0,0,3.414,22.65,28.458,28.458,0,0,0,6.1,7.71Z" transform="translate(-470.226 -343.336)" fill="#444053"/>
      </g>
      <path id="Path_1042" data-name="Path 1042" d="M647.36,499.571s-6.212-.375-5.479,3.978a1.059,1.059,0,0,0,.551,1.118s.012-.324.638-.213a2.848,2.848,0,0,0,.674.032,1.411,1.411,0,0,0,.825-.341h0s1.746-.722,2.425-3.575c0,0,.5-.623.483-.783l-1.05.441a1.877,1.877,0,0,1,.076,1.384s-.034-1.356-.235-1.322c-.041.007-.545.263-.545.263a3.085,3.085,0,0,1,.147,2.274s.176-1.623-.344-2.181l-.734.432a3.259,3.259,0,0,1,.232,2.469,4.631,4.631,0,0,0-.388-2.365l-.669.522a3.185,3.185,0,0,1,.264,2.261s-.054-1.982-.408-2.132a3.841,3.841,0,0,0-.674.735s.463.973.176,1.486c0,0-.176-1.322-.322-1.322a4.29,4.29,0,0,0-.644,1.469,3.178,3.178,0,0,1,.5-1.557,1.748,1.748,0,0,0-.892.461s.091-.618,1.029-.673a4.085,4.085,0,0,1,.611-.7,3.841,3.841,0,0,0-1.511.175,1.687,1.687,0,0,1,1.683-.319l.66-.539a5.479,5.479,0,0,0-1.763.017,2.146,2.146,0,0,1,1.941-.139l.718-.429a6.53,6.53,0,0,0-1.683-.147,2.579,2.579,0,0,1,1.895.029l.515-.231s-.774-.147-1-.176-.238-.087-.238-.087a2.679,2.679,0,0,1,1.452.162A6.6,6.6,0,0,0,647.36,499.571Z" transform="translate(-498.338 -388.782)" fill="#34657f"/>
      <ellipse id="Ellipse_6" data-name="Ellipse 6" cx="4.396" cy="0.743" rx="4.396" ry="0.743" transform="translate(140.348 115.521)" fill="#34657f" opacity="0.1"/>
      <path id="Path_1043" data-name="Path 1043" d="M667.448,481.564s-3.5-.21-3.085,2.243a.6.6,0,0,0,.31.631s.008-.182.36-.12a1.591,1.591,0,0,0,.381.019.791.791,0,0,0,.464-.193h0a2.781,2.781,0,0,0,1.367-2.015s.284-.352.272-.441l-.588.253a1.061,1.061,0,0,1,.043.78s-.019-.766-.132-.746c-.024,0-.307.147-.307.147a1.751,1.751,0,0,1,.085,1.283s.1-.915-.194-1.229l-.416.243a1.837,1.837,0,0,1,.13,1.393,2.612,2.612,0,0,0-.218-1.334l-.376.294a1.794,1.794,0,0,1,.147,1.275s-.031-1.116-.231-1.2a2.365,2.365,0,0,0-.381.41s.262.55.1.839c0,0-.1-.745-.181-.748a2.476,2.476,0,0,0-.362.832,1.791,1.791,0,0,1,.283-.881.99.99,0,0,0-.5.26s.051-.348.587-.379a2.3,2.3,0,0,1,.344-.4,2.164,2.164,0,0,0-.852.1.959.959,0,0,1,.949-.181l.373-.3a3.07,3.07,0,0,0-.994.01,1.2,1.2,0,0,1,1.094-.079l.406-.243a3.7,3.7,0,0,0-.951-.082,1.459,1.459,0,0,1,1.068.017l.294-.131s-.441-.085-.564-.1-.135-.05-.135-.05a1.515,1.515,0,0,1,.82.091A3.513,3.513,0,0,0,667.448,481.564Z" transform="translate(-506.51 -382.245)" fill="#34657f"/>
      <ellipse id="Ellipse_7" data-name="Ellipse 7" cx="2.478" cy="0.419" rx="2.478" ry="0.419" transform="translate(156.048 101.989)" fill="#34657f" opacity="0.1"/>
      <path id="Path_1044" data-name="Path 1044" d="M634.622,484.908s-4.228-.255-3.729,2.708a.721.721,0,0,0,.375.761s0-.219.433-.147a2.023,2.023,0,0,0,.46.024.968.968,0,0,0,.561-.232h0a3.353,3.353,0,0,0,1.651-2.434s.343-.423.328-.532l-.713.3a1.28,1.28,0,0,1,.052.943s-.022-.924-.16-.9c-.028,0-.37.178-.37.178a2.116,2.116,0,0,1,.1,1.549s.12-1.1-.234-1.484l-.5.294a2.219,2.219,0,0,1,.157,1.682,3.181,3.181,0,0,0-.263-1.616l-.455.354a2.166,2.166,0,0,1,.181,1.539s-.037-1.348-.279-1.451a2.782,2.782,0,0,0-.459.5s.315.662.119,1.012c0,0-.119-.9-.217-.9a3.023,3.023,0,0,0-.441,1,2.169,2.169,0,0,1,.342-1.06,1.2,1.2,0,0,0-.607.314s.062-.422.706-.458a2.773,2.773,0,0,1,.415-.479,2.613,2.613,0,0,0-1.028.119,1.15,1.15,0,0,1,1.144-.218l.449-.366a3.7,3.7,0,0,0-1.2.011,1.463,1.463,0,0,1,1.322-.1l.489-.294a4.409,4.409,0,0,0-1.147-.1,1.764,1.764,0,0,1,1.29.02l.351-.144s-.526-.1-.68-.119-.162-.059-.162-.059a1.829,1.829,0,0,1,.989.11A4.4,4.4,0,0,0,634.622,484.908Z" transform="translate(-494.355 -383.459)" fill="#34657f"/>
      <ellipse id="Ellipse_8" data-name="Ellipse 8" cx="2.993" cy="0.505" rx="2.993" ry="0.505" transform="translate(134.363 104.671)" fill="#34657f" opacity="0.1"/>
      <path id="Path_1045" data-name="Path 1045" d="M537.588,451.291l-14.737,5.7-21.541,8.325c-.813-1.509-2.011-3.573-3.5-6.023-5.1-8.455-13.542-21.606-21.055-33.161C468.291,413.113,461,402.117,461,402.117l5.276-1.529,43.093-12.5Z" transform="translate(-432.68 -348.305)" opacity="0.1"/>
      <path id="Path_1046" data-name="Path 1046" d="M538.049,449.676l-14.737,5.7L501.771,463.7c-.812-1.509-2.011-3.574-3.495-6.024-5.1-8.455-13.543-21.605-21.056-33.161C468.753,411.5,461.466,400.5,461.466,400.5l5.275-1.529,43.093-12.5Z" transform="translate(-432.848 -347.718)" fill="#fff"/>
      <path id="Path_1047" data-name="Path 1047" d="M541.057,449.676l-14.737,5.7a110.829,110.829,0,0,1-25.035,2.3c-5.1-8.455-13.543-21.605-21.056-33.161l-10.479-25.545,43.093-12.5Z" transform="translate(-435.856 -347.718)" opacity="0.1"/>
      <path id="Path_1048" data-name="Path 1048" d="M550.848,442.544s-22.895,13.543-57.076,10.487L466.52,386.6l13.059-2.244,45.144-7.753,25.615,64.658Z" transform="translate(-434.683 -344.133)" fill="#34657f"/>
      <path id="Path_1049" data-name="Path 1049" d="M557.786,441.26a108.41,108.41,0,0,1-17.9-.508,57.51,57.51,0,0,1-19.475-5.463,59.1,59.1,0,0,1-12.731-8.551c-9.492-8.539-15.367-20.753-20.643-42.383l45.144-7.753Z" transform="translate(-442.132 -344.133)" opacity="0.1"/>
      <path id="Path_1050" data-name="Path 1050" d="M572.833,426.516s-16.883,3.308-34.052,1.271a57.556,57.556,0,0,1-19.475-5.463,59.1,59.1,0,0,1-12.731-8.551C494.822,403.2,488.621,387,482.224,354.286c0,0,28.06,6.771,55.785-8.061C538.009,346.225,547.359,404.589,572.833,426.516Z" transform="translate(-440.386 -333.103)" fill="#fff"/>
      <path id="Path_1051" data-name="Path 1051" d="M552.665,462.717a57.556,57.556,0,0,1-19.475-5.463,59.106,59.106,0,0,1-12.731-8.551c10-.813,11.442-6.282,11.442-6.282C539.317,454.192,552.665,462.717,552.665,462.717Z" transform="translate(-454.269 -368.033)" opacity="0.1"/>
      <path id="Path_1052" data-name="Path 1052" d="M505.008,374.2s15.073,1.72,29.181-6.207l.967,3.1a74.954,74.954,0,0,1-30.148,6.73Z" transform="translate(-448.659 -341.008)" fill="#34657f" opacity="0.3"/>
      <path id="Path_1053" data-name="Path 1053" d="M505.008,396.513a99.249,99.249,0,0,0,31.667-9.272l.564,1.29s-6.14,7.726-32.231,9.744Z" transform="translate(-448.659 -347.996)" opacity="0.3"/>
      <path id="Path_1054" data-name="Path 1054" d="M507.8,405.9a99.265,99.265,0,0,0,31.667-9.271l.564,1.29s-6.138,7.733-32.232,9.753Z" transform="translate(-449.672 -351.405)" opacity="0.3"/>
      <path id="Path_1055" data-name="Path 1055" d="M510.348,416.013a99.273,99.273,0,0,0,31.667-9.27l.564,1.29s-6.147,7.729-32.232,9.753Z" transform="translate(-450.598 -355.078)" opacity="0.3"/>
      <path id="Path_1056" data-name="Path 1056" d="M513.377,424.682a99.285,99.285,0,0,0,31.667-9.271l.564,1.29s-6.138,7.73-32.231,9.755Z" transform="translate(-451.698 -358.225)" opacity="0.3"/>
      <path id="Path_1057" data-name="Path 1057" d="M516.168,434.075a99.265,99.265,0,0,0,31.667-9.271l.564,1.29s-6.14,7.731-32.231,9.753Z" transform="translate(-452.711 -361.636)" opacity="0.1"/>
      <rect id="Rectangle_728" data-name="Rectangle 728" width="4.429" height="4.429" transform="translate(90.492 36.649) rotate(-18.8)" fill="#34657f" opacity="0.3"/>
      <rect id="Rectangle_729" data-name="Rectangle 729" width="4.429" height="4.429" transform="translate(92.877 42.887) rotate(-18.8)" fill="#34657f" opacity="0.3"/>
      <rect id="Rectangle_730" data-name="Rectangle 730" width="4.429" height="4.429" transform="translate(96.701 54.89) rotate(-18.8)" fill="#34657f" opacity="0.3"/>
      <rect id="Rectangle_731" data-name="Rectangle 731" width="4.429" height="4.429" transform="translate(98.895 61.332) rotate(-18.8)" fill="#34657f" opacity="0.3"/>
      <rect id="Rectangle_732" data-name="Rectangle 732" width="4.429" height="4.429" transform="translate(94.822 49.368) rotate(-18.8)" fill="#34657f" opacity="0.3"/>
      <path id="Path_1058" data-name="Path 1058" d="M621.282,410.361l-.157-.147c.406-.082.788-.119.788-.119s-1.392-5.033-3.738-6.712a11.023,11.023,0,0,1-2.811-3.4,51.372,51.372,0,0,0-4.185-6.136l-.424-.534-.182-.232a2.027,2.027,0,0,0,.53-1.2.024.024,0,0,1,0-.009.651.651,0,0,0,0-.071.84.84,0,0,0-.029-.163l-.017.025c-.2-.576-.96-.831-1.526-1.148-1.322-.745-1.888-2.372-2.17-3.886-.22-1.176-.4-2.5-1.322-3.254-.588-.486-1.387-.646-1.979-1.13a5.787,5.787,0,0,1-1.227-1.792,7.181,7.181,0,0,0-2.387-2.693A3.982,3.982,0,0,0,597,377.31c-.43.164-.822.42-1.248.6-1.058.441-2.27.382-3.317.848a7.388,7.388,0,0,0-2.9,3.041,14.474,14.474,0,0,0-1.374,2.446v-.1a3.509,3.509,0,0,0-.273,1.272,1.9,1.9,0,0,0,.06.552,1.781,1.781,0,0,0,1.193,1.139,5.043,5.043,0,0,0,.129.554,5.435,5.435,0,0,0,3.511,3.586c.048.018.1.03.147.045a1.167,1.167,0,0,0,.175.323c.469.588,1.409.42,2.02-.007.025-.017.048-.037.072-.055a2.015,2.015,0,0,0,.027.248c.013.071.023.147.038.21a10.163,10.163,0,0,0,1.962,4.572s.131.2.344.523a6.552,6.552,0,0,0,1.5,4.284,7.68,7.68,0,0,1-3.344,1.2s-3.649.472-4.072.236c-.059-.033-.115.011-.168.111-1.005-.613-4.218-2.379-4.493-.111-.248,2.057,2.68,2.32,4.074,2.33-.063.6-.1,1.084-.1,1.084l5.995-.41,3.122-.46a3.76,3.76,0,0,1-1.115,1.062s-2.822,2.285-3.31,2.3c-.069,0-.091.069-.081.179-1.187,0-4.879.172-3.854,2.229.93,1.864,3.547.574,4.732-.138.279.542.517.967.517.967l4.838-3.446,1.047-.881a3.724,3.724,0,0,0,1.042-.2.117.117,0,0,0,.015.038,1.927,1.927,0,0,1,.083.332c.294,1.688-.693,5.625-.693,5.625s-2.172,5.537-1.129,6.292.272,3.942.272,3.942a5.874,5.874,0,0,0,.626.864h0a2.552,2.552,0,0,0,.366.348,3.434,3.434,0,0,0-.12.4,3.29,3.29,0,0,0,.172,2.034,9.261,9.261,0,0,1,.28,4.261l-1.408,9.508a4,4,0,0,0-1.873,0c-.5.28-.335,1.7.822,2.3a2.972,2.972,0,0,1-1.19.548c-1.029.235-1.751.385-2.227.476-.031,0-2.468-.538-3.094-.182s-.325,2.327,1.456,2.81a45.229,45.229,0,0,0,10.113.882l.118-.021c1.592-.314.194-2.4.018-2.659-.011-.085-.022-.175-.034-.272-.025-.217-.047-.467-.063-.734a23.771,23.771,0,0,0,4.33.122.452.452,0,0,0,.106-.019c1.409-.279.174-2.127.016-2.35-.006-.057-.014-.117-.022-.181v-.017c0-.042-.01-.088-.015-.132a.555.555,0,0,0-.012-.115c-.012-.039,0-.071-.01-.107-.006-.073-.011-.148-.018-.225v-.1c0-.059-.007-.118-.01-.178v-.1c0-.088,0-.179-.009-.271v-.718c0-.1.009-.2.015-.3l.009-.109c0-.075.012-.147.019-.224a.345.345,0,0,1,.012-.11c.011-.1.025-.206.039-.31a.671.671,0,0,1,.015-.093c.013-.078.027-.157.041-.236a.577.577,0,0,1,.024-.118c.017-.085.036-.17.057-.255a.314.314,0,0,1,.016-.071c.026-.1.056-.2.087-.306.01-.035.022-.07.034-.106.025-.076.052-.146.08-.226l.035-.094c.039-.1.082-.2.126-.294.012-.025.025-.05.038-.075.037-.076.076-.146.118-.226l.05-.087c.056-.094.113-.188.176-.278,1.616-2.3,2.042-6.746,2-7.713a8.512,8.512,0,0,1,.482-3.269,25.543,25.543,0,0,0,2-2.953c.122-.218.227-.422.311-.6.479-.166.8-.294.8-.294h0a6.812,6.812,0,0,1-.241-1.893,5.74,5.74,0,0,1,1.774-4.234,6.925,6.925,0,0,0,2.416-4.684v-.139C621.29,410.428,621.282,410.361,621.282,410.361Z" transform="translate(-478.423 -344.313)" fill="url(#linear-gradient)"/>
      <path id="Path_1059" data-name="Path 1059" d="M624.646,447.374a25.158,25.158,0,0,1-1.909,2.92,8.689,8.689,0,0,0-.46,3.232c.038.953-.366,5.349-1.91,7.626s-.751,6.213-.751,6.213l-2.463.864h-2.96l-2.039-.61-.537-1.483s.716-.11,2.5-.534a2.31,2.31,0,0,0,1.844-2.1l1.25-8.731a8.358,8.358,0,0,0-.239-3.729,3.035,3.035,0,0,1,.2-2.659l.039-.062a24.91,24.91,0,0,1,3.895-2.477c1.741-.841,3.507-1.24,4.008.251A2.586,2.586,0,0,1,624.646,447.374Z" transform="translate(-487.369 -369.005)" fill="#a5636d"/>
      <path id="Path_1060" data-name="Path 1060" d="M624.646,447.374a25.158,25.158,0,0,1-1.909,2.92,8.689,8.689,0,0,0-.46,3.232c.038.953-.366,5.349-1.91,7.626-1.087,1.606-1.015,4.033-.881,5.327.057.543.127.881.127.881l-2.464.864h-2.957l-2.039-.606-.537-1.483s.179-.028.587-.108,1.029-.215,1.919-.426a2.311,2.311,0,0,0,1.835-2.1l1.25-8.731a8.358,8.358,0,0,0-.239-3.729,3.035,3.035,0,0,1,.2-2.659l.039-.062a24.91,24.91,0,0,1,3.895-2.477c1.741-.841,3.507-1.24,4.008.251A2.586,2.586,0,0,1,624.646,447.374Z" transform="translate(-487.369 -369.005)" opacity="0.05"/>
      <path id="Path_1061" data-name="Path 1061" d="M619.616,479.3l-2.463.864h-2.96l-2.039-.611-.537-1.483s.179-.028.587-.108a1.11,1.11,0,0,0,.853,1.2l1.158.039c.163,0,.328.009.489.009a14.783,14.783,0,0,0,4.787-.795C619.548,478.956,619.616,479.3,619.616,479.3Z" transform="translate(-487.369 -380.938)" opacity="0.1"/>
      <path id="Path_1062" data-name="Path 1062" d="M612.928,479.293l-1.159-.04a1.131,1.131,0,0,1-.817-1.456s-2.086-.473-2.62-.161-.276,2.039,1.231,2.462a36.877,36.877,0,0,0,8.555.771l.1-.017c1.434-.294,0-2.351,0-2.351h0A14.825,14.825,0,0,1,612.928,479.293Z" transform="translate(-486.085 -380.782)" fill="#bebed0"/>
      <path id="Path_1063" data-name="Path 1063" d="M618.4,447.964c-.078.155-.161.317-.257.486a27.374,27.374,0,0,1-2.1,3.2,9.906,9.906,0,0,0-.52,3.653c.039,1.081-.413,6.035-2.155,8.606a8.236,8.236,0,0,0-1.078,4.57,14.694,14.694,0,0,0,.087,1.469c.065.6.147.971.147.971l-2.78.974H606.4l-2.3-.685-.6-1.681s.2-.032.654-.122,1.158-.239,2.165-.478a2.612,2.612,0,0,0,2.076-2.365l1.409-9.853a9.466,9.466,0,0,0-.269-4.209,3.381,3.381,0,0,1-.165-2.011,3.218,3.218,0,0,1,.441-1.061s.537-.423,1.349-.983c.359-.246.774-.52,1.221-.8,1.963-1.215,4.544-2.455,5.781-1.551a1.6,1.6,0,0,1,.57.821A2.091,2.091,0,0,1,618.4,447.964Z" transform="translate(-484.422 -369.257)" fill="#a5636d"/>
      <path id="Path_1064" data-name="Path 1064" d="M612.521,484.39l-2.779.974H606.4l-2.3-.685L603.5,483s.2-.032.654-.122a1.229,1.229,0,0,0,.39,1.086,1.31,1.31,0,0,0,.829.311l1.053.034c.184,0,.369.01.553.01a16.716,16.716,0,0,0,5.4-.9C612.446,484.017,612.521,484.39,612.521,484.39Z" transform="translate(-484.422 -382.723)" opacity="0.1"/>
      <path id="Path_1065" data-name="Path 1065" d="M604.97,484.382l-1.052-.035a1.323,1.323,0,0,1-.83-.312,1.3,1.3,0,0,1-.348-1.341s-2.35-.533-2.957-.18-.31,2.3,1.39,2.779a41.786,41.786,0,0,0,9.656.871l.113-.02c1.616-.332,0-2.656,0-2.656h0A16.68,16.68,0,0,1,604.97,484.382Z" transform="translate(-482.968 -382.547)" fill="#bebed0"/>
      <path id="Path_1066" data-name="Path 1066" d="M626.065,447.376a14.05,14.05,0,0,1-3.3.836,1.446,1.446,0,0,1-.251-.012h0a28.987,28.987,0,0,0-3.927.191c-.645.057-1.265.118-1.777.171-.764.079-1.29.136-1.29.136v-.5c.359-.246.774-.52,1.221-.8,1.963-1.215,4.544-2.455,5.781-1.551,1.741-.84,3.507-1.24,4.008.252A2.683,2.683,0,0,1,626.065,447.376Z" transform="translate(-488.789 -369.007)" opacity="0.1"/>
      <path id="Path_1067" data-name="Path 1067" d="M630.888,429.573a6.958,6.958,0,0,1-2.308,4.632c-2.551,2.49-1.469,6.066-1.469,6.066a20.137,20.137,0,0,1-4.353,1.227,1.442,1.442,0,0,1-.251-.012,47.042,47.042,0,0,0-5.711.362c-.764.08-1.29.136-1.29.136V431.407l14.094-3.422,1.276,1.271A2.284,2.284,0,0,1,630.888,429.573Z" transform="translate(-488.782 -362.791)" fill="#5c5c8e"/>
      <path id="Path_1068" data-name="Path 1068" d="M631.8,446.755" transform="translate(-494.699 -369.607)" fill="none"/>
      <g id="Group_1223" data-name="Group 1223" transform="translate(126.729 65.198)" opacity="0.1">
        <path id="Path_1069" data-name="Path 1069" d="M615.747,449.542l-.232.025v.112s.526-.057,1.29-.137c1.29-.13,3.26-.314,4.563-.369A51.42,51.42,0,0,0,615.747,449.542Z" transform="translate(-615.515 -435.678)"/>
        <path id="Path_1070" data-name="Path 1070" d="M634.636,429.264l-1.277-1.272-.851.213,1.07,1.065a2.4,2.4,0,0,1,0,.319,6.961,6.961,0,0,1-2.308,4.632c-2.551,2.489-1.469,6.066-1.469,6.066a24.144,24.144,0,0,1-3.958,1.191,3.681,3.681,0,0,1,.411.022,1.512,1.512,0,0,0,.252.013,20.139,20.139,0,0,0,4.353-1.227s-1.087-3.577,1.469-6.066a6.964,6.964,0,0,0,2.308-4.632A2.53,2.53,0,0,0,634.636,429.264Z" transform="translate(-619.265 -427.992)"/>
      </g>
      <path id="Path_1071" data-name="Path 1071" d="M592.821,417.946s-4.26-2.956-4.573-.294,4.573,2.281,4.573,2.281Z" transform="translate(-478.879 -358.635)" fill="#a5636d"/>
      <path id="Path_1072" data-name="Path 1072" d="M602.34,415.67s-2.3,1.525-3.581,1.43c0,0-3.484.467-3.89.234s-.652,3.379-.652,3.379l5.729-.4,3.673-.561s1.837-1.12,1.837-2.085S602.34,415.67,602.34,415.67Z" transform="translate(-481.052 -358.319)" fill="#f7cddd"/>
      <path id="Path_1073" data-name="Path 1073" d="M602.34,415.67s-2.3,1.525-3.581,1.43c0,0-3.484.467-3.89.234s-.652,3.379-.652,3.379l5.729-.4,3.673-.561s1.837-1.12,1.837-2.085S602.34,415.67,602.34,415.67Z" transform="translate(-481.052 -358.319)" opacity="0.05"/>
      <path id="Path_1074" data-name="Path 1074" d="M599.274,427.745s-5.182-.215-4.021,2.2,5.087-.517,5.087-.517Z" transform="translate(-481.367 -362.702)" fill="#a5636d"/>
      <path id="Path_1075" data-name="Path 1075" d="M607.758,415.033s-4.2-3.142-3.609-6.969,3.609,2.93,3.609,2.93Z" transform="translate(-484.638 -355.131)" fill="#5c5c8e"/>
      <path id="Path_1076" data-name="Path 1076" d="M601.97,389.407a5.314,5.314,0,0,1-1.494,3.689,4.984,4.984,0,0,1-.767.654,5.47,5.47,0,0,1-1.743.8,5.573,5.573,0,0,1-.753.134c-.182.017-.366.027-.552.027a5.167,5.167,0,0,1-1.75-.294,5.31,5.31,0,1,1,7.059-5.01Z" transform="translate(-480.011 -346.855)" fill="#a5636d"/>
      <path id="Path_1077" data-name="Path 1077" d="M629.875,429.573c-.476.088-1.064.247-1.064.494,0,.416-6.638,2.656-6.638,2.656s.248.579-.415,1.575-6.057,6.72-6.057,6.72l.018.17.069.66.329,3.153a10.908,10.908,0,0,0-2.739-.664.912.912,0,0,1-.662-.309,3.213,3.213,0,0,1,.441-1.06s.537-.424,1.349-.983V431.407l14.093-3.422,1.277,1.271A2.381,2.381,0,0,1,629.875,429.573Z" transform="translate(-487.77 -362.791)" opacity="0.1"/>
      <path id="Path_1078" data-name="Path 1078" d="M626.829,417.217s-1.66.164-1.66.58-6.638,2.656-6.638,2.656.248.579-.415,1.575-6.057,6.721-6.057,6.721l.416,3.981a10.911,10.911,0,0,0-2.738-.664c-.294.036-.625-.237-.9-.555a5.8,5.8,0,0,1-.6-.854s.748-3.154-.248-3.9,1.078-6.222,1.078-6.222.938-3.893.661-5.564a2.024,2.024,0,0,0-.08-.329.115.115,0,0,0-.011-.036c-.588-1.6-6.958-14.985-6.958-14.985a9.536,9.536,0,0,1,.08-1.136c.013-.1.031-.213.05-.324a5.554,5.554,0,0,1,.129-.587,3.638,3.638,0,0,1,.12-.366c.2-.505.5-.895.948-.9a2.786,2.786,0,0,1,1.666-.7,7.248,7.248,0,0,1,3.729.7,23.311,23.311,0,0,0,4.811,1.742l1.958,2.571.4.527a50.826,50.826,0,0,1,4,6.068,10.792,10.792,0,0,0,2.684,3.361C625.5,412.24,626.829,417.217,626.829,417.217Z" transform="translate(-484.127 -351.02)" fill="#f7cddd"/>
      <path id="Path_1079" data-name="Path 1079" d="M617.762,414.5s5.538,1.369,7.685,4.822Z" transform="translate(-489.602 -357.894)" opacity="0.1"/>
      <path id="Path_1080" data-name="Path 1080" d="M620.449,424.022s1.048,7.033.757,7.562S620.449,424.022,620.449,424.022Z" transform="translate(-490.577 -361.352)" opacity="0.1"/>
      <path id="Path_1081" data-name="Path 1081" d="M617.134,428.677c-.4.527-2.037,4.6-2.037,4.6l.471,6.847.416,3.981a10.9,10.9,0,0,0-2.737-.664c-.294.036-.626-.237-.9-.555.431-2.332,1.352-7.211,1.518-7.305a22.789,22.789,0,0,0,1.4-5.142c.059-1.1,1.616-3.544,1.616-3.544S617.539,428.149,617.134,428.677Z" transform="translate(-487.636 -362.397)" opacity="0.1"/>
      <path id="Path_1082" data-name="Path 1082" d="M612.059,411.647c-.1.31-.261,2.116-.261,2.116a2.442,2.442,0,0,1-2.064,2.277,2,2,0,0,0-.08-.329c-.5-1.409-6.969-15.016-6.969-15.016a8.938,8.938,0,0,1,.259-2.048,8.257,8.257,0,0,1,3.639.223c.645-.085,2.749,4.1,2.749,4.1s1.4,3.2,1.556,3.639a7.737,7.737,0,0,1,.062,1.4c.061.25.716.464.81.808s.032,1.029.094,1.15A5.087,5.087,0,0,1,612.059,411.647Z" transform="translate(-484.127 -352.087)" opacity="0.1"/>
      <path id="Path_1083" data-name="Path 1083" d="M610.786,411.254c-.1.311-.261,2.116-.261,2.116a2.351,2.351,0,0,1-1.657,2.161,3.456,3.456,0,0,1-1,.2l-1,.87-4.621,3.4s-1.721-3.184-1.255-3.2,3.161-2.281,3.161-2.281a7.015,7.015,0,0,0,2.034-2.665,2.234,2.234,0,0,1-.05-.273c-.166-1.409-3.651-6.8-3.651-6.8a10.191,10.191,0,0,1-1.872-4.522c-.015-.068-.025-.136-.038-.207a2.107,2.107,0,0,1-.026-.276c-.063-1.13.76-1.541,1.735-1.638h0a7.008,7.008,0,0,1,1.528.047,11.122,11.122,0,0,1,1.494.294c.417-.055,1.446,1.679,2.12,2.909h0c.363.667.624,1.187.624,1.187s1.4,3.2,1.556,3.639a7.749,7.749,0,0,1,.062,1.4c.062.248.717.466.81.81s.032,1.029.094,1.15A5.108,5.108,0,0,1,610.786,411.254Z" transform="translate(-483.352 -351.943)" fill="#f7cddd"/>
      <path id="Path_1084" data-name="Path 1084" d="M612.8,398.988a3.166,3.166,0,0,1-3.448.441,23.183,23.183,0,0,1-3.17-1.936c-.688-.42-1.416-.764-2.094-1.2h0c-.1-.065-.2-.129-.294-.2-.781-.553-1.458-1.262-2.268-1.763a3.527,3.527,0,0,0-1.822-.588,2.067,2.067,0,0,0-.868.182,1.124,1.124,0,0,0-.147.072,3.731,3.731,0,0,0-.734.551c-.229.206-.448.425-.689.617-.015-.068-.025-.137-.038-.207a2.229,2.229,0,0,1-.027-.276c-.182.018-.366.028-.552.028a5.18,5.18,0,0,1-1.75-.294.116.116,0,0,0-.013-.066,4.182,4.182,0,0,0-1.4-2.742,9.732,9.732,0,0,0-1.942-.734,5.309,5.309,0,1,1,10,.574,7.246,7.246,0,0,1,3.729.7,23.373,23.373,0,0,0,4.812,1.743l1.958,2.571a2.192,2.192,0,0,0-.473,1.02C611.538,398.179,612.213,398.662,612.8,398.988Z" transform="translate(-480.006 -346.856)" opacity="0.1"/>
      <path id="Path_1085" data-name="Path 1085" d="M592.864,389.013a4.186,4.186,0,0,1,1.4,2.738,2.135,2.135,0,0,0,.32.929c.441.579,1.346.416,1.929,0a11.347,11.347,0,0,1,1.694-1.34,2.921,2.921,0,0,1,2.69.4c.809.507,1.487,1.216,2.268,1.763.757.534,1.6.914,2.388,1.394a22.69,22.69,0,0,0,3.17,1.937,3.177,3.177,0,0,0,3.446-.441c-.587-.326-1.262-.808-1.216-1.508s.86-1.221.8-1.938-.9-1-1.5-1.35c-1.264-.734-1.8-2.35-2.073-3.842-.21-1.166-.383-2.469-1.255-3.219-.563-.482-1.322-.639-1.89-1.116a5.808,5.808,0,0,1-1.175-1.773,7.052,7.052,0,0,0-2.279-2.663,3.654,3.654,0,0,0-3.292-.45c-.411.163-.786.416-1.192.587-1.011.441-2.167.378-3.167.838a7.206,7.206,0,0,0-2.767,3.007c-.62,1.018-1.85,2.814-1.5,4.136C590.012,388.447,591.95,388.375,592.864,389.013Z" transform="translate(-479.377 -344.757)" fill="#4c3e42"/>
      <g id="Group_1224" data-name="Group 1224" transform="translate(110.224 40.539)" opacity="0.1">
        <path id="Path_1086" data-name="Path 1086" d="M624.069,401.07a.931.931,0,0,0-.028-.161,2.491,2.491,0,0,0-.527,1.1,1.009,1.009,0,0,0,.024.283A2.136,2.136,0,0,0,624.069,401.07Z" transform="translate(-601.914 -393.498)"/>
        <path id="Path_1087" data-name="Path 1087" d="M608.969,399.74A22.7,22.7,0,0,1,605.8,397.8c-.789-.48-1.632-.86-2.389-1.394-.781-.552-1.459-1.262-2.269-1.763a2.941,2.941,0,0,0-2.69-.4,10.991,10.991,0,0,0-1.694,1.341c-.585.424-1.481.588-1.929,0a2.132,2.132,0,0,1-.32-.929,4.181,4.181,0,0,0-1.4-2.738c-.915-.639-2.853-.567-3.2-1.91a2.083,2.083,0,0,1-.045-.735,2.94,2.94,0,0,0-.2,1.727c.353,1.349,2.29,1.276,3.2,1.91a4.187,4.187,0,0,1,1.4,2.74,2.159,2.159,0,0,0,.319.929c.441.579,1.346.415,1.93-.008a10.918,10.918,0,0,1,1.694-1.34,2.925,2.925,0,0,1,2.69.4c.81.507,1.487,1.216,2.268,1.764.757.534,1.6.913,2.388,1.394a22.508,22.508,0,0,0,3.17,1.937,3.178,3.178,0,0,0,3.446-.441,4.25,4.25,0,0,1-.642-.424A3.661,3.661,0,0,1,608.969,399.74Z" transform="translate(-589.599 -389.273)"/>
      </g>
      <path id="Path_1088" data-name="Path 1088" d="M578.2,418.941l11.753-4.39a1.117,1.117,0,0,1,1.438.653v0h0a1.119,1.119,0,0,1-.657,1.439h0l-11.753,4.391-2.518-.252Z" transform="translate(-474.604 -357.887)" fill="#5c5c8e"/>
      <path id="Path_1089" data-name="Path 1089" d="M591.029,414.953h0a1.119,1.119,0,0,1-.657,1.439l-11.753,4.39-1.892-.19-.272.294,2.518.252,11.753-4.391a1.118,1.118,0,0,0,.657-1.438h0a1.112,1.112,0,0,0-.457-.558A1.213,1.213,0,0,1,591.029,414.953Z" transform="translate(-474.602 -357.986)" fill="#fff" opacity="0.1"/>
      <path id="Path_1090" data-name="Path 1090" d="M578.2,421.485l.783,2.095-2.067-.207-.453-.046.618-.655Z" transform="translate(-474.604 -360.431)" fill="#efc8c4"/>
      <path id="Path_1091" data-name="Path 1091" d="M577.078,423.349a.449.449,0,0,1,.121.132.191.191,0,0,1,0,.2.476.476,0,0,1-.115.081.374.374,0,0,0-.168.283l-.453-.045Z" transform="translate(-474.606 -361.108)" fill="#727a9c"/>
      <path id="Path_1092" data-name="Path 1092" d="M561.871,383.464l-1.982-.967a.239.239,0,0,1-.11-.32h0l.21-.432a.239.239,0,0,1,.318-.111h0l1.336.651,1.394-2.859a.241.241,0,0,1,.32-.111l.432.211a.239.239,0,0,1,.111.318v0l-1.71,3.507a.239.239,0,0,1-.32.11Z" transform="translate(-468.538 -345.11)" fill="#3acc6c"/>
      <path id="Path_1093" data-name="Path 1093" d="M568.669,402.879l-1.982-.967a.239.239,0,0,1-.11-.32h0l.21-.432a.241.241,0,0,1,.322-.11l1.334.651,1.393-2.862a.241.241,0,0,1,.32-.112l.43.212a.239.239,0,0,1,.112.319h0l-1.71,3.507a.242.242,0,0,1-.322.11Z" transform="translate(-471.007 -352.158)" fill="#3acc6c"/>
      <path id="Path_1094" data-name="Path 1094" d="M565.617,393.308l-1.982-.967a.242.242,0,0,1-.111-.32l.211-.432a.238.238,0,0,1,.318-.111h0l1.336.651,1.394-2.863a.239.239,0,0,1,.32-.11h0l.432.21a.242.242,0,0,1,.11.322l-1.711,3.51a.24.24,0,0,1-.32.11h0Z" transform="translate(-469.898 -348.683)" fill="#3acc6c"/>
      <path id="Path_1095" data-name="Path 1095" d="M571.622,411.646l-1.982-.967a.239.239,0,0,1-.11-.32h0l.21-.432a.239.239,0,0,1,.32-.11h0l1.336.651,1.394-2.859a.242.242,0,0,1,.322-.111l.431.211a.238.238,0,0,1,.111.317v0l-1.709,3.507A.242.242,0,0,1,571.622,411.646Z" transform="translate(-472.079 -355.343)" fill="#3acc6c"/>
      <path id="Path_1096" data-name="Path 1096" d="M455.118,473.622s.874,1.143-.4,2.868-2.332,3.182-1.91,4.261c0,0,1.928-3.2,3.5-3.249S456.842,475.55,455.118,473.622Z" transform="translate(-429.669 -379.363)" fill="#3acc6c"/>
      <path id="Path_1097" data-name="Path 1097" d="M455.148,473.622a1.4,1.4,0,0,1,.179.359c1.53,1.8,2.351,3.476.874,3.526-1.371.038-3.015,2.489-3.407,3.107a1.056,1.056,0,0,0,.045.147s1.927-3.2,3.5-3.248S456.873,475.55,455.148,473.622Z" transform="translate(-429.7 -379.363)" opacity="0.1"/>
      <path id="Path_1098" data-name="Path 1098" d="M458.926,475.763c0,.4-.045.734-.1.734s-.1-.326-.1-.734.056-.213.111-.213S458.926,475.36,458.926,475.763Z" transform="translate(-431.853 -380.045)" fill="#ffd037"/>
      <path id="Path_1099" data-name="Path 1099" d="M459.522,476.5c-.352.192-.661.31-.687.26s.238-.244.588-.441.213-.053.239,0S459.876,476.31,459.522,476.5Z" transform="translate(-431.892 -380.306)" fill="#ffd037"/>
      <path id="Path_1100" data-name="Path 1100" d="M448.127,473.622s-.873,1.143.4,2.868,2.33,3.182,1.91,4.261c0,0-1.926-3.2-3.5-3.249S446.4,475.55,448.127,473.622Z" transform="translate(-427.294 -379.363)" fill="#3acc6c"/>
      <path id="Path_1101" data-name="Path 1101" d="M448.122,473.622a1.427,1.427,0,0,0-.178.359c-1.531,1.8-2.351,3.476-.874,3.526,1.369.038,3.014,2.489,3.407,3.107a1.072,1.072,0,0,1-.047.147s-1.926-3.218-3.5-3.262S446.4,475.55,448.122,473.622Z" transform="translate(-427.289 -379.363)" opacity="0.1"/>
      <path id="Path_1102" data-name="Path 1102" d="M446.693,475.763c0,.4.044.734.1.734s.1-.326.1-.734-.055-.213-.111-.213S446.693,475.36,446.693,475.763Z" transform="translate(-427.484 -380.045)" fill="#ffd037"/>
      <path id="Path_1103" data-name="Path 1103" d="M445.7,476.5c.354.192.661.31.687.26s-.238-.244-.588-.441-.214-.053-.241,0S445.343,476.31,445.7,476.5Z" transform="translate(-427.044 -380.306)" fill="#ffd037"/>
      <ellipse id="Ellipse_9" data-name="Ellipse 9" cx="9.137" cy="1.402" rx="9.137" ry="1.402" transform="translate(14.006 107.323)" fill="#34657f" opacity="0.1"/>
      <path id="Path_1104" data-name="Path 1104" d="M454.885,482.088l-.044.357-.061.5-.026.21-.06.5-.028.21-.06.5-.7,5.73c-.064.511-.9.911-1.91.911h-3.63c-1.009,0-1.844-.4-1.91-.911l-.7-5.73-.062-.5-.025-.21-.063-.5-.025-.21-.062-.5-.045-.357c-.034-.294.418-.535.989-.535H453.9C454.47,481.553,454.922,481.8,454.885,482.088Z" transform="translate(-427.041 -382.242)" fill="#65617d"/>
      <path id="Path_1105" data-name="Path 1105" d="M454.871,482.953l-.062.5h-9.2l-.06-.5Z" transform="translate(-427.07 -382.751)" fill="#9d9cb5"/>
      <path id="Path_1106" data-name="Path 1106" d="M454.834,484.074l-.062.5h-9.021l-.062-.5Z" transform="translate(-427.119 -383.158)" fill="#9d9cb5"/>
      <path id="Path_1107" data-name="Path 1107" d="M454.795,485.2l-.062.5h-8.846l-.062-.5Z" transform="translate(-427.169 -383.565)" fill="#9d9cb5"/>
    </g>
  </g>
</svg>
